<svg width="272" height="320" fill="none" xmlns="http://www.w3.org/2000/svg"><path d="M87.694 308.582c.708-.85 1.416-1.559 2.337-2.196 1.912-1.204 3.966-2.054 6.02-2.834 2.409-7.792 4.179-15.655 5.1-23.73.708-4.817 1.204-9.705 1.346-14.663.354-7.084.354-14.168 0-21.252a18.6 18.6 0 002.904.213c.779 0 1.416-.071 1.983-.213 1.7 19.127-.283 37.828-6.02 56.174-.355 1.275-.709 2.692-1.204 4.038.991 1.204 1.983 2.409 2.974 3.755.425.637.779 1.416 1.134 2.195.354.709.495 1.559.708 2.338.142.992.142 1.913.071 2.834 0 1.062-.354 2.125-.921 2.975-.213.566-.496 1.133-.779 1.7l-1.629-.142-2.338-11.9c-.354 1.416-.779 2.762-1.133 4.037a11.744 11.744 0 01-.85 2.196 33.895 33.895 0 01-1.629 2.692c-.637.992-1.275 1.913-1.912 2.904l-1.63.071-.99-.708 3.115-10.767-7.507 8.429-1.063-.425a34.461 34.461 0 010-3.825c.071-.708.213-1.275.496-1.842.496-.779.92-1.417 1.417-2.054zM7.303 266.15c1.133-.212 2.266-.354 3.258-.07a30.967 30.967 0 016.303 1.912c6.942-4.25 13.529-8.996 19.55-14.309a143.795 143.795 0 0010.765-10.13 250.59 250.59 0 0015.3-17.213c.354 1.771 1.062 3.329 2.195 4.604l.213.284c-11.404 15.23-25.286 27.909-41.648 37.827a38.28 38.28 0 01-3.683 2.125c.07 1.558 0 3.188-.213 4.817-.07.779-.212 1.558-.637 2.267-.212.85-.496 1.629-1.062 2.408-.496.85-.992 1.558-1.7 2.125-.78.779-1.771 1.275-2.692 1.629-.637.284-1.204.355-1.77.638l-1.134-1.063 6.091-10.625c-1.204.921-2.337 1.629-3.54 2.337-.638.425-1.276.78-2.055.992-1.062.354-2.054.709-2.975.992-1.062.283-2.196.637-3.329.85l-1.275-.992-.283-1.204 9.633-5.88-11.262 1.346-.567-1.062c.85-.992 1.7-1.984 2.621-2.834.425-.496.992-.921 1.558-1.062a5.928 5.928 0 012.338-.709z" fill="#F46A22"/><path d="M79.052 119.8S52.349 13.12 40.308 18.503c-12.112 5.384 3.541 41.44 3.541 41.44s-18.203-24.51-24.931-18.347c-6.8 6.092 17.211 28.547 17.211 28.547s-23.02-11.971-26.986-4.746c-4.037 7.155 35.84 41.936 69.909 54.403zm116.16 16.435s61.48-57.166 73.379-46.753c11.899 10.484-30.244 29.681-30.244 29.681s35.556-3.471 33.573 4.605c-1.912 8.146-34.706 9.067-34.706 9.067s35.981 6.163 26.348 14.309c-9.633 8.075-46.676 6.304-68.35-10.909zM158.381.936c2.975 1.204 4.463 4.746 3.329 7.721l-.141.354c-.567 1.559-1.842 2.692-3.258 3.259.07 8.996-3.683 18.913-10.129 24.722-1.7 1.558-3.896-1.204-2.266-2.763 5.524-5.03 8.782-13.813 8.782-21.676-.283-.07-.637-.142-.85-.212-3.045-1.205-4.533-4.676-3.399-7.722l.212-.354c1.133-2.975 4.675-4.463 7.72-3.33zM141.595.44c4.25 1.629 4.391 6.092 2.408 8.996 1.913 7.721.071 15.584-3.116 23.022-.921 2.125-4.25.78-3.258-1.346 2.62-6.304 4.533-12.821 3.258-19.41-1.063.355-2.338.284-3.612-.283-7.225-2.691-2.834-13.742 4.32-10.98zM124.17 2.636l.355.142c3.045 1.204 4.533 4.746 3.328 7.72-.141.426-.354.78-.566 1.134 3.187 5.455 4.675 11.547 4.958 18.205.142 2.267-3.4 2.834-3.471.567-.283-6.092-1.558-11.617-4.391-16.576-1.346.496-2.833.567-4.25 0l-.354-.141c-3.046-1.134-4.533-4.676-3.329-7.722 1.275-2.975 4.746-4.462 7.72-3.33z" fill="#FF8200"/><path d="M5.248 172.858s35.84 4.958 58.717-57.591c22.807-62.62 28.615-102.29 84.712-90.176 56.096 12.113 80.462 89.893 44.764 167.601C157.672 270.4 48.666 274.934 5.248 172.858z" fill="#FFB839"/><path d="M169.006 87.64s16.715 29.894 7.72 34.64c-8.995 4.675-30.456-24.014-30.456-24.014s4.887-17.143 22.736-10.626z" fill="#F46A22"/><path d="M165.605 96.353c2.125.567 1.204 3.755-.85 3.188-2.054-.496-1.133-3.683.85-3.188zm-8.004 1.417c2.055.567 1.134 3.684-.92 3.188-1.984-.567-1.134-3.755.92-3.188z" fill="#000"/><path d="M164.614 171.087c-1.133-4.746-.85-9.492-1.629-14.239-.212-.991-1.558-1.771-2.266-.779-2.338 3.117-9.208 14.664-12.041 5.313-1.417-4.746-1.275-9.705-2.479-14.451-.284-.992-1.63-1.133-2.267-.425-2.196 2.338-13.528 16.505-14.166 4.463-.212-4.179.567-8.288.567-12.467 0-1.276-1.558-1.559-2.267-.85-3.258 3.046-9.278 10.979-14.661 8.075-3.188-1.629-4.463-5.596-5.1-8.926 13.387-8.996 31.306-9.917 46.181-2.691 13.74 6.658 20.753 21.393 21.957 36.339-4.038 5.03-9.775 8.784-11.829.638z" fill="#FFD93B"/><path d="M158.877 195.738c-1.205-3.754-.85-8.004-2.834-11.404-.495-.851-1.487-.709-2.124-.213-4.604 3.967-14.662 14.592-17.424 2.975-1.063-4.25-.921-8.642-1.275-13.034-.071-1.133-1.488-1.7-2.338-.779-1.77 2.054-3.541 4.604-5.808 6.092-4.887 3.188-6.658-1.346-6.799-5.313-.142-4.038.283-8.217-.85-12.113-.284-.992-1.559-1.204-2.267-.496-1.487 1.629-2.833 3.4-4.462 4.888-3.966 3.542-8.216.85-7.579-3.967.496-2.904 1.275-5.809.992-8.784-.142-1.062-1.629-1.771-2.338-.779-3.399 4.534-9.49 12.892-15.724 12.326 2.196-6.163 5.383-12.184 9.492-17.851a38.787 38.787 0 018.145-8.501c.496 2.125 1.416 4.109 2.55 5.88 5.666 8.358 13.457 2.408 19.124-2.763-.567 5.95-1.913 13.601 4.108 16.222 5.17 2.267 9.491-3.613 12.607-7.651.85 6.163.425 14.38 6.8 17.072 4.037 1.7 7.437-2.904 9.845-6.659.354 6.588.142 15.23 6.658 17.639 3.329 1.275 6.587-.567 9.279-3.329a49.617 49.617 0 01-1.346 12.254c-3.683 5.667-13.741 16.93-16.432 8.288z" fill="#FFD93B"/><path d="M158.027 217.06c-1.346 1.488-2.833 2.834-4.392 4.18-2.479-.213-4.816-1.7-5.737-4.817a26.1 26.1 0 01-.992-5.313c-.212-2.621-.212-5.313-.637-8.005-.071-1.062-1.487-1.7-2.266-.779-2.409 2.975-12.891 15.939-15.087 6.446-.921-3.966-.496-8.004-1.558-11.971-.213-1.063-1.559-1.063-2.196-.496-1.7 1.629-3.046 3.542-4.675 5.242-1.204 1.275-2.479 2.763-3.895 3.684-1.984 1.841-4.038.991-6.163-2.48-.141-4.604 1.7-9.279.355-13.813-.284-.921-1.7-1.275-2.196-.496-2.267 2.975-4.604 7.296-8.004 8.996-6.728 3.259-4.958-14.238-5.1-17.213-.07-1.133-1.628-1.771-2.337-.85-2.833 3.754-4.887 7.863-8.712 10.2a60.347 60.347 0 012.833-22.526c6.588 1.063 11.546-3.754 15.724-9.067-.85 4.746-2.124 10.767 1.984 12.822 4.958 2.479 9.066-1.984 12.395-5.667.496 5.808-1.417 13.459 3.329 17.284 4.037 3.258 8.853-1.275 11.97-4.888.212 5.738.212 13.459 5.029 16.434 6.445 3.826 12.041-2.479 16.645-6.8 1.629 5.1.85 14.805 8.428 14.026 3.542-.354 6.871-2.48 9.704-5.242-1.983 4.675-4.604 8.854-7.862 12.538a52.003 52.003 0 01-6.587 8.571z" fill="#FFD93B"/><path d="M85.001 192.551c3.754-1.701 5.88-4.676 7.933-7.793-.283 6.092-.708 13.955 5.383 15.939 3.825 1.275 7.721-3.613 10.341-7.367-.425 5.667-2.762 14.521 3.4 15.796 5.737 1.276 9.845-4.816 13.387-8.996.567 5.455-.213 12.397 5.525 14.593 4.745 1.771 9.845-3.896 13.103-8.076.354 5.596.425 11.476 4.675 15.584a6.03 6.03 0 002.054 1.346c-8.004 6.234-17.991 10.768-27.836 10.272-18.203-.992-30.952-12.751-35.84-30.106a51.167 51.167 0 01-2.125-11.192c-.07 0-.07 0 0 0z" fill="#FFD93B"/><path d="M184.73 72.269c.212 0 .425.07.637.07-.85-.353-1.77-.566-2.55-.566-.991 0-1.699.213-2.337.78 1.204-.426 2.621-.567 4.25-.284zm-1.204-4.25c7.366.212 14.803 10.838 12.466 17.85v.071c0 2.196-3.258 2.267-3.613.284-.141-.213-.141-.496-.07-.78-.213-4.533-3.117-8.287-7.508-9.563-5.667-1.558-7.579 4.25-7.65 8.784 0 2.338-3.683 2.338-3.683-.07.142-6.447 1.487-16.789 10.058-16.576zm-75.15-1.629c.213 0 .425.14.638.14-.85-.353-1.7-.637-2.621-.637s-1.7.284-2.338.78c1.275-.355 2.692-.496 4.321-.284zm-1.133-4.11c7.366.213 14.803 10.768 12.466 17.78v.072c0 2.266-3.329 2.337-3.613.283-.141-.213-.141-.425-.07-.78-.213-4.462-3.046-8.287-7.508-9.491-5.596-1.559-7.579 4.25-7.579 8.713 0 2.337-3.683 2.337-3.683 0 0-6.517 1.416-16.789 9.987-16.576z" fill="#000"/><path d="M86.985 86.507c.92-1.559 2.479-2.692 4.179-3.188 1.7-.425 3.683-.142 5.312.78 2.479 1.062 4.25 3.541 4.25 6.375 0 3.825-3.259 6.942-7.013 6.942-3.258 0-6.728-2.125-7.437-5.525-.354-1.913-.283-3.684.709-5.384zm110.494 8.997h.354c3.825 0 6.941 3.258 6.871 7.012 0 3.826-3.188 6.942-7.012 6.942h-.355c-3.824 0-6.941-3.258-6.87-7.012.071-3.897 3.258-6.942 7.012-6.942z" fill="#FF8200"/></svg>