<svg width="145" height="30" fill="none" xmlns="http://www.w3.org/2000/svg"><path d="M64.21 15.71l-1.39 1.446V21h-1.5V9.625h1.5v5.625l5.055-5.625h1.813l-4.477 5.023L70.039 21h-1.797l-4.031-5.29zM72.96 21h-1.5V9.625h1.5V21zm2.75 0V9.625h3.212c.99 0 1.865.219 2.625.656a4.415 4.415 0 011.758 1.867c.416.808.627 1.735.632 2.782v.726c0 1.073-.208 2.013-.624 2.82a4.339 4.339 0 01-1.774 1.86c-.766.432-1.659.654-2.68.664h-3.148zm1.5-10.14v8.913h1.58c1.155 0 2.054-.359 2.694-1.078.646-.718.97-1.742.97-3.07v-.664c0-1.292-.306-2.294-.915-3.008-.604-.719-1.463-1.083-2.578-1.094h-1.75zm12.353 5.07c-1.287-.37-2.225-.823-2.813-1.36a2.622 2.622 0 01-.875-2c0-.896.357-1.635 1.07-2.218.72-.589 1.651-.883 2.797-.883.781 0 1.477.15 2.086.453.615.302 1.089.719 1.422 1.25.338.531.508 1.112.508 1.742H92.25c0-.687-.219-1.226-.656-1.617-.438-.396-1.055-.594-1.852-.594-.74 0-1.318.164-1.734.492-.412.323-.617.774-.617 1.352 0 .463.195.857.586 1.18.395.317 1.065.609 2.007.875.948.265 1.688.56 2.22.882.536.318.931.69 1.187 1.118.26.427.39.93.39 1.507 0 .922-.36 1.662-1.078 2.22-.719.551-1.68.827-2.883.827-.78 0-1.51-.148-2.187-.445-.677-.302-1.2-.714-1.57-1.234a3.018 3.018 0 01-.547-1.774h1.507c0 .688.253 1.232.758 1.633.51.396 1.19.594 2.04.594.791 0 1.398-.162 1.82-.485.421-.323.632-.763.632-1.32s-.195-.987-.585-1.29c-.391-.306-1.1-.608-2.126-.905zm17.664-5.07h-3.657V21h-1.492V10.86H98.43V9.624h8.797v1.234zm7.343 7.171h-4.765L108.734 21h-1.546l4.343-11.375h1.313L117.195 21h-1.539l-1.086-2.969zm-4.312-1.234h3.867l-1.937-5.32-1.93 5.32zm9.976 2.976h5.391V21h-6.898V9.625h1.507v10.148zm13.532-4.03h-4.93v4.03h5.726V21h-7.226V9.625h7.148v1.234h-5.648v3.657h4.93v1.226zm6.015.187c-1.286-.37-2.224-.823-2.812-1.36a2.62 2.62 0 01-.875-2c0-.896.357-1.635 1.07-2.218.719-.589 1.651-.883 2.797-.883.781 0 1.477.15 2.086.453.614.302 1.088.719 1.422 1.25.338.531.508 1.112.508 1.742h-1.508c0-.687-.219-1.226-.657-1.617-.437-.396-1.054-.594-1.851-.594-.74 0-1.318.164-1.734.492-.412.323-.618.774-.618 1.352 0 .463.196.857.586 1.18.396.317 1.065.609 2.008.875.948.265 1.688.56 2.219.882.536.318.932.69 1.187 1.118.261.427.391.93.391 1.507 0 .922-.359 1.662-1.078 2.22-.719.551-1.68.827-2.883.827-.781 0-1.51-.148-2.187-.445-.678-.302-1.201-.714-1.571-1.234a3.022 3.022 0 01-.547-1.774h1.508c0 .688.253 1.232.758 1.633.51.396 1.19.594 2.039.594.792 0 1.399-.162 1.82-.485.422-.323.633-.763.633-1.32s-.195-.987-.586-1.29c-.39-.306-1.099-.608-2.125-.905z" fill="#BDBDBD"/><path fill-rule="evenodd" clip-rule="evenodd" d="M21.113 8.65c.54-1.596.947-2.887 1.275-3.928.561-1.782.892-2.83 1.261-3.415C24.82-.55 26.486-.13 27.652.74c1.285.96 1.648 2.09.728 3.549-.269.426-4.235 4.572-5.25 5.63a5.07 5.07 0 011.146 1.835c4.718-1.05 10.158-1.956 11.217-1.956 2.195 0 2.729 1.632 2.613 3.084-.127 1.6-.888 2.508-2.613 2.508-.474 0-8.187-1.09-10.944-1.482a5.035 5.035 0 01-.503 1.794c4.643 2.151 11.046 5.614 11.897 6.259 1.75 1.325 1.19 2.949.221 4.036-1.067 1.198-2.223 1.463-3.598.422-.403-.305-7.898-7.325-9.787-9.096a5.053 5.053 0 01-2.187 1.085c.392 1.92.81 3.642 1.154 5.067.463 1.91.797 3.29.771 3.905-.092 2.194-1.745 2.658-3.19 2.482-1.593-.194-2.47-.993-2.398-2.716.02-.49 1.233-6.79 1.604-8.711a5.044 5.044 0 01-1.987-.857c-2.91 3.066-5.268 5.227-6.112 5.797-1.819 1.23-3.175.175-3.892-1.092-.79-1.396-.668-2.576.76-3.542.36-.242 5.22-2.114 7.649-3.042a5.038 5.038 0 01-.5-1.768c-3.223-.593-12.101-2.23-12.554-2.364C.242 11.08-.232 9.993.099 8.423c.3-1.425 1.272-2.84 3.378-2.22.964.284 6.862 3.044 11.295 5.417a5.084 5.084 0 011.615-2.166c-1.484-1.58-4.266-4.568-4.438-4.954-.705-1.574-.187-2.64 1.222-3.41 1.277-.699 2.985-.88 3.882 1.124.408.912.883 2.709 1.666 6.233a5.11 5.11 0 012.393.203zm.843 4.808a2.457 2.457 0 11-4.914 0 2.457 2.457 0 014.914 0z" fill="#BDBDBD"/></svg>