<svg width="18" height="18" viewBox="0 0 18 18" fill="none" xmlns="http://www.w3.org/2000/svg">
<path d="M9.51562 5.01562V9.23438L12.9844 11.3438L12.2812 12.5625L8.01562 9.98438V5.01562H9.51562ZM18 7.125H11.2031L13.9688 4.3125C12.5938 2.9375 10.9375 2.25 9 2.25C7.09375 2.21875 5.45312 2.875 4.07812 4.21875C2.73438 5.59375 2.0625 7.21875 2.0625 9.09375C2.0625 10.9688 2.73438 12.5938 4.07812 13.9688C5.42188 15.3438 7.0625 16.0312 9 16.0312C10.9375 16.0312 12.5938 15.3438 13.9688 13.9688C15.3125 12.625 15.9844 11 15.9844 9.09375H18C18 11.5625 17.125 13.6562 15.375 15.375C13.625 17.125 11.5 18 9 18C6.5 18 4.375 17.125 2.625 15.375C0.875 13.6562 0 11.5781 0 9.14062C0 6.67188 0.875 4.5625 2.625 2.8125C4.375 1.0625 6.48438 0.1875 8.95312 0.1875C11.4219 0.1875 13.5312 1.0625 15.2812 2.8125L18 0V7.125Z" fill="#808080"/>
</svg>
