<svg width="31" height="31" viewBox="0 0 31 31" fill="none" xmlns="http://www.w3.org/2000/svg">
<path d="M18.5927 21.6854C19.4568 21.6854 20.1573 20.985 20.1573 20.1209V10.8791C20.1573 10.015 19.4568 9.31455 18.5927 9.31455C17.7286 9.31455 17.0282 10.015 17.0282 10.8791V20.1209C17.0282 20.985 17.7286 21.6854 18.5927 21.6854ZM12.4073 21.6854C13.2714 21.6854 13.9718 20.985 13.9718 20.1209V10.8791C13.9718 10.015 13.2714 9.31455 12.4073 9.31455C11.5432 9.31455 10.8427 10.015 10.8427 10.8791V20.1209C10.8427 20.985 11.5432 21.6854 12.4073 21.6854ZM4.51174 4.58451C7.56807 1.52817 11.2308 0 15.5 0C19.7692 0 23.4077 1.52817 26.4155 4.58451C29.4718 7.59233 31 11.2308 31 15.5C31 19.7692 29.4718 23.4319 26.4155 26.4883C23.4077 29.4961 19.7692 31 15.5 31C11.2308 31 7.56807 29.4961 4.51174 26.4883C1.50391 23.4319 0 19.7692 0 15.5C0 11.2308 1.50391 7.59233 4.51174 4.58451Z" fill="#715BF0"/>
</svg>
