<svg width="266" height="275" fill="none" xmlns="http://www.w3.org/2000/svg"><path d="M160 132.828c1.814.169 2.863 1.963 3.716 3.351 1.099 1.737 2.15 3.497 3.285 5.203.116.187.252.369.388.551a46.758 46.758 0 002.592 3.029c.498.511 1.008 1.03 1.541 1.51.538.5 1.156 1.011 1.525 1.328 1.106.828 2.291 1.581 3.547 2.151.007-.013.307.125.307.125.149.07.314.113.471.169.314.113.622.205.951.291a8.493 8.493 0 001.885.348c1.483.116 2.795.081 4.153-.599 1.606-.812 2.888-2.138 4.56-2.826a7.575 7.575 0 011.227-.394c1.289-.323 2.2.874 1.962 2.063-.328 1.671-1.578 2.792-3.069 3.584.077.165.139.356.155.537.109.08.212.14.314.233 1.324.988 2.991 2.398 2.848 4.227-.088 1.258-1.376 1.996-2.502 1.38-1.054-.591-1.926-1.439-2.764-2.285-.164-.163-.333-.347-.497-.511-.211-.173-.229-.201-.056-.083a3.011 3.011 0 01-.407-.339c-.031-.035-.07-.058-.102-.093-.017.955.005 1.932-.025 2.879-.052 1.433-.175 2.929-1.144 4.04-.472.52-1.412.597-1.992.228-1.751-1.115-2.052-3.131-1.77-5.052.111-.728.253-1.421.415-2.12-4.078.797-8.557-1.771-11.861-4.075-2.457-1.711-4.816-3.624-6.892-5.787-2.517-2.624-4.784-5.948-5.152-9.639-.141-1.545.463-3.607 2.391-3.424z" fill="#A1D877"/><path d="M53.485 99.005c1.424-2.14 3.235-5.037 5.753-6.115.41-.59 1.163-.792 1.9-.695 1.854.28 3.692 1.512 4.506 3.205.98 2.064.172 4.387-1.617 5.696-1.1.829-2.54.997-3.905 1.035 2.114 1.41 3.874 3.166 3.944 5.79.048 2.783-2.463 4.984-4.492 6.498a27.376 27.376 0 01-3.132 1.964c2.168.511 4.1 1.402 4.805 3.583.787 2.486-1.033 4.983-2.595 6.733a40 40 0 01-1.535 1.525c2.055.17 3.971.76 5.323 2.298 2.727 3.125.518 7.876-1.651 10.619-1.078 1.358-2.663 2.492-4.465 2.451-1.822-.037-3.338-1.291-4.398-2.677-1.769-2.279-3.08-5.171-3.91-8.027-1.091-3.006-1.957-6.072-2.05-9.311-.148-4.339.914-8.806 2.275-12.894 1.333-4.069 2.83-8.095 5.244-11.678z" fill="#FFBF9B"/><path d="M92.942 213.466c1.638-3.704 3.657-7.291 5.62-10.841a195.766 195.766 0 017.207-11.854c1.03-1.575 1.954-3.177 3.075-4.7 1.143-1.561 2.532-2.894 4.681-3.393 1.111-.254 2.146.102 2.839.812.266.016.553.147.81.417 1.95 1.935 1.265 4.553.398 6.532-1.085 2.507-2.733 4.794-4.43 7.017-1.9 2.485-3.715 5.001-5.723 7.406-2.932 3.526-5.685 7.102-8.229 10.851-.849 1.232-1.698 2.464-2.599 3.666 5.27.838 11.929 6.732 11.014 7.839-2.788.234-5.769-1.884-9.428-4.737 1.994 2.305 3.96 4.629 5.159 7.267.437.975-.987 1.531-1.84 1.038-2.488-1.419-4.224-3.575-5.863-5.778.031.483.083.96.101 1.436.096 1.863.035 3.998-1.132 5.511-.513.651-1.67.534-2.166-.217-1.895-2.834-2.228-6.108-1.974-9.113.29-3.19 1.216-6.255 2.48-9.159zm-31.699-15.908c1.639-3.703 3.625-7.292 5.616-10.861 2.227-4.035 4.654-7.972 7.193-11.862 1.03-1.575 1.962-3.189 3.075-4.699 1.156-1.554 2.54-2.908 4.702-3.399 1.124-.246 2.159.11 2.839.813.279.023.552.146.818.403 1.962 1.942 1.27 4.574.41 6.54-1.093 2.52-2.746 4.786-4.422 7.004-1.9 2.485-3.715 5.001-5.731 7.419a129.282 129.282 0 00-8.234 10.831 90.753 90.753 0 01-2.586 3.673c4.028 1.706 8.253 3.042 12.053 5.202 1.241.717.37 2.315-.98 1.879-3.246-1.064-6.306-2.745-9.503-3.953 2.002 2.292 3.981 4.623 5.186 7.282.436.975-1 1.523-1.853 1.031-2.488-1.42-4.217-3.589-5.85-5.772.038.47.082.961.1 1.436.07 1.849.028 4.011-1.152 5.517-.5.658-1.662.521-2.153-.21-1.895-2.834-2.235-6.095-1.98-9.133.25-3.179 1.17-6.264 2.452-9.141z" fill="#A1D877"/><path d="M136.131 60.12s-18.759-13.224-21.883-9.724c-3.121 3.467 5.314 12.849 5.314 12.849s-10.572-3.383-13.283.029c-2.731 3.417 6.682 12.657 6.682 12.657s-13.42-4.717-16.62.857c-3.209 5.587 7.949 13.028 7.949 13.028s-14.052-4.308-16.775 1.094c-2.736 5.395 7.503 10.221 7.503 10.221s-13.17-1.868-16.296 4.592c-3.14 6.453 5.78 14.668 5.78 14.668s-9.467-5.448-11.853-.3c-2.387 5.149 5.665 13.104 5.665 13.104s-9.45-.789-11.17 5.174c-1.752 5.929 8.478 10.561 8.478 10.561l60.509-88.81z" fill="#FFBF9B"/><path d="M176.359 112.43c-12.718 28.355-27.063 96.29-66.69 87.79-93.156-27.54-.224-112.44 16.398-135.889 3.886-5.178 7.652-7.344 12.947-6.698 10.567 1.332 31.89 7.788 72.263 31.768 21.913 13.013 39.701 23.8 38.719 31.619-6.331 5.386-22.326 17.573-73.637-8.59z" fill="#A1D877"/><path d="M197.235 87.253s16.853-25.52 2.21-31.34c-18.728-8.264-21.672 10.322-25.565 18.08l23.355 13.26zm-37.893-16.04c6.403-9.15 19.537-26.02 4.861-34.2-17.741-7.35-22.25 13.053-26.738 21.81l21.877 12.39z" fill="#A1D877"/><path d="M151.68 45.573c2.587-1.795 6.171-1.259 7.883 1.176.554.802.888 1.477 1.204 2.452.224.715.269 1.533.297 2.29.06 1.567-.418 3.082-1.092 4.518-.395.892-1.031 1.695-1.767 2.373a6.615 6.615 0 01-1.331 1.142c-1.379.926-3.212 1.056-4.692.666-3.072-.826-5.103-3.962-4.834-7.354.248-2.905 1.954-5.622 4.332-7.263z" fill="#fff"/><path d="M150.359 50.993c.898-.928 2.113-1.363 3.363-1.468 1.344-.12 2.669.629 3.618 1.521 1.69 1.579 1.932 4.473.844 6.446a5.215 5.215 0 01-1.078 1.599c-1.13 1.121-2.752 1.424-4.268 1.066-1.436-.347-2.651-1.376-3.427-2.599-1.34-2.065-.697-4.88.948-6.565z" fill="#000"/><path d="M187.84 62.317c2.587-1.795 6.171-1.258 7.883 1.177.554.801.888 1.476 1.204 2.45.224.716.269 1.534.297 2.29.06 1.568-.418 3.083-1.092 4.519-.395.892-1.031 1.695-1.766 2.373a6.652 6.652 0 01-1.332 1.142c-1.379.926-3.211 1.056-4.692.667-3.072-.827-5.103-3.963-4.833-7.354.247-2.906 1.953-5.623 4.331-7.264z" fill="#fff"/><path d="M186.519 67.738c.898-.928 2.113-1.363 3.363-1.468 1.344-.12 2.669.628 3.618 1.52 1.691 1.58 1.932 4.474.845 6.446a5.218 5.218 0 01-1.079 1.6c-1.129 1.12-2.752 1.424-4.267 1.065-1.437-.347-2.652-1.375-3.428-2.598-1.34-2.065-.697-4.88.948-6.565z" fill="#000"/><path d="M241.423 112.145c.043-.94 3.317-14.22 7.93-10.334 4.613 3.886-2.165 15.626-2.165 15.626l-5.765-5.292zm-12.961-7.242c.055-.932 3.317-14.22 7.917-10.341 4.613 3.886-2.165 15.626-2.165 15.626l-5.752-5.285z" fill="#BBCE00"/><path d="M119.132 113.555c1.01-.467 2.035-.839 3.106-1.203 3.365-1.173 6.974-1.157 10.548-.574 3.462.569 6.867 2.191 9.747 4.215 1.841 1.287 3.669 2.687 5.111 4.397.25.283.454.556.684.844a18.97 18.97 0 013.35 4.224c1.865 3.246 2.726 6.946 2.888 10.605-11.839-7.456-23.787-14.75-35.434-22.508zm31.522 37.848c-9.425-5.132-18.819-10.315-27.933-15.955-4.531-2.806-8.989-5.707-13.35-8.776-.949-.685-1.891-1.35-2.845-2.056 1.922-2.523 3.987-4.965 6.455-7.001.373-.319.764-.609 1.13-.914 1.973 1.328 3.953 2.643 5.92 3.951 11.282 7.375 22.786 14.395 34.18 21.576-.46 3.334-1.318 6.61-2.488 9.74l-.022.039a16.505 16.505 0 00-1.047-.604zm-7.174 16.333c-1.389-1.026-2.799-2.046-4.188-3.072-.845-.625-1.337-.996-1.829-1.366-.672-.508-1.33-1.009-1.996-1.497-11.906-9.009-23.439-18.457-34.261-28.597.192-.423.403-.818.613-1.213a86.767 86.767 0 011.68-2.939c5.776 4.23 11.782 8.18 17.895 11.916 9.247 5.648 18.734 10.85 28.269 16.028a68.71 68.71 0 01-4.777 8.693c-.483.686-.944 1.367-1.406 2.047zm-20.601 18.345c-10.443-7.218-20.776-14.595-31.3-21.671.055-1.259.167-2.469.315-3.709.02-.213.057-.398.077-.61a408.066 408.066 0 0013.498 7.414c8.65 4.564 17.416 8.867 26.21 13.152-2.444 1.964-5.088 3.709-7.921 5.036-.303.135-.597.258-.879.388zm-6.551 2.038c-1.939.345-3.923.439-5.9.193-3.283-.432-6.458-1.318-9.369-3.05-2.774-1.67-5.118-4.057-6.697-6.811-1.338-2.339-2.12-4.805-2.503-7.334 8.202 5.579 16.319 11.333 24.469 17.002zm19.447-11.452c-14.424-7.036-28.879-14.107-42.738-22.212.74-2.982 1.704-5.905 2.77-8.767.89-2.466 1.88-4.925 2.919-7.322 5.984 5.539 12.175 10.87 18.517 16.03 4.004 3.241 19.484 15.072 22.98 17.641a60.661 60.661 0 01-4.288 4.74.747.747 0 00-.16-.11z" fill="#E5FFD1"/><path d="M66.503 88.75c-1.068 1.312-2.04 2.697-2.97 4.07-1.797 2.666-3.353 5.539-4.659 8.487-2.974 6.704-5.462 13.878-5.694 21.321-2.068 15.458 13.17 23.532 21.44 24.932 11.452 12.484 1.636 11.879 1.556 13.779a79.553 79.553 0 00-.092 3.77c-.025.64-.022 1.261-.027 1.896.008.314-.004.634.017.956-.006.1-.091.964-.066.651-.15 1.515.063 3.084.071 4.622-.021 1.469-.126 2.992-1.423 3.897-1.097.796-61.808-13.591-32.947-67.549 9.953-15.986 22.227-23.846 24.794-20.832z" fill="#A1D877"/><path d="M170.438 93.978s5.164-5.094 6.615-3.55c1.452 1.544-2.883 7.41-2.883 7.41l-3.732-3.86zm53.731 27.045s1.97-8.128 4.039-7.622c2.068.505 1.599 7.794 1.599 7.794l-5.638-.172zm-46.266-19.652s1.455-7.236 4.362-5.557c2.921 1.686-.37 7.862-.37 7.862l-3.992-2.305zm32.008 16.655c-.418.275-1.664 5.238-4.161 4.193-2.49-1.059-.513-6.513-.513-6.513s4.995 2.092 4.674 2.32zm-8.773-3.963c-.246.426-1.192 6.303-3.955 4.88-2.769-1.41-.504-6.318-.504-6.318l4.459 1.438z" fill="#fff"/><path d="M248.294 104.453c.672.388 1.01.997 1.116 1.678.154.33.204.72.064 1.173-.498 1.727-1.083 3.456-2.127 4.937-.55.802-1.539 1.144-2.431.629l-.323-.187c-.71-.41-.983-1.222-.817-1.987.425-1.959 1.277-3.792 2.087-5.614.395-.892 1.656-1.076 2.431-.629zm-12.703-7.333c.607.35.916.89 1.006 1.51.143.29.175.652.064 1.053-.447 1.55-.974 3.089-1.916 4.422-.504.725-1.384 1.026-2.173.571l-.297-.172c-.633-.365-.883-1.095-.729-1.781.38-1.761 1.132-3.393 1.872-5.032.363-.807 1.488-.967 2.173-.571zM125.252 73.918l.391-.498c.068-.029.106-.094.182-.136.007-.013.022-.038.042-.044a2.216 2.216 0 011.045-.585c.196-.042.398-.063.6-.084.201-.022.405.044.61.076.218.04.406.132.58.25.375.215.651.513.857.873.224.387.305.813.287 1.233-.008.013.005.02-.002.033.002.415-.102.803-.325 1.19-.122.24-.27.378-.441.555a2.555 2.555 0 01-1.253.827 2.372 2.372 0 01-1.783-.255 2.33 2.33 0 01-1.083-1.435 2.106 2.106 0 01-.045-.818c.026-.432.137-.833.338-1.182zm.031 19.821c.096-.255.256-.473.455-.668a9.72 9.72 0 01.609-.457c.362-.24.773-.295 1.169-.324.201-.022.394.003.59.082.475.102.663.314 1.026.61.301.225.428.66.562.996.069.178.07.385.079.58-.008.46-.116.707-.316 1.143l-.007.013a7.92 7.92 0 01-.384.484c-.08.11-.178.19-.264.279-.007.013-.035.03-.057.07-.008.013-.035.031-.05.057l.022-.039a2.174 2.174 0 01-1.039.606 2.283 2.283 0 01-1.703-.243c-1.026-.61-1.45-2.025-.792-3.075.035-.031.065-.083.1-.114zm-19.904 13.288c.657-.929 1.972-1.237 2.985-.635.51.311.881.801 1.034 1.372a2.275 2.275 0 01-.234 1.69l-.209.361c-.306.53-.794.868-1.344 1.015-.061.017-.089.035-.15.051a2.172 2.172 0 01-1.704-.243 2.251 2.251 0 01-1.034-1.372c-.147-.55-.074-1.213.243-1.702.117-.174.269-.378.413-.537zm-16.036 11.631c.008-.013.028-.018.035-.031.036-.032.058-.07.099-.081.451-.394.9-.634 1.542-.642a2.117 2.117 0 011.544.667c.24.242.416.533.504.859-.008.013.005.02.005.02.024.049.022.082.046.13.085.36.076.733-.005 1.082-.084.176-.168.351-.239.534a2.187 2.187 0 01-.816.786c-.007.013-.027.018-.06.016-.008.013-.036.032-.043.045l-.02.005c-.34.2-.707.298-1.109.308a2.191 2.191 0 01-1.551-.655 2.12 2.12 0 01-.599-1.5c.026-.553.264-1.173.667-1.543zm-7.244 18.1a.117.117 0 01.055-.037c.396-.237.886-.281 1.32-.168.468.115.87.434 1.1.842.235.428.255.87.174 1.34a2.232 2.232 0 01-1.015 1.429c-.236.139-.63.256-.91.232-.166-.01-.307-.005-.456-.074-.427-.126-.47-.202-.82-.49-.287-.218-.461-.663-.543-.968-.256-.871.26-1.795 1.095-2.106zm-23.075 14.213a1.802 1.802 0 012.438-.642l.568.328c.84.485 1.12 1.611.643 2.438l-.045.077c-.477.827-1.53 1.097-2.36.687a1.859 1.859 0 01-.907-.489 1.767 1.767 0 01-.471-.944 1.723 1.723 0 01.134-1.455zm-8.575-12.838c.462-.801 1.507-1.059 2.308-.597.078.045.16.11.251.163.33.173.614.458.8.823.216.4.29.839.165 1.266-.113.434-.416.81-.804 1.034a1.73 1.73 0 01-1.254.172l-.423-.193a1.017 1.017 0 01-.173-.117c-.052-.03-.11-.047-.163-.077-.247-.108-.46-.335-.611-.611a1.705 1.705 0 01-.096-1.863zm-5.024-13.112c.733-.197 1.501.264 1.71 1.005l.1.366c.188.747-.266 1.535-1.005 1.711a1.41 1.41 0 01-1.712-1.005l-.098-.367a1.407 1.407 0 011.005-1.71zm6.28-15.265c.362.089.687.362.88.715.327.447.352 1.03.061 1.534a1.632 1.632 0 01-.728.664 1.449 1.449 0 01-1.534.061 1.43 1.43 0 01-.493-1.92l.23-.401a1.437 1.437 0 011.584-.653zm38.149 20.131c.27-.257.613-.404.974-.402.38-.004.752.159 1.017.415.24.242.41.633.389.999-.022.246-.036.479-.116.708-.113.314-.283.698-.569.895-.098.081-.202.141-.28.217-.241.119-.452.187-.706.178a1.355 1.355 0 01-.997-.421 1.33 1.33 0 01-.396-.986 1.565 1.565 0 01.272-.859c.07-.27.199-.523.412-.744zm6.87-21.537c.664.401.887 1.27.499 1.941l-.276.478c-.388.672-1.282.879-1.941.498-.66-.38-.881-1.249-.501-1.908l.283-.49c.4-.665 1.29-.892 1.936-.519zm18.542-7.376l.082-.142c.38-.659 1.256-.893 1.908-.5a1.42 1.42 0 01.493 1.921c-.082.142-.151.291-.267.431-.247.34-.255.352-.603.599-.266.191-.784.253-1.098.141-.353-.135-.656-.327-.849-.679a1.39 1.39 0 01-.138-1.044c.064-.291.239-.534.472-.727zm.049-13.99c.064-.29.172-.537.386-.758.262-.245.618-.384.986-.395a1.36 1.36 0 01.997.42c.24.242.436.648.396.986-.044.405-.095.583-.252.974a5.09 5.09 0 01-.226.42c-.38.66-1.256.894-1.908.5-.672-.387-.881-1.248-.493-1.92.044-.077.069-.15.114-.227.014-.026.016-.06.031-.085-.022.039-.024.072-.031.085zm16.128-4.929a1.33 1.33 0 011.149.13 1.41 1.41 0 01.514 1.915c-.202.349-.525.61-.912.714-.374.11-.79.026-1.139-.176-.672-.388-.874-1.262-.493-1.92.208-.362.522-.577.881-.663zm4.356-15.721c.061-.016.096-.047.144-.071.043-.044.099-.081.142-.125.54-.55 1.467-.513 1.983.026.542.553.516 1.434-.012 1.99-.249.252-.57.48-.867.636-.682.347-1.512.143-1.913-.536-.374-.664-.16-1.573.523-1.92z" fill="#A2AA00"/><path d="M157.887 83.908c1.772-2.025 4.025-3.152 6.545-3.936 1.021-.306 1.386 1.3.37 1.626-.728.217-1.419.49-2.072.784 10.434 15.53 26.238 27.306 43.725 33.752 13.851 5.104 29.04 6.726 43.453 3.665.384.498.338 1.056.102 1.643 0 0 .005.021-.002.034-15.337 3.199-31.564 1.166-46.165-4.577-17.057-6.714-32.314-18.484-42.57-33.722a10.17 10.17 0 00-2.263 1.948c-.702.8-1.826-.417-1.123-1.217z" fill="#000"/><path d="M216.535 148.747l-3.051-.952c.383-.812.784-1.597 1.206-2.387.585.149 1.238-.025 1.633-.71l.044-.077c.992-1.718-1.684-3.229-2.676-1.511l-.045.077c-.403.698-.202 1.365.24 1.792a61.917 61.917 0 00-1.282 2.549l-4.252-1.318c.24-.774.514-1.546.795-2.331a1.572 1.572 0 001.542-.763l.06-.103a1.543 1.543 0 00-.583-2.093c-.737-.426-1.676-.141-2.094.582l-.059.103c-.366.633-.206 1.431.314 1.904-.296.81-.585 1.608-.834 2.428l-3.872-1.202c.077-.73.142-1.468.198-2.193.154.003.302-.015.458-.046.366-.098.751-.376.932-.719.143-.278.231-.52.223-.835a1.671 1.671 0 00-.213-.795c-.125-.261-.379-.477-.624-.619-.717-.43-1.697-.135-2.094.583-.201.348-.26.779-.144 1.174.006.02.011.041.03.068-.002.034.016.062.014.095.087.326.284.612.559.822-.064.738-.123 1.496-.2 2.226l-1.811-.563-3.72 7.875-1.475 8.344 2.534.774a52.33 52.33 0 00-.914 2.537 1.567 1.567 0 00-1.576.761l-.06.103a1.545 1.545 0 00.584 2.093c.736.426 1.676.141 2.093-.582l.06-.103c.358-.62.204-1.398-.296-1.876.295-.897.609-1.801.963-2.681 1.049.33 2.277.711 3.55 1.102a14.453 14.453 0 01-.465 2.297c-1.204.235-1.869 2.073-.499 2.864 1.719.992 3.229-1.684 1.51-2.676l-.103-.059c.19-.717.346-1.436.436-2.159 1.562.488 3.149.991 4.539 1.449.036.744.031 1.499.066 2.243-1.159.277-1.789 2.084-.445 2.86 1.719.992 3.229-1.684 1.51-2.676a.96.96 0 00-.188-.091c-.04-.678-.046-1.353-.065-2.036 1.703.571 2.98 1.015 3.303 1.201 1.266.732 4.244-16.75 4.244-16.75z" fill="#EB5757"/><path d="M109.037 124.327c.584.629 64.289 17.916 87.474 24.19 5.157 1.393 8.314 2.252 8.314 2.252l-1.01 7.717-96.945-27.093 2.167-7.066z" fill="#EB5757"/><path d="M147.029 145.417c.974-1.986 1.773-4.056 2.466-6.152a9.535 9.535 0 00.391-1.721c.312-2.093.684-4.289.665-6.435-.016-2.179-.479-4.392-.86-6.506a9.37 9.37 0 00-.476-1.653c-.761-2.024-1.572-4.231-2.687-6.149-1.14-1.933-2.662-3.655-4.055-5.389-.473-.583-1.024-1.091-1.598-1.56-2.491-2.041-5.028-4.091-7.983-5.419-2.974-1.355-6.084-2.651-9.271-3.458-3.048-.778-6.28-1.06-9.385-1.32-3.073-.258-6.218.354-9.197.89-.771.14-1.525.342-2.255.592-2.246.787-4.544 1.665-6.622 2.876-1.925 1.127-3.645 2.614-5.34 4.028-1.731 1.446-3.293 3.972-4.446 5.493a8.367 8.367 0 00-1.072 1.826c-.537 1.257-1.607 3.619-2.136 5.431-.496 1.694-.666 5.092-.732 5.743-.225 2.091.455 4.584.732 6.432.092.587.278 1.159.472 1.719.12.328.249.643.364.95.1.454.248.884.43 1.316.763 1.87 1.552 4.203 2.686 6.029 1.492 2.428 3.31 4.77 5.356 6.777 2.16 2.108 4.667 3.883 7.14 5.568a26.84 26.84 0 003.56 2.039c2.652 1.256 5.397 2.41 8.215 3.228 2.628.759 5.475.991 8.167 1.133.599.036 1.203.005 1.808-.058 2.146-.225 4.452-.461 6.585-1.02 2.017-.541 4.339-1.697 6.013-2.418.569-.24 1.114-.528 1.628-.851 1.846-1.138 3.516-2.568 5.194-3.924a14.35 14.35 0 001.304-1.244c1.495-1.634 2.782-3.475 4.053-5.289a9.71 9.71 0 00.886-1.504z" fill="#EB5757"/><path d="M124.346 123.711c-4.522-2.611-10.506-.9-13.075 3.61-2.594 4.581-.907 10.463 3.615 13.074 4.523 2.611 10.507.9 13.076-3.61 2.593-4.581.907-10.463-3.616-13.074z" fill="#3C3C3C"/><path d="M211.225 153.327l-89.279-25.215-.146.517 89.279 25.215.146-.517zm.81 1.997l-89.285-25.187-.146.517 89.285 25.187.146-.517zm-.707 2.443l-89.278-25.236-.146.516 89.278 25.237.146-.517zm.113 2.608l-89.264-25.261-.146.517 89.264 25.26.146-.516z" fill="#3C3C3C"/><path d="M212.245 150.747l-2.877 10.773 2.233.669 2.477-10.797-1.833-.645zM103.76 119.352c-.113.554-4.027 14.585-4.027 14.585l3.564-.026 2.715-14.103-2.252-.456z" fill="#fff"/><path d="M112.686 126.004c-1.63-.907-3.389-1.441-5.18-1.889.165-.077.317-.162.469-.246 1.172-.598 3.262-1.681 3.11-3.267-.225-2.386-2.806-1.706-4.173-.86-.805.5-1.55 1.103-2.295 1.706-.26.212-.527.436-.787.648-.126.099-.772.622-.219.2a1.162 1.162 0 00-.227.214c-5.432-1.483-10.24-5.809-10.99-11.373-.354-2.668.174-5.015 1.554-7.197 1.513-2.381 4.33-4.009 7.115-4.864 1.212-.368 1.541-1.504 1.269-2.436 0-.775-.438-1.51-1.427-1.736-3.213-.701-6.57-.436-9.39 1.346-2.641 1.678-4.338 4.349-5.4 7.232-2.076 5.655-1.322 12.944 2.358 17.789 1.629 2.163 3.715 3.712 6.244 4.673 2.222.835 4.657.915 7.009.602.211.828.668 1.678.978 2.304.66 1.363 1.497 3.017 2.804 3.858.952.618 2.119-.24 2.14-1.261.033-1.669-.792-2.955-1.721-4.18.781.348 1.528.814 2.232 1.117 1.454.615 3.095.995 4.513.091.922-.552.991-1.925.014-2.471zm-20.822-6.667c-.018-.028-.15-.189-.199-.252l-.314-.44c-.05-.063-.092-.139-.142-.202.22.334.462.662.71.978-.01-.041-.037-.056-.055-.084z" fill="#A1D877"/></svg>