<svg width="266" height="274" fill="none" xmlns="http://www.w3.org/2000/svg"><path d="M159.998 132.431c1.814.169 2.863 1.961 3.715 3.347 1.099 1.735 2.15 3.493 3.284 5.197.115.187.252.369.388.55a46.396 46.396 0 002.592 3.026c.497.51 1.007 1.028 1.54 1.507.538.5 1.155 1.011 1.524 1.327 1.107.827 2.291 1.579 3.547 2.148.007-.013.307.125.307.125.149.069.314.112.471.169.314.112.622.204.951.29a8.545 8.545 0 001.885.347c1.483.115 2.795.08 4.153-.599 1.606-.812 2.889-2.137 4.561-2.825a7.57 7.57 0 011.227-.393c1.289-.324 2.2.872 1.961 2.06-.327 1.669-1.578 2.789-3.069 3.581.077.165.139.355.155.536.109.08.212.14.313.233 1.325.987 2.991 2.395 2.848 4.222-.089 1.257-1.377 1.994-2.503 1.379-1.054-.59-1.925-1.437-2.763-2.281-.164-.164-.334-.348-.498-.511-.21-.173-.228-.201-.055-.083a3.018 3.018 0 01-.407-.338c-.032-.036-.07-.058-.102-.093-.017.953.005 1.929-.026 2.875-.052 1.432-.176 2.927-1.145 4.037-.472.519-1.413.596-1.992.228-1.751-1.113-2.051-3.127-1.768-5.046.11-.728.252-1.42.414-2.118-4.078.797-8.556-1.767-11.86-4.068-2.457-1.709-4.815-3.619-6.891-5.78-2.516-2.62-4.782-5.94-5.149-9.627-.141-1.544.464-3.604 2.392-3.422zM53.485 98.65c1.425-2.138 3.236-5.033 5.754-6.11.41-.59 1.163-.791 1.9-.694 1.854.278 3.69 1.51 4.505 3.2.978 2.06.17 4.382-1.62 5.689-1.098.829-2.538.996-3.904 1.035 2.114 1.408 3.873 3.162 3.943 5.782.046 2.779-2.465 4.978-4.494 6.492a27.362 27.362 0 01-3.132 1.961c2.168.511 4.1 1.4 4.803 3.578.787 2.484-1.034 4.977-2.596 6.726a39.328 39.328 0 01-1.535 1.523c2.055.17 3.97.759 5.322 2.294 2.725 3.12.515 7.867-1.654 10.607-1.078 1.357-2.663 2.49-4.465 2.449-1.822-.036-3.337-1.288-4.396-2.673-1.768-2.275-3.078-5.163-3.909-8.016-1.089-3.002-1.954-6.064-2.047-9.3-.147-4.333.917-8.795 2.279-12.878 1.334-4.065 2.832-8.086 5.246-11.666zm39.453 114.325c1.639-3.699 3.659-7.282 5.623-10.829a195.522 195.522 0 017.207-11.841c1.031-1.574 1.955-3.173 3.076-4.695 1.143-1.56 2.533-2.891 4.681-3.39 1.111-.254 2.146.102 2.838.811.266.016.553.146.81.415 1.949 1.932 1.264 4.547.396 6.524-1.086 2.505-2.733 4.789-4.431 7.01-1.9 2.482-3.715 4.996-5.724 7.398-2.931 3.522-5.685 7.095-8.23 10.84-.849 1.23-1.698 2.461-2.599 3.662 5.269.836 11.925 6.72 11.01 7.827-2.788.233-5.768-1.881-9.425-4.729 1.993 2.301 3.958 4.622 5.156 7.256.436.974-.987 1.529-1.84 1.038-2.487-1.417-4.222-3.57-5.86-5.77.03.482.082.959.1 1.434.096 1.861.034 3.993-1.133 5.505-.513.65-1.669.534-2.165-.217-1.895-2.83-2.226-6.1-1.972-9.101.292-3.186 1.218-6.247 2.482-9.148zM61.24 197.087c1.639-3.7 3.625-7.285 5.617-10.849 2.227-4.032 4.656-7.964 7.195-11.85 1.03-1.573 1.962-3.186 3.075-4.694 1.156-1.552 2.54-2.904 4.702-3.396 1.124-.246 2.158.11 2.838.811.279.023.552.146.817.403 1.962 1.939 1.27 4.567.41 6.531-1.094 2.517-2.747 4.781-4.424 6.996-1.9 2.483-3.715 4.997-5.732 7.412a129.304 129.304 0 00-8.235 10.819 90.77 90.77 0 01-2.586 3.67c4.027 1.702 8.25 3.036 12.05 5.193 1.24.715.368 2.311-.982 1.876-3.244-1.061-6.304-2.74-9.499-3.945 2 2.288 3.98 4.616 5.183 7.271.436.974-1 1.522-1.853 1.03-2.488-1.417-4.215-3.583-5.848-5.763.038.47.083.96.1 1.435.07 1.846.027 4.005-1.153 5.51-.5.657-1.661.521-2.152-.209-1.895-2.83-2.233-6.087-1.977-9.122.25-3.175 1.171-6.256 2.453-9.129zm74.885-137.284s-18.75-13.203-21.874-9.706c-3.122 3.463 5.309 12.831 5.309 12.831s-10.568-3.376-13.279.032c-2.731 3.414 6.677 12.64 6.677 12.64s-13.415-4.708-16.617.86c-3.209 5.58 7.944 13.009 7.944 13.009s-14.047-4.299-16.77 1.098c-2.737 5.388 7.497 10.205 7.497 10.205s-13.165-1.863-16.292 4.591c-3.141 6.445 5.774 14.647 5.774 14.647s-9.462-5.438-11.85-.296c-2.387 5.143 5.661 13.086 5.661 13.086s-9.447-.786-11.169 5.17c-1.752 5.922 8.473 10.545 8.473 10.545l60.516-88.712z" fill="#E1E1E1"/><path d="M176.36 112.05c-12.725 28.326-27.086 96.187-66.709 87.707-93.141-27.484-.194-112.312 16.433-135.739 3.887-5.173 7.653-7.337 12.948-6.693 10.566 1.327 31.886 7.77 72.249 31.713 21.908 12.992 39.692 23.762 38.708 31.573-6.332 5.381-22.329 17.558-73.629-8.561z" fill="#E1E1E1"/><path d="M197.225 86.91s16.858-25.495 2.217-31.304c-18.725-8.25-21.673 10.315-25.567 18.065l23.35 13.24zm-37.894-16.02c6.405-9.141 19.542-25.995 4.869-34.163-17.737-7.336-22.251 13.045-26.74 21.793l21.871 12.37z" fill="#E1E1E1"/><path d="M151.676 45.281c2.587-1.794 6.171-1.259 7.882 1.173.554.8.887 1.475 1.203 2.448.224.714.269 1.531.297 2.287.059 1.566-.419 3.079-1.094 4.514-.394.89-1.03 1.693-1.766 2.37-.387.43-.838.824-1.332 1.142-1.379.925-3.211 1.055-4.692.666-3.071-.824-5.101-3.956-4.831-7.344.248-2.902 1.955-5.616 4.333-7.256z" fill="#E1E1E1"/><path d="M150.355 50.695c.898-.928 2.113-1.362 3.363-1.467 1.344-.12 2.669.627 3.618 1.518 1.689 1.576 1.93 4.467.842 6.438a5.212 5.212 0 01-1.079 1.597c-1.13 1.12-2.752 1.424-4.267 1.066-1.437-.346-2.651-1.373-3.427-2.594-1.339-2.063-.695-4.874.95-6.558zm37.481 11.31c2.588-1.794 6.171-1.259 7.883 1.173.553.8.887 1.475 1.202 2.448.225.715.269 1.531.297 2.287.06 1.566-.419 3.079-1.093 4.514-.395.89-1.031 1.693-1.767 2.37-.387.43-.838.824-1.332 1.142-1.379.925-3.211 1.055-4.691.666-3.072-.824-5.102-3.956-4.831-7.344.248-2.902 1.955-5.616 4.332-7.256z" fill="#E1E1E1"/><path d="M186.515 67.42c.898-.928 2.114-1.363 3.363-1.468 1.344-.12 2.669.627 3.618 1.518 1.69 1.576 1.93 4.468.842 6.438a5.228 5.228 0 01-1.078 1.597c-1.13 1.12-2.752 1.424-4.268 1.067-1.436-.347-2.651-1.374-3.426-2.595-1.34-2.063-.696-4.874.949-6.558zm54.902 44.354c.043-.939 3.321-14.204 7.932-10.324 4.612 3.88-2.168 15.608-2.168 15.608l-5.764-5.284zm-12.961-7.233c.056-.931 3.321-14.204 7.919-10.332 4.612 3.88-2.168 15.608-2.168 15.608l-5.751-5.276zm-109.329 8.643c1.01-.467 2.035-.839 3.107-1.202 3.366-1.174 6.974-1.158 10.549-.577 3.461.568 6.866 2.187 9.746 4.209 1.841 1.285 3.669 2.683 5.11 4.392.25.282.454.554.684.842a18.96 18.96 0 013.349 4.219c1.864 3.243 2.725 6.939 2.886 10.594-11.838-7.445-23.786-14.73-35.431-22.477zm31.519 37.799c-9.424-5.124-18.819-10.3-27.931-15.933-4.531-2.801-8.989-5.699-13.35-8.764-.948-.684-1.89-1.348-2.844-2.053 1.923-2.522 3.988-4.962 6.457-6.997.373-.318.765-.608 1.131-.913 1.972 1.326 3.952 2.64 5.919 3.946 11.281 7.365 22.784 14.376 34.177 21.547-.461 3.331-1.32 6.604-2.49 9.732l-.023.039c-.341-.214-.69-.416-1.046-.604zm-7.175 16.314c-1.389-1.024-2.798-2.043-4.187-3.068-.845-.625-1.337-.995-1.83-1.365-.671-.507-1.33-1.007-1.995-1.494-11.905-8.998-23.436-18.434-34.257-28.562.193-.423.404-.817.615-1.212.533-.983 1.1-1.963 1.68-2.937 5.775 4.225 11.781 8.169 17.893 11.9 9.246 5.641 18.733 10.836 28.267 16.007a68.714 68.714 0 01-4.78 8.686c-.482.685-.944 1.365-1.406 2.045zm-20.599 18.323c-10.442-7.208-20.774-14.577-31.298-21.643.056-1.258.168-2.466.317-3.706.019-.212.057-.397.076-.61a407.505 407.505 0 0013.498 7.405c8.65 4.557 17.415 8.854 26.208 13.133-2.444 1.963-5.089 3.707-7.923 5.033-.302.135-.597.258-.878.388zm-6.551 2.033c-1.939.345-3.923.44-5.9.194-3.283-.43-6.458-1.314-9.369-3.044-2.774-1.668-5.117-4.052-6.696-6.803-1.337-2.337-2.117-4.8-2.5-7.327 8.2 5.572 16.317 11.318 24.465 16.98zm19.445-11.436c-14.423-7.026-28.877-14.087-42.734-22.18.74-2.98 1.705-5.899 2.772-8.759a125.82 125.82 0 012.92-7.316c5.984 5.532 12.174 10.857 18.515 16.01 4.002 3.237 19.481 15.052 22.976 17.618a60.44 60.44 0 01-4.289 4.736c-.044-.042-.096-.072-.16-.109zM66.509 88.403c-1.068 1.311-2.04 2.695-2.972 4.067-1.797 2.662-3.353 5.533-4.66 8.478-2.976 6.696-5.465 13.863-5.699 21.297-2.071 15.441 13.162 23.502 21.432 24.898 11.447 12.466 1.632 11.865 1.552 13.762a79.379 79.379 0 00-.093 3.766c-.026.639-.023 1.26-.027 1.894.007.314-.005.633.016.955-.006.1-.092.962-.066.65-.151 1.513.062 3.081.07 4.616-.022 1.468-.127 2.99-1.424 3.893-1.097.796-61.798-13.559-32.926-67.462 9.956-15.97 22.231-23.824 24.797-20.814zm103.924 5.226s5.164-5.09 6.615-3.548c1.451 1.542-2.884 7.402-2.884 7.402l-3.731-3.854zm53.731 27.011s1.972-8.118 4.04-7.613c2.068.504 1.596 7.784 1.596 7.784l-5.636-.171zm-46.267-19.628s1.457-7.228 4.364-5.552c2.919 1.684-.373 7.854-.373 7.854l-3.991-2.302zm32.008 16.633c-.417.275-1.665 5.233-4.161 4.189-2.49-1.056-.511-6.505-.511-6.505s4.993 2.088 4.672 2.316zm-8.772-3.958c-.246.426-1.194 6.296-3.956 4.876-2.769-1.408-.502-6.311-.502-6.311l4.458 1.435z" fill="#E1E1E1"/><path d="M248.289 104.089c.672.388 1.01.995 1.116 1.676.154.329.204.719.063 1.171-.498 1.726-1.083 3.453-2.128 4.932-.549.801-1.539 1.143-2.43.629l-.323-.186c-.71-.41-.982-1.221-.816-1.985.425-1.957 1.277-3.788 2.088-5.608.394-.891 1.655-1.075 2.43-.629zm-12.703-7.324c.607.35.916.89 1.006 1.509.143.288.174.65.063 1.051-.447 1.549-.974 3.085-1.916 4.417-.505.724-1.385 1.025-2.173.571l-.297-.171c-.633-.365-.883-1.094-.728-1.779.38-1.76 1.133-3.39 1.873-5.027.362-.806 1.488-.966 2.172-.57zM125.247 73.592l.391-.497c.069-.03.106-.094.182-.136.007-.013.022-.039.043-.044.291-.297.636-.476 1.044-.585.196-.042.398-.063.6-.084.202-.022.405.044.61.076.218.04.407.131.58.248.375.217.651.513.856.873.224.387.306.812.287 1.232-.007.013.006.02-.002.033a2.29 2.29 0 01-.325 1.189c-.122.24-.27.377-.441.554a2.557 2.557 0 01-1.253.826 2.37 2.37 0 01-1.782-.254 2.324 2.324 0 01-1.084-1.433 2.082 2.082 0 01-.044-.817c.026-.432.137-.833.338-1.181zm.031 19.797a1.85 1.85 0 01.455-.667c.197-.162.407-.316.609-.457.362-.24.773-.294 1.169-.324.202-.022.394.003.59.082.475.102.663.313 1.026.609.3.224.428.66.561.994.07.178.071.385.079.58-.007.46-.116.706-.316 1.142l-.007.013c-.11.16-.449.567-.384.484-.08.108-.178.19-.264.278-.007.012-.035.03-.057.07-.008.013-.036.03-.05.057l.022-.039a2.18 2.18 0 01-1.039.605 2.285 2.285 0 01-1.703-.242c-1.026-.609-1.449-2.022-.791-3.07.035-.032.065-.084.1-.115zm-19.904 13.272c.657-.928 1.972-1.237 2.985-.635.509.311.881.8 1.034 1.37a2.27 2.27 0 01-.235 1.688l-.209.361a2.175 2.175 0 01-1.344 1.014c-.061.017-.089.035-.15.051a2.173 2.173 0 01-1.703-.242 2.246 2.246 0 01-1.034-1.37c-.148-.549-.074-1.213.243-1.701.117-.173.27-.377.413-.536zm-16.036 11.617c.008-.013.028-.019.036-.032.035-.031.057-.069.098-.08.452-.394.9-.634 1.542-.642a2.119 2.119 0 011.544.666c.24.242.416.532.503.858-.007.013.006.02.006.02.024.049.022.082.046.13a2.37 2.37 0 01-.005 1.081 7.61 7.61 0 00-.24.533 2.185 2.185 0 01-.816.785c-.007.013-.027.019-.06.017-.008.013-.036.031-.043.044l-.02.005c-.34.2-.707.298-1.109.308a2.185 2.185 0 01-1.55-.654 2.112 2.112 0 01-.6-1.497c.027-.553.265-1.173.668-1.542zm-7.244 18.078a.11.11 0 01.056-.037c.395-.237.885-.281 1.32-.168.467.115.869.433 1.099.84.234.428.254.87.173 1.339a2.23 2.23 0 01-1.015 1.427c-.236.14-.63.256-.91.233-.166-.01-.307-.005-.456-.074-.427-.126-.47-.202-.82-.49-.287-.217-.46-.661-.543-.967-.255-.869.262-1.793 1.096-2.103zm-23.075 14.196a1.804 1.804 0 012.438-.642l.568.328c.84.484 1.12 1.609.642 2.435l-.044.077c-.478.826-1.53 1.097-2.36.686a1.849 1.849 0 01-.907-.488 1.76 1.76 0 01-.471-.942 1.72 1.72 0 01.134-1.454zm-8.575-12.823c.462-.8 1.507-1.058 2.308-.596.078.045.16.11.25.162.331.173.615.457.8.822.217.4.29.838.165 1.265a1.717 1.717 0 01-.804 1.033c-.38.211-.832.277-1.254.172-.15-.069-.286-.131-.423-.192-.051-.03-.116-.067-.173-.117-.052-.03-.11-.047-.163-.077-.247-.108-.46-.335-.611-.611a1.702 1.702 0 01-.095-1.861zm-5.024-13.097c.733-.196 1.501.264 1.71 1.004l.099.366c.189.746-.266 1.533-1.005 1.709a1.41 1.41 0 01-1.711-1.004l-.098-.366a1.408 1.408 0 011.005-1.709zm6.28-15.246c.362.089.686.362.879.714.327.446.352 1.029.062 1.532a1.638 1.638 0 01-.729.664 1.45 1.45 0 01-1.534.061 1.427 1.427 0 01-.493-1.918l.232-.4a1.438 1.438 0 011.583-.653zm38.15 20.108a1.4 1.4 0 01.973-.403c.381-.004.752.159 1.017.415.24.241.41.632.388.998-.021.245-.035.478-.116.707-.112.314-.282.697-.568.894-.099.081-.203.141-.28.216-.242.119-.453.187-.706.178a1.35 1.35 0 01-.998-.42 1.324 1.324 0 01-.395-.984 1.568 1.568 0 01.272-.859c.07-.269.199-.522.413-.742zm6.869-21.512c.664.4.886 1.268.498 1.939l-.276.477c-.388.671-1.282.878-1.941.498s-.88-1.247-.5-1.905l.283-.491c.4-.663 1.29-.89 1.936-.518zm18.541-7.367l.082-.142c.381-.658 1.257-.892 1.908-.5.665.401.874 1.261.493 1.919-.082.142-.151.291-.266.431-.248.339-.255.352-.604.598-.266.191-.784.253-1.098.141-.353-.134-.656-.326-.848-.678a1.38 1.38 0 01-.138-1.043c.064-.29.239-.533.471-.726zm.049-13.973c.064-.29.173-.537.387-.758.262-.244.617-.383.986-.394a1.36 1.36 0 01.997.42c.239.241.436.647.395.985-.044.404-.095.581-.252.972-.069.15-.151.291-.226.42-.38.659-1.257.893-1.908.5-.672-.387-.881-1.247-.493-1.918.045-.077.069-.15.114-.227.015-.026.017-.059.032-.085-.022.04-.024.072-.032.085zm16.13-4.922a1.329 1.329 0 011.148.128c.672.387.894 1.255.513 1.913-.201.349-.524.61-.912.713-.374.111-.79.026-1.139-.175-.671-.387-.873-1.26-.492-1.918.208-.362.522-.576.882-.662zm4.355-15.703c.061-.016.096-.048.144-.072.043-.044.099-.08.141-.125.541-.548 1.468-.512 1.984.026.541.553.515 1.432-.013 1.988a3.63 3.63 0 01-.867.635c-.682.347-1.512.144-1.912-.534-.375-.664-.16-1.572.523-1.918zm22.089 17.558c1.773-2.023 4.026-3.15 6.547-3.934 1.021-.306 1.385 1.298.37 1.625-.729.216-1.42.489-2.073.783 10.43 15.513 26.233 27.274 43.72 33.709 13.851 5.096 29.04 6.713 43.455 3.651.385.497.338 1.055.102 1.642 0 0 .005.02-.002.033-15.339 3.201-31.567 1.174-46.168-4.561-17.056-6.703-32.311-18.458-42.565-33.68-.82.525-1.58 1.154-2.263 1.948-.703.799-1.826-.417-1.123-1.216zm58.647 64.753l-3.05-.95c.383-.812.784-1.595 1.206-2.384.586.148 1.238-.026 1.633-.71l.045-.078c.992-1.716-1.684-3.224-2.676-1.508l-.045.077c-.403.697-.202 1.363.24 1.79-.452.841-.87 1.683-1.283 2.546l-4.251-1.315c.24-.773.514-1.545.795-2.329a1.576 1.576 0 001.543-.762l.06-.103a1.542 1.542 0 00-.583-2.091c-.736-.424-1.676-.14-2.093.583l-.06.103c-.365.632-.206 1.429.313 1.901-.296.81-.584 1.607-.834 2.426l-3.871-1.199c.078-.73.142-1.467.199-2.191.154.002.302-.015.457-.046.367-.098.751-.376.932-.719.144-.278.232-.52.224-.834a1.66 1.66 0 00-.213-.793c-.124-.262-.379-.477-.624-.618-.716-.43-1.696-.135-2.093.582a1.503 1.503 0 00-.144 1.172c.005.021.01.041.029.069-.002.033.016.061.014.094.088.326.284.611.559.821-.064.737-.123 1.495-.201 2.224l-1.81-.562-3.722 7.866-1.477 8.335 2.533.772a52.644 52.644 0 00-.914 2.535 1.572 1.572 0 00-1.577.76l-.059.104a1.54 1.54 0 00.582 2.09c.737.425 1.676.14 2.094-.582l.059-.103c.358-.62.205-1.396-.295-1.873.295-.897.61-1.799.964-2.679 1.049.33 2.276.71 3.549 1.1-.087.776-.253 1.54-.466 2.295-1.203.235-1.869 2.07-.499 2.86 1.718.99 3.228-1.682 1.51-2.673l-.103-.06c.19-.716.347-1.434.437-2.156 1.561.487 3.148.989 4.538 1.446.035.743.03 1.497.065 2.24-1.159.278-1.789 2.082-.445 2.857 1.718.99 3.228-1.682 1.51-2.673a.96.96 0 00-.188-.091c-.039-.677-.046-1.351-.065-2.033 1.704.569 2.98 1.012 3.303 1.199 1.266.73 4.248-16.732 4.248-16.732z" fill="#E1E1E1"/><path d="M109.034 123.949c.583.629 64.288 17.881 87.472 24.142 5.157 1.39 8.314 2.247 8.314 2.247l-1.012 7.71-96.944-27.039 2.17-7.06z" fill="#E1E1E1"/><path d="M147.017 144.998c.975-1.985 1.774-4.053 2.468-6.147.188-.563.309-1.13.391-1.719.313-2.09.686-4.284.668-6.428-.016-2.177-.478-4.387-.859-6.499a9.37 9.37 0 00-.475-1.651c-.761-2.021-1.57-4.225-2.685-6.141-1.14-1.93-2.661-3.65-4.053-5.382-.473-.582-1.024-1.089-1.598-1.558-2.49-2.038-5.027-4.085-7.981-5.41-2.973-1.353-6.083-2.647-9.269-3.452-3.048-.776-6.279-1.056-9.385-1.316-3.072-.257-6.217.356-9.196.892-.771.14-1.525.342-2.255.592-2.246.787-4.544 1.664-6.622 2.875-1.926 1.126-3.646 2.611-5.342 4.025-1.73 1.445-3.293 3.968-4.447 5.488a8.36 8.36 0 00-1.072 1.824c-.537 1.257-1.608 3.615-2.138 5.426-.496 1.692-.667 5.086-.733 5.736-.226 2.09.453 4.58.73 6.425.091.586.277 1.158.471 1.717.12.328.249.643.364.95.1.453.248.882.429 1.314.763 1.868 1.552 4.198 2.685 6.021 1.491 2.425 3.309 4.764 5.353 6.768 2.16 2.105 4.666 3.877 7.138 5.56a26.799 26.799 0 003.56 2.036c2.651 1.253 5.395 2.405 8.213 3.221 2.628.758 5.475.989 8.166 1.13.6.036 1.203.005 1.808-.059 2.146-.225 4.452-.461 6.585-1.021 2.017-.54 4.339-1.696 6.013-2.416.569-.24 1.115-.528 1.629-.851 1.846-1.137 3.516-2.566 5.195-3.921.464-.386.897-.807 1.304-1.243 1.495-1.633 2.782-3.471 4.054-5.284.328-.448.626-.964.886-1.502z" fill="#E1E1E1"/><path d="M124.343 123.323c-4.521-2.607-10.506-.896-13.076 3.609-2.594 4.577-.91 10.452 3.612 13.059 4.521 2.606 10.505.895 13.075-3.61 2.595-4.577.91-10.451-3.611-13.058z" fill="#E1E1E1"/><path d="M211.22 152.905l-89.28-25.185-.146.517 89.28 25.184.146-.516zm.809 1.994l-89.285-25.156-.146.517 89.285 25.155.146-.516zm-.707 2.44l-89.278-25.205-.146.516 89.278 25.205.146-.516zm.113 2.605l-89.264-25.23-.146.517 89.264 25.229.146-.516z" fill="#E1E1E1"/><path d="M212.242 150.329l-2.88 10.759 2.232.668 2.48-10.784-1.832-.643zM103.757 118.97c-.114.554-4.031 14.569-4.031 14.569l3.563-.027 2.719-14.087-2.251-.455z" fill="#E1E1E1"/><path d="M112.677 125.612c-1.63-.905-3.389-1.437-5.18-1.885.165-.077.317-.161.469-.246 1.172-.597 3.262-1.68 3.11-3.264-.224-2.383-2.805-1.703-4.172-.857-.805.499-1.55 1.101-2.295 1.704-.26.212-.527.436-.787.647-.126.1-.773.622-.219.201a1.13 1.13 0 00-.227.213c-5.432-1.48-10.238-5.799-10.986-11.357-.355-2.665.174-5.009 1.555-7.19 1.513-2.379 4.331-4.005 7.116-4.86 1.212-.368 1.541-1.503 1.27-2.434-.001-.774-.438-1.508-1.427-1.734-3.212-.7-6.57-.433-9.39 1.347-2.641 1.677-4.339 4.346-5.401 7.226-2.078 5.649-1.326 12.93 2.353 17.769 1.628 2.16 3.713 3.706 6.242 4.666 2.222.834 4.657.913 7.008.599.211.827.668 1.676.978 2.302.66 1.361 1.496 3.013 2.803 3.852.952.618 2.119-.24 2.141-1.26.033-1.667-.792-2.951-1.721-4.175.781.347 1.529.813 2.232 1.115 1.454.615 3.095.993 4.513.09.922-.552.991-1.923.015-2.469zm-20.82-6.653c-.018-.028-.15-.189-.199-.252l-.314-.44c-.05-.063-.092-.139-.142-.202.22.334.462.662.71.977-.01-.04-.037-.055-.055-.083z" fill="#E1E1E1"/></svg>