<svg width="895" height="478" fill="none" xmlns="http://www.w3.org/2000/svg"><path d="M13.897 478.424H757.47s-56.95-182.359-343.227-177.775C127.966 305.234 13.897 478.424 13.897 478.424z" fill="#CCDB36"/><path d="M726.701 301.329c.51-2.038 1.02-4.075 1.53-5.943-.68 1.868-1.36 3.905-2.04 5.773l.51.17z" fill="#C9C9C9"/><path d="M532.268 212.715c.939-1.323-.848-2.83-1.957-1.615-2.819 3.091-6.301 5.245-10.338 6.352-3.79 1.046-7.841 1.015-11.739.692-3.96-.323-7.811-1.153-11.724-1.738-3.883-.584-7.765-.092-9.999 3.476-.37.585.061 1.415.632 1.677.508.23.986.092 1.34-.231.031.646.2 1.261.832 1.553.4.185.893.139 1.248-.123 1.294-.907 3.112-1.43 4.637-1.768 1.695-.385 3.436-.523 5.161-.539 3.451-.046 6.887.462 10.307.738 3.466.293 6.917.339 10.322-.446 3.667-.861 6.856-2.968 9.383-5.721.708-.708 1.309-1.492 1.895-2.307z" fill="#E1E1E1"/><path d="M393.779 302.338c.154.061.478.184.493.2.308.107.617.215.94.307 1.987.615 4.021 1.031 6.055 1.154.046 0 .077 0 .108.015h.061c.278 0 .57.015.863.015.478 0 .955-.015 1.433-.046 1.047-.061 2.11-.169 3.143-.4.185-.046.369-.076.539-.123.123-.03.277-.076.354-.107.401-.139.801-.277 1.202-.446a16.415 16.415 0 002.419-1.246c.092-.062.2-.123.292-.185.108-.077.262-.169.324-.23.323-.231.647-.477.971-.723a52.788 52.788 0 002.049-1.708c.585-.522 1.186-1.045 1.771-1.553.57-6.691.57-13.473.201-20.225-.601-11.013-2.481-21.902-5.115-32.561-.724-2.938-3.775-4.676-6.07-4.399a4.628 4.628 0 00-2.25.907c-1.186.216-2.203.877-3.004 1.815-.046.016-.092.046-.139.062-.231.107-.446.246-.662.384-1.202-2.091-3.22-3.414-5.439-3.137-3.112.384-5.284 3.829-4.853 7.598 1.818 16.103 4.191 32.222 4.438 48.433a209.027 209.027 0 01-.124 6.199zM479.84 7.015c-14.698.584-29.288 10.09-36.436 22.809a18.693 18.693 0 00-2.373 9.782c-1.202 3.445-1.479 7.321-.74 11.197 3.621 18.749 22.155 24.455 38.747 22.102 16.732-2.384 29.165-16.98 30.551-33.222 1.495-17.534-11.755-33.391-29.749-32.668zM387.832 36.5c.878-3.846.863-7.676 0-11.52-.986-8.676-5.685-16.627-11.924-21.18-3.467-2.538-7.811-3.768-11.848-3.799-4.822-.046-7.657 1.477-11.909 3.676-2.311 1.184-4.375 3.338-6.147 5.368-1.772 2.03-3.497 4.476-4.499 7.167-1.664 4.491-3.343 8.829-2.912 13.95.154 1.785.216 5.045.971 7.199 2.111 6.013 1.941 5.829 5.423 10.935 2.896 4.26 7.78 6.706 11.955 8.506 1.125.492 2.311.8 3.498 1.045 3.004.616 6.07 1.108 9.136 1.277 4.714.277 9.644-2.46 12.926-6.337 3.42-4.045 5.346-9.597 5.361-15.319 0-.307-.031-.615-.046-.923 0-.015 0-.03.015-.046z" fill="#D0D0D0"/><path d="M495.477 28.916c-8.967-14.734-32.97-12.704-41.089 1.662-3.359 5.936-1.495 13.596 4.391 17.134.369 2.153.878 4.275 1.479 6.398 1.664 5.86 6.44 8.582 12.155 9.244 17.933 2.06 32.585-18.795 23.064-34.438zm-122.758-18.81c-3.805-.938-8.073-1.061-11.771.37-4.76 1.83-8.103 4.475-11.185 8.52-4.822 6.352-4.467 16.104.093 22.502 3.066 4.291 7.287 7.413 12.818 7.352 5.685-.062 9.706-3.338 12.895-7.644 2.373-3.2 3.867-7.521 4.684-11.428.107-.554.184-1.107.246-1.646.416-.784.77-1.63 1.017-2.538 1.787-6.475-2.126-13.857-8.797-15.488z" fill="#E1E1E1"/><path d="M509.635 197.027c5.177-84.163-33.786-105.865-51.904-122.43 13.619-18.872 8.581-55.755-16.377-65.798-12.972-8.352-37.53-8.044-52.613-.615-18.133 8.551-28.085 39.297-22.662 65.229-18.919 20.41-60.686 106.941-19.998 159.374 39.117 38.682 150.597 30.13 163.554-35.76z" fill="#D0D0D0"/><path d="M535.595 100.606c-5.885.769-12.017 2.476-14.528 2.783-13.62 1.646-36.236 2.277-45.48-9.905-1.679-2.2-4.221-1.953-5.916-.63-1.71-.093-3.266 1.123-3.975 2.707-.185.23-.369.476-.508.738-12.217 23.686 23.926 27.993 38.87 28.162 4.653.046 24.65-.708 36.898-5.476 3.39-3.676-1.032-16.903-5.361-18.379zm-165.974-3.507c-6.624-1.754-15.082 2.553-20.906 5.183-4.437 9.182-43.307 13.858-57.05 9.182-3.99 3.353-5.346 14.335-1.078 16.688 28.147 10.828 58.513 4.138 83.564-11.72 1.818-1.153 2.157-2.937 1.648-4.491 1.849-6.337 1.033-12.95-6.178-14.842z" fill="#D0D0D0"/><path d="M373.612 51.542c-7.256-.108-7.102 9.52.154 9.628 7.257.108 7.103-9.52-.154-9.628zm74.135 7.367c-7.256-.108-7.102 9.52.155 9.612 7.256.108 7.086-9.505-.155-9.612z" fill="#FFE9E9"/><path d="M403.563 53.018c-1.772-2.369-4.376-3-6.81-2.492-1.648-.292-3.543.416-4.745 1.754-6.671 7.49-15.329 13.412-25.667 13.673-9.783.246-27.516-6.429-38.3-25.532-3.96-9.782-5.547-20.671-4.715-30.176V9.86c-.154 0-2.881.308-5.022 2.876-.77.738-1.556 3.86-2.619 2.523a110.867 110.867 0 00-4.068-4.83c-.939-1.03-3.296-2.076-3.343-1.523-2.311 25.932 9.491 54.878 32.107 68.782.324.2.663.385 1.002.585 23.695 13.273 43.954 7.983 52.612 4.199 12.572-5.476 18.38-17.795 9.568-29.454z" fill="#D0D0D0"/><path d="M381.208 25.317c.03-.03.061-.046.092-.077 1.479-1.6 3.79-3.46 6.055-4.014-.262-1.23-.54-2.445-.786-3.691-3.02.676-5.947 2.953-7.996 5.137a30.45 30.45 0 012.635 2.645zm69.636.354c-2.634-3.26-6.409-4.168-10.091-5.767-.031-.016-.046 0-.062-.016a80.014 80.014 0 01-1.201 3.722c2.896 1.215 6.209 1.907 8.273 4.46.185.231.401.4.616.524.863-.908 1.71-1.83 2.604-2.707-.046-.077-.077-.154-.139-.216zm-127.965 9.552c-1.803 2.707-4.668 3.676-7.827 3.43-1.34-.108-1.556 1.968-.2 2.076 3.867.307 7.518-.984 9.721-4.276.74-1.123-.955-2.338-1.694-1.23zm4.899 9.567c-2.126 2.845-5.145 3.968-8.627 3.921-1.341-.015-1.418 2.061-.062 2.077 4.268.046 7.888-1.446 10.461-4.891.801-1.077-.986-2.169-1.772-1.108zm5.47 6.598c-.97 3.583-4.083 5.66-7.718 5.844-1.341.062-.971 2.123.354 2.061 4.283-.215 8.165-2.953 9.321-7.152.354-1.292-1.587-2.045-1.957-.753zm7.241 7.49c-.971 3.568-3.313 6.044-6.086 8.352-1.109.907.308 2.614 1.402 1.707 3.051-2.523 5.685-5.353 6.748-9.26.37-1.368-1.695-2.168-2.064-.8zm11.508 6.152c-.108-1.553-2.496-1.138-2.373.4.2 2.615-.477 5.137-1.818 7.367-.801 1.323 1.156 2.754 1.957 1.416 1.71-2.83 2.496-5.876 2.234-9.183zm10.523 2.63c-.139-1.553-2.512-1.138-2.373.415a24.821 24.821 0 01-.878 8.967c-.431 1.477 1.818 2.369 2.249.862a28.449 28.449 0 001.002-10.244zm10.183-.969c-.816-1.307-3.019-.307-2.187 1 2.095 3.338 2.85 7.029 3.05 10.92.077 1.554 2.465 1.123 2.372-.415-.215-4.06-1.047-7.998-3.235-11.505zm10.801-4.598c-1.202-1-2.604.953-1.418 1.953 3.143 2.66 5.346 6.121 5.054 10.351-.108 1.553 2.295 1.8 2.403.23.354-5.121-2.219-9.304-6.039-12.534zm17.425 4.783c-1.68-4.999-5.269-8.844-9.938-11.228-1.386-.707-2.234 1.554-.862 2.246 4.129 2.107 7.133 5.598 8.612 9.982.493 1.476 2.681.461 2.188-1zm-90.806 65.475c-.293.892 1.124 1.215 1.417.339 2.665-8.091 12.356-10.982 17.163-2.953.477.799 1.71.03 1.232-.754-5.469-9.136-16.762-5.891-19.812 3.368z" fill="#E1E1E1"/><path d="M326.561 130.613c-3.22-2.184-11.74-4.676-12.479 1.276-.108.923 1.294 1.262 1.417.339.586-4.737 7.95-1.984 10.384-.339.771.523 1.448-.753.678-1.276zm196.801-11.212c-1.509-8.583-18.426-8.444-20.968-.646-.277.876 1.063 1.415 1.34.538 2.065-6.352 16.932-6.814 18.18.323.17.908 1.602.708 1.448-.215z" fill="#E1E1E1"/><path d="M519.202 119.985c-2.773-3.599-9.799-4.137-12.803-.569-.601.723.555 1.584 1.156.861 2.388-2.845 8.319-2.23 10.491.585.57.754 1.726-.139 1.156-.877z" fill="#E1E1E1"/><path d="M321.724 14.228c0-.492-.385-.815-.801-.784a.762.762 0 00-.617.123c-1.201.861-1.833 2.122-2.156 3.491a12.91 12.91 0 00-.601 2.569c-.062.584.724 1.092 1.186.63.092-.092.169-.184.246-.292a.528.528 0 00.278-.139c1.494-1.538 2.449-3.414 2.465-5.598zm-7.411 4.292c-.416-2.077-1.278-3.815-3.281-4.584-.355-.138-.817.046-.94.415-.154.477-.154.939-.108 1.37v.015c.231 1.722 1.895 3.045 3.513 3.722.308.123.647-.031.847-.262.278-.107.478-.369.401-.753l-.432.076z" fill="#14162D"/><path d="M377.341 36.115c-3.543.43-6.101 3.722-5.7 7.244l.046.37c.401 3.521 3.744 6.105 7.257 5.69 3.559-.43 6.101-3.722 5.7-7.244l-.046-.354c-.401-3.553-3.744-6.121-7.257-5.706z" fill="#fff"/><path d="M377.849 38.714c-1.972.246-3.39 2.06-3.174 4.03l.046.353c.216 1.954 2.08 3.4 4.037 3.153a3.649 3.649 0 003.158-4.03l-.046-.368c-.216-1.938-2.08-3.369-4.021-3.138z" fill="#280F0D"/><path d="M442.664 40.883c-3.543.43-6.101 3.722-5.7 7.244l.046.37c.401 3.521 3.744 6.105 7.257 5.69 3.558-.43 6.101-3.722 5.7-7.244l-.046-.354c-.401-3.553-3.744-6.122-7.257-5.706z" fill="#fff"/><path d="M443.173 43.482c-1.972.246-3.39 2.061-3.174 4.03l.046.353c.216 1.954 2.08 3.4 4.037 3.154a3.649 3.649 0 003.158-4.03l-.046-.37c-.216-1.937-2.08-3.368-4.021-3.137z" fill="#280F0D"/><path d="M508.465 240.892a35.826 35.826 0 01-1.587 1.8 26.854 26.854 0 01-3.867 2.953 24.012 24.012 0 01-3.914 1.599 24.171 24.171 0 01-4.19.508 25.735 25.735 0 01-4.591-.692 28.522 28.522 0 01-4.668-2.031 29.263 29.263 0 01-4.36-3.429 30.88 30.88 0 01-3.544-4.676 31.21 31.21 0 01-2.372-5.799 33.398 33.398 0 01-.771-5.798c-.169-3.784-4.19-6.491-7.749-6.075-2.219.261-3.898 1.461-4.915 3.106-2.942.446-5.407 2.784-5.885 5.845-1.387 8.875.247 18.641 3.913 26.808 4.407 9.798 12.556 17.919 23.541 19.488 15.33 2.184 31.229-7.952 37.13-22.087-2.527-5.045-4.499-10.413-12.171-11.52z" fill="#D0D0D0"/><path d="M509.157 202.287a84.911 84.911 0 01-4.437-.892 67.695 67.695 0 01-3.035-.769c-.015 0-.046-.016-.077-.016l-.601-.184a32.646 32.646 0 01-1.741-.554 76.501 76.501 0 01-11.955-5.106 68.745 68.745 0 01-2.311-1.292c-.2-.123-.832-.492-1.001-.6l-1.526-.969c-1.787-1.169-3.512-2.446-5.191-3.768a68.999 68.999 0 01-4.792-4.215c-.185-.169-.354-.353-.539-.538a30.457 30.457 0 01-.986-1.046c-.755-.8-1.464-1.63-2.172-2.476a57.603 57.603 0 01-3.775-5.06 71.877 71.877 0 01-1.618-2.569c-.03-.046-.061-.108-.107-.184-.077-.124-.139-.247-.216-.37-.277-.523-.555-1.03-.832-1.568a56.967 56.967 0 01-2.542-5.799 46.062 46.062 0 01-.971-2.907c-.154-.477-.277-.969-.416-1.461-.077-.308-.154-.6-.215-.907-.493-2.123-.832-4.292-1.063-6.46a55.057 55.057 0 01-.231-3.215c-.031-.538-.031-1.092-.047-1.63v-.831c.185-9.182 1.433-18.38 3.59-27.3.2-.862.431-1.708.647-2.569.123-.477.262-.938.385-1.415.062-.215.123-.415.185-.631a98.716 98.716 0 011.833-5.567c1.279-3.507 2.774-6.937 4.514-10.228a78.12 78.12 0 011.202-2.169c.108-.17.2-.338.308-.508l.74-1.153a49.077 49.077 0 013.189-4.337c.431-.523.878-1.03 1.325-1.538-2.203-1.846-4.252-3.876-6.209-5.999-4.545 4.907-8.027 10.813-10.738 16.857-4.083 9.105-6.579 18.964-8.088 28.793-1.372 8.936-2.25 18.379-.863 27.346 1.402 9.013 5.022 17.55 10.291 24.978 10.461 14.766 27.1 24.486 44.555 28.516 1.156.262 2.327.508 3.498.723.739-2.784 1.386-5.599 2.033-8.413zm-135.128-69.475c-4.869-13.965-12.88-26.87-23.726-37.236-.817 1.123-1.664 2.23-2.48 3.353-.755 1.276-1.51 2.538-2.265 3.814.169.154.323.323.477.492a81.707 81.707 0 017.057 8.229 89.245 89.245 0 013.127 4.445 53.56 53.56 0 011.402 2.215c.216.338.431.692.632 1.046.123.215.262.43.385.661a94.294 94.294 0 014.899 9.828 99.287 99.287 0 013.775 10.367c.261.846.508 1.692.739 2.553.046.154.077.292.123.446l.37 1.477c.431 1.784.817 3.599 1.171 5.398a104.452 104.452 0 011.448 10.951c.139 1.831.231 3.661.277 5.491.016.877.031 1.753.031 2.63 0 .246 0 .492-.015.754 0 .215-.031.969-.031 1.2a91.85 91.85 0 01-3.266 21.409l-.324 1.154c-.046.169-.107.323-.154.492-.277.892-.57 1.769-.878 2.646a72.37 72.37 0 01-1.956 4.967 75.968 75.968 0 01-4.884 9.429c-.077.123-.154.246-.231.354l-.694 1.061a73.689 73.689 0 01-1.587 2.276 66.74 66.74 0 01-3.296 4.199 59.031 59.031 0 01-3.652 3.953c-.308.307-.616.615-.924.907l-.046.046c-.093.077-.17.17-.262.247a69.024 69.024 0 01-7.873 6.244l5.223 5.26.755.754c6.609-4.645 12.433-10.321 17.132-16.873 8.781-12.227 13.665-26.762 15.113-41.45 1.448-15.273-.554-30.715-5.592-45.189z" fill="#715BF0"/><path d="M428.598 127.691c-3.081-7.198 9.706-21.117 2.542-26.008-7.179-4.907-35.127-.124-44.709 1.122-4.807.616-9.321 2.2-13.281 4.584-4.082 2.461-6.717 5.583-9.259 9.044-1.202 1.645-2.111 3.383-2.881 5.167a41.047 41.047 0 00-1.263 2.431c-2.049 4.368-3.467 8.951-4.345 13.519-1.818 9.444-1.849 19.118-1.371 28.562.401 7.844 1.325 15.657 2.496 23.425 1.34 8.905 2.912 17.795 5.87 26.408 1.71 4.983 4.267 9.582 7.564 13.95 1.88 2.492 4.252 4.538 6.779 6.583 1.987 1.615 4.206 2.83 6.563 3.968l-.739-.353c1.879.907 3.759 1.845 5.777 2.568 1.957.723 4.098 1.123 6.193 1.538 2.789.554 5.886.585 8.751.2 6.594-.877 39.24-4.86 43.415-9.151 3.189-3.261-21.399-6.306-19.766-10.182 1.787-4.245 3.174-8.567 4.237-12.951 3.05-12.643 4.113-25.424 4.437-38.19.4-15.534-.755-31.638-7.01-46.234z" fill="#715BF0"/><path d="M419.401 98.468a25.347 25.347 0 00-11.216 4.353c-3.42 2.384-5.608 5.46-7.718 8.874-1.002 1.615-1.741 3.353-2.357 5.122-.37.8-.709 1.599-1.033 2.415-1.664 4.322-2.788 8.874-3.466 13.427-1.387 9.397-1.248 19.056-.678 28.485.478 7.844 1.402 15.642 2.511 23.409 1.279 8.921 2.773 17.811 5.423 26.455 1.541 4.998 3.79 9.628 6.671 14.058 1.633 2.522 3.682 4.598 5.87 6.69 1.71 1.646 3.621 2.892 5.654 4.076l-.631-.354c1.617.938 3.235 1.907 4.945 2.661 1.679.754 3.497 1.184 5.284 1.646 2.373.6 5.007.677 7.442.338 73.611-22.179 26.899-154.867-16.701-141.655z" fill="#715BF0"/><path d="M421.434 103.297c-3.513.477-6.81 1.831-9.676 3.938-2.942 2.184-4.822 4.998-6.624 8.136-.848 1.477-1.479 3.076-2.003 4.706a33.053 33.053 0 00-.878 2.215c-1.418 3.984-2.357 8.167-2.912 12.351-1.14 8.659-.955 17.549-.401 26.255.463 7.228 1.31 14.427 2.327 21.609 1.171 8.229 2.511 16.442 4.868 24.425 1.371 4.629 3.343 8.905 5.87 12.996 1.433 2.338 3.22 4.261 5.115 6.199 1.494 1.522 3.158 2.691 4.915 3.799l-.555-.339c1.402.877 2.804 1.769 4.298 2.492 1.464.692 3.035 1.123 4.591 1.538 2.065.569 4.345.661 6.44.369 63.598-19.964 22.309-142.593-15.375-130.689z" fill="#fff"/><path d="M414.039 99.237l-45.187 11.028 29.257 6.536-39.795 10.967 34.464 7.752-38.284 10.889 39.039 10.382-38.685 16.273 40.365 10.535s-38.609 19.718-36.976 19.534c1.633-.185 41.767 5.368 41.767 5.368l-27.639 23.517 39.332-1.585-15.19 14.258" stroke="#fff" stroke-width="11.07" stroke-miterlimit="10" stroke-linejoin="round"/><path d="M415.287 96.315a1.4 1.4 0 00-.246-.17c-.247-.153-.478-.323-.74-.415-.493-.154-1.124-.354-1.664-.215a3.44 3.44 0 00-1.54.6c-.231.138-.401.353-.586.553-.354.385-.554.97-.662 1.446-.062.308-.046.677 0 1.015a2.941 2.941 0 001.171 2c.647.492 1.494.707 2.326.615a.442.442 0 00.139-.031c.061 0 .123 0 .185-.015a3.178 3.178 0 002.11-1.138c.524-.631.755-1.43.663-2.23-.077-.816-.509-1.523-1.156-2.015zm-17.132 17.057c-1.71.184-2.973 1.753-2.773 3.368.201 1.646 1.787 2.815 3.498 2.615 1.71-.2 2.973-1.754 2.773-3.369-.201-1.63-1.787-2.799-3.498-2.614zm-2.079 19.948a3.29 3.29 0 00-2.326-.615l-.324.031a3.239 3.239 0 00-2.111 1.138 2.947 2.947 0 00-.662 2.23 2.94 2.94 0 001.171 2 3.287 3.287 0 002.326.615l.324-.031a3.234 3.234 0 002.11-1.138 2.946 2.946 0 00.663-2.23c-.093-.785-.524-1.508-1.171-2zm-2.882 20.795c-1.71.184-2.973 1.753-2.773 3.368.2 1.646 1.787 2.815 3.497 2.615 1.71-.185 2.973-1.753 2.773-3.368-.2-1.631-1.787-2.8-3.497-2.615zm4.715 27.654a3.291 3.291 0 00-2.327-.615l-.323.031a3.239 3.239 0 00-2.111 1.138 2.943 2.943 0 00-.662 2.23 2.943 2.943 0 001.171 2 3.287 3.287 0 002.326.615l.324-.031a3.234 3.234 0 002.11-1.138 2.946 2.946 0 00.663-2.23c-.093-.769-.524-1.508-1.171-2zm4.607 23.348c-.647-.492-1.494-.707-2.326-.615a3.172 3.172 0 00-2.111 1.138 2.94 2.94 0 00-.662 2.23l.03.308a2.944 2.944 0 001.171 1.999c.647.492 1.495.708 2.327.615a3.167 3.167 0 002.11-1.138c.524-.63.755-1.43.663-2.23l-.031-.308c-.092-.784-.524-1.507-1.171-1.999zm11.385 22.271c-.647-.492-1.495-.707-2.327-.615a3.167 3.167 0 00-2.11 1.138 2.945 2.945 0 00-.663 2.23l.031.308a2.94 2.94 0 001.171 1.999c.647.492 1.494.708 2.326.615a3.172 3.172 0 002.111-1.138c.524-.63.755-1.43.662-2.23l-.031-.308c-.077-.784-.508-1.507-1.17-1.999zm-41.937-117.8a2.942 2.942 0 00-1.171-1.999c-1.032-.754-2.373-1.031-3.621-.554-.57.231-.955.538-1.355.984-.201.231-.385.492-.478.785-.262.692-.339 1.199-.262 1.938.17 1.63 1.818 2.814 3.497 2.614a3.36 3.36 0 001.649-.692c.416-.2.786-.477 1.078-.846.509-.63.755-1.43.663-2.23zm-11.062 17.149c-.4-.707-.354-.707-.986-1.246-.354-.292-1.094-.599-1.556-.63-.354-.016-.708-.031-1.047.015a3.237 3.237 0 00-2.111 1.138 2.947 2.947 0 00-.663 2.231 2.944 2.944 0 001.171 1.999c.047.031.108.077.154.108.062.061.139.107.201.169.647.492 1.494.707 2.326.615a3.172 3.172 0 002.111-1.138 2.94 2.94 0 00.662-2.23c0-.062-.015-.123-.031-.2.139.523-.107-.631-.231-.831zm-4.775 17.334c-.077-.061-.154-.123-.247-.169-.246-.154-.477-.323-.739-.415-.493-.154-1.125-.354-1.664-.215a3.445 3.445 0 00-1.541.599c-.231.139-.4.354-.585.554-.355.385-.555.969-.663 1.446-.061.307-.046.677 0 1.015a2.942 2.942 0 001.171 1.999c.647.493 1.495.708 2.327.616.046 0 .092-.016.138-.016.062 0 .123 0 .185-.015a3.176 3.176 0 002.111-1.138 2.941 2.941 0 00.662-2.23c-.077-.816-.508-1.523-1.155-2.031zm.616 25.994c-.647-.493-1.494-.708-2.326-.616a3.18 3.18 0 00-2.111 1.138 2.946 2.946 0 00-.662 2.231l.031.307a2.94 2.94 0 001.171 2c.647.492 1.494.707 2.326.615a3.176 3.176 0 002.111-1.138 2.945 2.945 0 00.662-2.23l-.031-.308c-.077-.784-.523-1.507-1.171-1.999zm2.758 29.899c-1.711.2-2.974 1.754-2.774 3.369.201 1.645 1.788 2.814 3.498 2.614 1.71-.2 2.973-1.753 2.773-3.368-.185-1.63-1.787-2.799-3.497-2.615zm14.898 27.501c-.647-.492-1.494-.708-2.326-.615a3.17 3.17 0 00-2.111 1.138 2.939 2.939 0 00-.662 2.23l.061.569a2.946 2.946 0 001.171 2c.647.492 1.494.707 2.326.615a3.178 3.178 0 002.111-1.138 2.947 2.947 0 00.663-2.231l-.062-.569c-.077-.769-.508-1.507-1.171-1.999zm21.307 13.335c-1.711.2-2.974 1.753-2.774 3.368.201 1.646 1.788 2.815 3.498 2.615 1.71-.2 2.973-1.753 2.773-3.368-.185-1.631-1.787-2.8-3.497-2.615z" fill="#14162D"/><path d="M412.497 77.58c-2.834 1.293-6.332 1.939-9.552 1.462 1.218 2.184 5.547 8.444 13.527 4.491 9.583-4.737 5.47-13.996 5.47-13.996l-.17.076c-2.064 3.553-5.808 6.399-9.275 7.968z" fill="#EB5757"/><path d="M527.815 40.683c-6.671 8.382-12.233 17.534-17.44 26.87-.339.6.647 1 .971.415 5.176-9.26 10.692-18.334 17.301-26.64.416-.522-.416-1.168-.832-.645zm13.681 6.275c-7.472 4.045-13.157 10.274-18.411 16.827-.431.538.401 1.184.832.645 5.115-6.398 10.677-12.55 17.979-16.503.586-.308.201-1.292-.4-.969zM294.471 88.255c-4.776-5.752-9.414-11.628-13.312-18.01-.277-.462-.986 0-.708.46 3.898 6.384 8.535 12.26 13.311 18.011.354.416 1.048-.046.709-.46zm-3.853 4.275c-6.794-4.275-13.927-8.274-19.381-14.272-.37-.4-1.032.107-.678.507 5.516 6.06 12.664 10.105 19.536 14.427.462.277.986-.384.523-.661z" fill="#3C3C3C"/><path d="M491.795 262.348c-.585-3.107-2.203-6.26-4.915-7.998-3.173-2.03-7.333-1.277-10.599.062-3.667 1.476-6.779 3.983-10.261 5.783-.832.43-.293 1.799.555 1.369 2.896-1.492 5.531-3.446 8.442-4.938 2.958-1.522 6.671-2.768 9.968-1.584 2.712.969 4.283 3.799 5.084 6.383.432 1.4.586 2.922.555 4.384-.031.969-.154 1.922-.293 2.876-.061.43-.092.876-.138 1.307a4.945 4.945 0 01-.077.462c-.016.03-.016.046-.031.076-.539.493-.015 1.569.77 1.231.462-.2.601-.631.709-1.077.216-.907.231-1.907.354-2.83.247-1.83.231-3.676-.123-5.506z" fill="#E1E1E1"/><path d="M482.443 260.533c-1.541-1.584-4.006-1.569-5.963-.938-2.449.769-4.483 2.63-6.393 4.26-.724.616.169 1.785.893 1.169 1.541-1.307 3.082-2.645 4.9-3.568 1.617-.831 4.113-1.353 5.546.123 1.032 1.061.847 2.784.601 4.107-.278 1.492-.863 2.922-1.526 4.276-.415.861.94 1.43 1.356.584 1.31-2.769 3.128-7.413.586-10.013zm-72.041 14.812c-1.956-6.783-9.767-10.321-16.392-9.429-.94.123-.771 1.584.169 1.461 5.932-.799 12.479 2.169 14.652 7.968 1.063 2.845.477 5.69-1.525 7.921-1.88 2.091-4.653 3.353-7.257 4.26-.894.308-.339 1.677.555 1.369 2.989-1.031 5.9-2.522 8.026-4.906 2.204-2.431 2.65-5.584 1.772-8.644z" fill="#E1E1E1"/><path d="M403.778 276.775c-.416-1.922-1.787-3.737-3.528-4.629-1.633-.846-3.621-.4-5.315.03-.909.231-.74 1.692.169 1.462 1.31-.339 2.773-.739 4.114-.323 1.556.492 2.588 2.107 3.065 3.568 1.017 3.122-2.788 5.183-5.037 6.29-.848.416-.293 1.785.554 1.369 3.035-1.476 6.825-3.845 5.978-7.767zM294.47 113.479c-.37.077-.709.323-.97.646a1.413 1.413 0 00-.339.185c-1.202.923-1.587 2.322-1.803 3.768a18.041 18.041 0 000 5.46c.231 1.492.924 3.184 2.342 3.907 1.386.692 2.896.277 3.944-.815 3.266-3.384 3.944-14.689-3.174-13.151zm241.001-9.936c-.585-.43-1.371-.615-2.095-.646-.324-.092-.678-.092-1.094.062-4.252 1.553-4.807 6.829-3.898 10.674.724 3.076 3.605 6.767 7.102 5.245 2.512-1.092 2.958-5.061 3.005-7.383.061-2.876-.586-6.183-3.02-7.952zm-17.933 150.284c-.385-1.876-1.879-3.799-2.942-5.337-1.171-1.692-2.851-4.306-5.146-4.46-1.233-.077-2.589.584-2.928 1.845-.292 1.062.139 2.092.725 2.969.261.384.539.769.847 1.123 1.648 2.799 3.929 5.137 7.149 6.213 1.463.493 2.572-1.03 2.295-2.353z" fill="#E1E1E1"/><path d="M291.327 138.873l14.205-38.96c2.188.354 4.514-.415 6.039-2.184l.154-.169c2.327-2.692 1.957-6.906-.724-9.198-2.727-2.322-6.871-1.953-9.213.723l-.154.17c-2.326 2.691-1.956 6.906.724 9.197.339.277.694.523 1.048.723l-14.559 39.359 2.48.339zm247.626-10.09l-9.29-42.85c2.157-.924 3.805-2.908 4.175-5.353l.031-.246c.57-3.722-2.142-7.275-5.855-7.814-3.743-.538-7.256 2.123-7.826 5.845l-.031.246c-.57 3.722 2.142 7.275 5.855 7.813.462.062.909.077 1.355.062l9.213 43.419 2.373-1.122z" fill="#3C3C3C"/></svg>