<svg width="205" height="208" fill="none" xmlns="http://www.w3.org/2000/svg"><g opacity=".8" fill="#E1E1E1"><path d="M156.614 114.648c-.783-.97-2.317-1.161-3.273-.318a25.999 25.999 0 01-2.013 1.603c-.173.119-.351.25-.524.369-.022.018-.266.175-.341.226-.375.239-.767.458-1.148.681-.736.416-1.503.778-2.273 1.112-.384.167-.776.317-1.167.468l-.597.215a3.486 3.486 0 00-.287.098c-.033.014-.078.022-.144.049a26.197 26.197 0 01-5.169 1.007c-.354.029-.708.059-1.069.072-.012-.005-.378.019-.429.012-.209.008-.424 0-.633.008a27.929 27.929 0 01-2.764-.16c-.854-.084-1.7-.219-2.543-.394-.149-.035-.304-.059-.453-.094a4.943 4.943 0 00-.425-.096 30.286 30.286 0 01-1.464-.422 26.532 26.532 0 01-4.526-1.894c-.011-.005-.034-.014-.053-.036-.153-.091-.299-.166-.441-.253l-.918-.548a47.154 47.154 0 01-6.04-4.414c-.473-.403-.93-.813-1.382-1.234-.007-.017-.03-.027-.042-.031-.134-.138-.284-.27-.417-.407-.242-.238-.479-.488-.717-.738a30.087 30.087 0 01-2.437-2.892 28.445 28.445 0 01-.865-1.264c.019.022-.294-.505-.339-.593a10.47 10.47 0 01-.404-.797 11.25 11.25 0 01-.587-1.435c-.007-.017-.002-.028-.014-.033.007.016-.073-.249-.09-.339a7.748 7.748 0 01-.16-.791c-.22-1.267-1.431-2.13-2.684-1.916-1.241.219-2.119 1.464-1.899 2.731.574 3.26 2.379 6.161 4.434 8.661 2.239 2.714 4.936 5.086 7.755 7.168 2.569 1.895 5.352 3.607 8.315 4.792a29.928 29.928 0 0010.929 2.115c6.9.019 13.732-2.342 18.982-6.963.945-.849 1.124-2.318.316-3.325zm-63.942 15.967c1.234-.986 2.982-.719 3.981.45 2.134 2.505 3.849 5.422 4.86 8.55 1.032 3.177 1.418 6.426 1.278 9.755-.269 6.404-2.72 12.535-5.922 18.012-.776 1.327-2.839 1.42-3.963.581-1.344-1-1.357-2.631-.58-3.958.06-.112.132-.218.192-.33.01-.023.02-.046.036-.053.177-.322.353-.644.518-.972.326-.614.634-1.25.926-1.88a38.631 38.631 0 002.239-6.015c.037-.121.062-.247.1-.368a.938.938 0 01.04-.161c.083-.361.166-.723.238-1.089a28.81 28.81 0 00.534-4.202c.02-.306.022-.606.03-.917a8.544 8.544 0 00-.003-.547c.005-.012-.002-.028.003-.04a22.18 22.18 0 00-.146-1.932 23.918 23.918 0 00-.318-1.978 14.59 14.59 0 00-.247-1.073c-.03-.122-.073-.249-.104-.371a1.256 1.256 0 00-.056-.16c-.431-1.383-1.023-2.709-1.718-3.984-.057-.092-.269-.467-.35-.597l-.528-.795a23.905 23.905 0 00-1.51-1.943c-.977-1.188-.7-3.052.47-3.983zm-9.23-.903c1.583.007 2.773 1.31 2.812 2.843.084 3.286-.417 6.628-1.602 9.711-1.2 3.117-2.949 5.882-5.15 8.389-4.235 4.812-10.006 8.038-15.932 10.297-1.444.543-3.092-.679-3.448-2.044-.413-1.621.599-2.891 2.048-3.446.116-.047.243-.089.358-.137.017-.006.045-.008.066-.027.347-.141.682-.288 1.029-.43a40.17 40.17 0 001.902-.884 40.997 40.997 0 003.804-2.123c.58-.372 1.153-.76 1.715-1.153.102-.081.2-.149.313-.225.06-.043.102-.08.14-.105.301-.229.59-.463.869-.702a31.163 31.163 0 003.06-2.926c.206-.228.4-.461.605-.689l.344-.43c.005-.012.021-.018.026-.03a24.29 24.29 0 001.109-1.598c.358-.561.687-1.147 1.003-1.739.165-.327.33-.654.483-.986.049-.116.102-.244.163-.355l.063-.151c.526-1.351.913-2.76 1.168-4.183.016-.103.077-.541.096-.684.036-.313.06-.631.096-.943.058-.823.071-1.637.05-2.465-.085-1.525 1.3-2.803 2.81-2.785z"/><path d="M160.95 113.221c-.781-.094-1.548.104-2.282.452.782-1.244 1.413-2.714 1.034-4.157-.209-.771-1.144-1.312-1.82-.68-.916.846-1.559 1.889-2.114 2.982a4.998 4.998 0 00-.228-1.476c-.275-.811-1.499-.859-1.934-.181-.688 1.051-.701 2.289-.705 3.503.005.248-.001.491-.013.746-.341.977-.718 1.94-.951 2.949a.93.93 0 00.136.685c.008.796.862 1.303 1.505 1.108.251.214.582.339.897.239 2.637-.809 6.877-1.657 7.473-4.932.123-.618-.428-1.163-.998-1.238zm-80.388 16.103c-6.182 2.085-12.027 5.418-18.59 6.033-6.209.585-13.648-2.707-14.719-9.44-.517-3.263.681-6.15 3.504-7.92 2.55-1.611 5.79-.924 7.896 1.064 2.666 2.509 1.194 7.577-1.852 8.611-1.15.394-2.343-.283-3.4-1.381-1.713-1.783-4.253 1.075-2.559 2.836 3.676 3.82 8.766 2.74 11.528-1.46 2.87-4.36 1.373-9.85-2.761-12.674-6.097-4.178-13.848-.18-15.941 6.336-1.02 3.179-.093 6.929 1.415 9.787 1.508 2.859 4.258 5.007 7.15 6.327 10.26 4.718 19.83-1.361 29.546-4.536-.256-1.214-.714-2.403-1.217-3.583z"/><path d="M109.655 117.73c-.244-2.643-1.572-20.356-2.131-21.628-.68-1.541-1.458.182-2.595-1.018-3.286-.446-6.567-.904-9.822-1.488a92.653 92.653 0 01-6.63-1.437 3.67 3.67 0 00-.756 1.146c-1.62 3.762-6.2 18.838-6.487 20.043a153.215 153.215 0 00-2.022 9.796c-.468 2.645-.801 5.361-.582 8.062.222 2.565 1.109 5.176 2.693 7.233 7.773 7.474 15.831 5.478 17.252 4.994 2.864-.96 5.479-2.953 7.299-5.333 4.456-5.826 4.435-13.429 3.781-20.37zM93.983 79.502c1.155 1.549 5.429 4.007 10.082 1.46-.969 3.447-3.21 6.211-5.568 6.126-1.973-.088-4.288-1.904-4.514-7.586zm-30.61 93.616c-.757-5.167-2.003-10.211-3.868-14.857-.548-1.364.016-2.904.842-2.722a.664.664 0 01.705.145c3.834 3.408 7.797 7.813 9.932 14.062.561 1.628-.753 3.031-1.633 1.871a31.263 31.263 0 01-1.132-1.636c.15.719.254 1.446.308 2.165.107 1.698-1.154 2.618-1.942 1.073a42.949 42.949 0 01-1.033-2.195c.045.77.063 1.543.036 2.324-.071 1.992-1.926 1.721-2.215-.23zm36.021 7.652c-2.007-4.829-4.449-9.403-7.41-13.457-.87-1.184-.69-2.817.144-2.85.194-.137.452-.166.722-.026 4.545 2.367 9.48 5.662 13.082 11.186.944 1.434.016 3.122-1.119 2.21a25.206 25.206 0 01-1.501-1.311c.326.655.603 1.331.83 2.028.526 1.613-.485 2.816-1.623 1.52a44.629 44.629 0 01-1.538-1.873c.241.729.444 1.483.607 2.235.431 1.97-1.444 2.169-2.194.338z"/><path d="M107.697 96.678c-1.3 3.227-2.006 7.058-1.322 10.446.36 1.749 1.037 3.522 2.238 4.83 1.512 1.644 3.356 2.498 5.552 2.87 1.67.29 3.512.104 5.214-.399.016-.007.028-.002.045-.009 1.967-.256 3.899-1.469 5.371-2.793l.607-.566c.23.984.697 1.89 1.233 2.73 1.354 2.151 3.9 3.121 6.279 3.611 4.798.984 10.612-1.528 13.162-5.94 1.708-2.96 2.491-6.649 1.64-9.93-.216-.855-.457-1.68-.887-2.448-.61-1.088-1.195-1.812-2.099-2.655-1.202-1.145-2.776-1.694-4.38-2.01-3.031-.6-6.454.646-8.78 2.733-.047.048-.107.092-.154.14-.045-1.685-.412-3.383-1.159-4.83-1.048-2.064-2.748-3.91-4.727-5.093-1.983-1.172-3.999-1.647-6.34-1.48-1.862.137-3.616 1.056-5.14 2.112-2.959 2-5.055 5.427-6.353 8.681z"/><path d="M176.893 115.195c-.501-.305-24.321-6.614-35.517-9.564a57.81 57.81 0 01-.957 3.193l35.409 10.08c.005-.012 1.719-3.312 1.065-3.709zM68.074 56.084a6.185 6.185 0 00-.106-.66c.238-1.675-.133-3.689-1.228-5.022-4.25-5.153-11.321-9.191-18.087-6.627-1.92.727-3.744 2.108-4.975 3.738-1.466 1.928-2.186 3.84-2.831 6.124-.827 2.946-.092 6.861 1.962 9.169 1.332 1.486 2.085 2.102 3.842 3.097.993.566 2.227.85 3.286 1.13.604.156 1.226.24 1.856.27 1.23.065 2.483.11 3.718-.028 1.845-.225 3.797-.706 5.452-1.585 2.124-1.119 4.243-2.418 5.592-4.49.322-.508.628-1.008.95-1.515a7.115 7.115 0 00.569-3.601z"/><path d="M67.515 56.083c-.007-.7-.363-1.546-.79-2.093a4.658 4.658 0 00-1.496-1.256 3.464 3.464 0 00-1.938-1.084c-.127-.025-.264-.056-.39-.081-1.213-.467-2.24-1.279-3.467-1.71a12.905 12.905 0 00-3.219-.706c-2.639-.23-5.192.054-7.533 1.329-2.674 1.45-3.418 4.786-2.212 7.45.312.69.698 1.398 1.173 1.993.618.778 1.167 1.13 2.004 1.645.944.586 2.148.845 3.23 1.038 2.373.406 4.95.295 7.303-.195 1.199-.25 2.417-.546 3.523-1.095 1.068-.523 2.26-1.212 2.926-2.245.607-.99.897-1.81.886-2.99zm73.641 15.656c.027.23.059.448.107.66-.251 1.67.132 3.689 1.228 5.022 4.25 5.153 11.32 9.191 18.086 6.627 1.919-.727 3.744-2.109 4.975-3.738 1.466-1.928 2.187-3.84 2.831-6.124.827-2.947.092-6.861-1.973-9.174-1.332-1.486-2.085-2.102-3.842-3.097-.993-.566-2.228-.85-3.287-1.13a9.163 9.163 0 00-1.855-.27c-1.231-.065-2.484-.11-3.718.028-1.845.225-3.798.706-5.464 1.58-2.125 1.119-4.243 2.418-5.592 4.49-.322.508-.628 1.008-.95 1.515a7.287 7.287 0 00-.546 3.611z"/><path d="M141.715 71.74c.012.689.363 1.546.79 2.094.426.547.928.948 1.497 1.255a3.462 3.462 0 001.938 1.084c.126.025.264.056.39.081 1.213.467 2.239 1.279 3.467 1.71 1.048.371 2.11.61 3.219.706 2.627.225 5.192-.054 7.533-1.329 2.673-1.45 3.418-4.786 2.211-7.45-.311-.69-.698-1.398-1.173-1.993-.617-.778-1.166-1.13-2.004-1.645-.943-.586-2.148-.844-3.229-1.037-2.374-.406-4.95-.296-7.303.195-1.199.25-2.418.545-3.524 1.094-1.067.523-2.259 1.213-2.926 2.245-.618.985-.897 1.811-.886 2.99z"/><path d="M146.292 64.775a27.65 27.65 0 00-.428-4.81c-.35-2.032-.815-4.085-1.516-6.031-.694-1.93-1.688-3.699-2.672-5.49a32.924 32.924 0 00-2.498-3.888c-1.279-1.71-2.764-3.287-4.304-4.765-1.558-1.5-3.36-2.65-5.23-3.733-2.347-1.966-18.027-6.411-21.604-6.392-3.806-.513-7.688-.649-11.52-.545-3.663.093-7.146.67-10.671 1.736-3.536 1.061-6.916 2.857-9.982 4.88-3.108 2.06-5.953 4.668-8.37 7.495-2.371 2.779-4.412 6.01-5.769 9.404-3.013 7.469-3.233 16.202.557 23.459 1.024 1.958 2.1 3.857 3.472 5.606 1.303 1.652 2.786 3.202 4.318 4.635 2.682 2.503 5.87 4.52 9.095 6.252 3.413 1.838 7.043 3.03 10.752 4.131a53.304 53.304 0 009.526 1.87c3.833.415 7.739.493 11.583.23 3.675-.252 7.272-1 10.826-1.973 3.742-1.03 7.331-2.738 10.576-4.863 1.776-1.17 3.352-2.641 4.857-4.143 1.442-1.446 2.489-3.125 3.56-4.862a17.24 17.24 0 001.065-2.014 27.437 27.437 0 001.966-3.576c.857-1.91 1.454-3.983 1.9-6.023.472-2.166.488-4.386.511-6.59z"/><path d="M138.73 66.212c-.403-7.15-5.402-13.45-11.799-16.36-3.417-1.567-7.201-2.099-10.939-1.86-4.121.27-7.98 1.839-11.539 3.833a26.515 26.515 0 00-3.806 2.615c-1.028-1.851-2.228-3.392-3.783-4.93-1.374-1.354-3.115-2.452-4.864-3.238-2.302-1.032-4.608-1.37-7.088-1.423-4.094-.088-8.312 1.781-11.399 4.41-3.049 2.604-5.12 5.81-5.977 9.74-.718 3.307-.156 6.82.88 9.987.993 3.011 2.688 5.88 4.58 8.407a40.894 40.894 0 006.922 7.132c2.39 1.93 5.076 3.641 7.913 4.801 3.022 1.238 6.375 1.917 9.602 2.407 3.564.535 7.211.709 10.811.603 7.02-.204 14.191-2.04 20.037-6.027 6.576-4.49 10.899-12.08 10.449-20.097z"/><path d="M104.837 73.775c.043-1.99-.884-4.442-3.009-5.017-1.439-.383-2.375.413-2.93 1.507-.525-1.095-1.38-1.958-2.733-1.992-2.057-.054-3.078 2.443-3.295 4.1-.115.827 1.166 1.035 1.28.208.155-1.15.667-2.89 2.06-3.018 1.48-.132 1.955 2.253 2.083 3.25.092.694 1.234.775 1.286.032.068-1.01.44-3.328 1.994-2.827 1.554.5 2.02 2.485 1.996 3.91-.03.82 1.266.666 1.268-.153z"/><path d="M102.731 72.607a2.103 2.103 0 00-.656-1.436.664.664 0 00-.458-.178c-.35-.078-.775.086-.909.44-.221.59-.38 1.261-.163 1.884.237.674 1.029 1.1 1.663.697.478-.292.55-.918.523-1.407zm-5.546-.314c.1-.532-.017-1.1-.323-1.543a.725.725 0 00-.403-.278c-.328-.164-.781-.094-.986.23-.348.537-.647 1.15-.575 1.794.086.706.765 1.304 1.472 1.054.518-.193.722-.777.815-1.257zm-9.439-36.309c-4.048-.423-8.073 2.454-9.645 6.1-.695 1.622 1.788 2.743 2.478 1.133 1.067-2.477 3.89-4.834 6.73-4.533 1.747.171 2.19-2.512.437-2.7zm43.206 10.936c-1.721-3.685-6.253-5.664-10.186-5.124-1.743.241-1.443 2.95.299 2.708 2.679-.354 6.141.849 7.354 3.434.739 1.594 3.273.577 2.533-1.017zm-15.647-23.734a1.148 1.148 0 00-1.756-1.159c-1.662 1.026-2.895 2.464-3.877 4.088.05-1.455.129-3.143-.536-4.391-.343-.65-1.054-.878-1.736-.686-.977.274-1.177 1.598-1.268 2.434-.071.722-.085 1.44-.076 2.168-.681-1.637-1.409-3.322-3.144-4.076-.53-.235-1.289-.088-1.527.51-1.013 2.608-.486 5.588 1.253 7.764 1.351 1.7 3.514 3.616 5.748 3.116.201.043.426.028.662-.078 3.583-1.629 5.668-5.975 6.257-9.69zm-13.295 88.749c-1.629-2.731-4.14-4.793-7.536-4.261-3.004.477-4.904 3.179-6.231 5.656-1.231 2.313-1.915 4.95-2.338 7.587a28.523 28.523 0 00-.77 4.145c-.278 2.519-.105 5.201.905 7.55 1.179 2.761 3.702 4.828 6.686 5.243 3.155.433 5.98-1.8 7.535-4.332 1.387-2.261 2.076-4.65 2.669-7.202 1.078-4.685 1.658-10.07-.92-14.386zm-18.956-53.4c-.358 1.763-1.53 4.524-3.45 5.087-1.059.308-2.003-.374-2.67-1.132-.947-1.066-1.238-2.718-1.121-4.103.126-1.409-2.07-1.618-2.185-.204-.306 3.465 1.927 8.211 6.052 7.67 3.183-.417 5.001-4.355 5.57-7.11.28-1.385-1.909-1.577-2.196-.208zm44.169 6.366c-.357 1.763-1.53 4.524-3.449 5.087-1.059.308-2.004-.374-2.67-1.131-.948-1.066-1.239-2.718-1.122-4.104.127-1.409-2.07-1.617-2.185-.204-.306 3.465 1.927 8.212 6.052 7.67 3.184-.416 5.002-4.355 5.57-7.109.281-1.385-1.92-1.582-2.196-.209zm-11.889 14.207c-9.118 6.732-23.61 5.217-31.13-3.26-.538-.608-1.502.191-.964.8 7.984 8.998 23.215 10.577 32.889 3.435.657-.49-.142-1.454-.795-.975zm-8.888 46.484l44.109-28.94.242 1.344-43.419 28.697-.932-1.101z"/><path d="M109.06 122.729c.02-1.385-1.142-2.623-2.55-2.625a81.16 81.16 0 01-7.872-.37 61.693 61.693 0 01-2.245-.257c-.325-.04-.645-.092-.97-.133-.091-.01-.206-.031-.257-.039-.257-.039-.514-.078-.766-.129a48.19 48.19 0 01-4.764-1.065 34.587 34.587 0 01-2.188-.684 16.179 16.179 0 01-1.05-.398l-.512-.214-.105-.044-.093-.039a19.692 19.692 0 01-1.869-.987c-.295-.178-.573-.363-.862-.553l-.41-.294c-.065-.041-.215-.172-.322-.244-.42-.367-.807-.748-1.18-1.163a6.687 6.687 0 01-.3-.358 10.08 10.08 0 01-.534-.88c-.059-.12-.24-.537-.291-.641a6.07 6.07 0 01-.177-.688c-.008-.045-.012-.101-.022-.174a3.22 3.22 0 01-.011-.332c0-.164.006-.339.018-.498.006-.08.037-.285.051-.416a9.402 9.402 0 01.47-1.511c.035-.081.108-.256.149-.321a16.9 16.9 0 01.866-1.509 21.051 21.051 0 011.539-2.102c.136-.162.273-.323.42-.48.32-.371.664-.733 1.002-1.083 1.877-1.961 3.947-3.732 6.03-5.47a11.237 11.237 0 01-2.751-1.329c-.58-.379-1.132-.788-1.695-1.174a4.684 4.684 0 01-.365-.207c-1.658 1.41-3.276 2.85-4.782 4.42-2.47 2.56-4.887 5.579-5.784 9.084-.884 3.441.224 6.761 2.519 9.375 2.117 2.416 5.128 3.909 8.08 5.021 3.66 1.382 7.566 2.046 11.425 2.528a78.88 78.88 0 009.547.552c1.401-.014 2.594-1.128 2.611-2.569z"/><path d="M113.487 123.667c-1.623-.173-3.063-.913-4.438-1.775 1.572-.421 3.201-.491 4.75.185 1.049.466 1.521-1.113.757-1.705-1.198-.925-2.945-1.192-4.423-1.223-1.223-.02-2.698.237-3.624 1.106-1.542.612-1.782 2.943-1.049 4.356.921 1.779 3.095 3.181 5.084 3.33 1.085.086 1.255-1.524.279-1.837-1.144-.369-2.577-1.42-3.057-2.686 1.684 1.265 3.433 2.311 5.676 2.116l.011.005c.085-.006.158-.017.242-.022 1.138-.138.777-1.752-.208-1.85zm57.108-11.677l-1.923 6.272 9.292 3.179 2.834-7.435-10.203-2.016zm-45.65-10.799a3.6 3.6 0 00-.624-1.477c-.114-.184-.24-.373-.308-.47-.342-.457-.939-.858-1.461-1.049-.777-.298-1.055-.223-1.866-.18l-.881.274a3.45 3.45 0 00-1.382 1.142c-.141.27-.293.534-.433.803a3.581 3.581 0 00-.181 1.864c.037.303.204.687.327 1.012.165.26.322.503.486.763.026.038.056.064.086.091.018.021.031.054.05.075.569.73 1.475 1.178 2.38 1.27a3.583 3.583 0 002.587-.789 3.548 3.548 0 001.272-2.378 13.457 13.457 0 01-.052-.951zM84.74 71.792a4.855 4.855 0 00-3.141-1.93 4.867 4.867 0 00-3.584.85 4.852 4.852 0 00-1.934 3.138l-.05.28a4.816 4.816 0 00.85 3.58 4.855 4.855 0 003.142 1.93 4.867 4.867 0 003.584-.85 4.83 4.83 0 001.929-3.127l.049-.28a4.807 4.807 0 00-.844-3.591zm36.841 5.346a4.858 4.858 0 00-3.142-1.93l-.281-.049a4.833 4.833 0 00-3.584.85 4.795 4.795 0 00-1.933 3.139 4.848 4.848 0 00.849 3.58 4.854 4.854 0 003.142 1.93l.28.048a4.832 4.832 0 003.584-.85 4.851 4.851 0 001.934-3.138 4.853 4.853 0 00-.849-3.58z"/><path d="M173.056 110.097c-1.019-.112-1.226 1.358-.365 1.651-.104.803-.197 1.611-.143 2.426.022.241.39.177.369-.064-.058-.776.049-1.551.139-2.319.945-.069 1.031-1.576 0-1.694zm3.297.261c-.985-.098-1.211 1.255-.453 1.6-.158.603-.338 1.196-.473 1.81-.057.235.324.272.381.036a42.65 42.65 0 01.465-1.758c1.014.028 1.144-1.584.08-1.688zm2.899.394c-.956-.099-1.203 1.204-.488 1.585-.275.623-.467 1.308-.713 1.928-.093.221.261.355.353.135.257-.644.449-1.329.729-1.963 1.045.083 1.195-1.576.119-1.685zm-8.364 6.564c-.319.727-.557 1.488-.817 2.239-1.088-.113-1.252 1.58-.164 1.694.944.095 1.188-1.169.522-1.571.256-.74.494-1.501.808-2.216.102-.244-.245-.362-.349-.146zm2.262 3.214c.133-.708.227-1.42.377-2.136.046-.24-.323-.272-.381-.037-.147.676-.231 1.365-.35 2.039-.439-.061-.916.163-.975.726l-.003.039c-.114 1.086 1.582 1.25 1.696.164l.003-.04a.798.798 0 00-.367-.755zm3.192 1.064a1.015 1.015 0 00-.328-.261c.021-.701.07-1.405.075-2.099.006-.244-.375-.28-.382-.037.001.683-.05 1.358-.073 2.032a1.09 1.09 0 00-.558.189c-.228.151-.31.445-.349.701-.055.456.301.878.762.92a.88.88 0 00.652-.218c.022-.019.055-.032.076-.05.361-.273.447-.838.125-1.177z"/></g></svg>