<svg width="205" height="208" fill="none" xmlns="http://www.w3.org/2000/svg"><path d="M156.62 114.988c-.784-.971-2.317-1.163-3.273-.319a26.011 26.011 0 01-2.013 1.604c-.173.118-.351.249-.524.368-.021.018-.265.176-.341.226-.374.24-.766.458-1.147.681-.736.417-1.503.779-2.272 1.113a28.694 28.694 0 01-1.764.682 3.163 3.163 0 00-.287.099c-.033.013-.078.022-.144.049a26.194 26.194 0 01-5.169 1.005c-.354.03-.708.059-1.069.071-.012-.004-.378.02-.429.012-.209.008-.424 0-.633.008a27.947 27.947 0 01-2.764-.16c-.854-.085-1.7-.221-2.543-.396-.149-.036-.304-.059-.453-.094a4.947 4.947 0 00-.425-.097 30.286 30.286 0 01-1.464-.422 26.638 26.638 0 01-4.526-1.897.14.14 0 01-.054-.037c-.153-.091-.299-.166-.441-.253l-.918-.549a47.044 47.044 0 01-7.424-5.656c-.007-.016-.031-.026-.042-.031-.134-.138-.284-.269-.418-.407-.242-.238-.479-.488-.716-.738a30.156 30.156 0 01-2.439-2.896 28.476 28.476 0 01-.865-1.265c.019.021-.294-.506-.339-.593-.148-.268-.285-.53-.404-.799a11.269 11.269 0 01-.588-1.436c-.007-.016-.002-.028-.014-.033.007.017-.073-.249-.09-.339a7.56 7.56 0 01-.161-.792c-.221-1.268-1.432-2.132-2.684-1.918-1.241.218-2.119 1.464-1.898 2.732.575 3.263 2.381 6.167 4.437 8.67 2.24 2.716 4.938 5.092 7.757 7.176 2.57 1.898 5.354 3.612 8.317 4.799a29.923 29.923 0 0010.93 2.121c6.9.021 13.731-2.339 18.979-6.961.944-.849 1.123-2.319.315-3.328zm-63.95 15.976c1.234-.986 2.982-.718 3.983.453 2.135 2.509 3.852 5.43 4.864 8.562 1.033 3.181 1.421 6.434 1.282 9.767-.266 6.411-2.716 12.549-5.917 18.03-.776 1.329-2.84 1.421-3.964.58-1.345-1.001-1.358-2.634-.582-3.963.06-.111.132-.218.193-.329.01-.023.02-.047.036-.053.176-.323.352-.646.517-.973.326-.616.634-1.252.926-1.882a38.778 38.778 0 002.237-6.022c.037-.121.062-.247.1-.368a1.04 1.04 0 01.04-.161c.083-.362.166-.724.238-1.09.28-1.387.457-2.789.532-4.207.02-.307.022-.606.03-.918a8.65 8.65 0 00-.004-.548c.005-.012-.001-.028.003-.04a22.227 22.227 0 00-.146-1.934 23.818 23.818 0 00-.32-1.98c-.069-.357-.15-.719-.247-1.075-.03-.122-.073-.249-.104-.371a1.113 1.113 0 00-.056-.161c-.432-1.384-1.024-2.712-1.72-3.989-.057-.092-.269-.468-.351-.598l-.528-.796a24.141 24.141 0 00-1.51-1.946c-.979-1.189-.702-3.056.468-3.988zm-9.225-.9c1.584.008 2.774 1.313 2.815 2.848.084 3.29-.416 6.636-1.6 9.722-1.199 3.121-2.947 5.888-5.148 8.397-4.235 4.816-10.007 8.043-15.934 10.303-1.445.543-3.093-.681-3.45-2.048-.414-1.623.597-2.894 2.047-3.449.116-.047.243-.089.359-.137.016-.006.044-.008.066-.027.346-.141.681-.288 1.028-.43.637-.28 1.28-.571 1.903-.884a41.234 41.234 0 003.804-2.124c.58-.372 1.154-.761 1.716-1.155a4.47 4.47 0 01.313-.224c.059-.043.102-.08.14-.105.3-.23.59-.464.868-.703a31.057 31.057 0 003.061-2.928c.205-.228.399-.462.604-.69l.345-.43c.004-.012.021-.019.026-.03a24.29 24.29 0 001.108-1.6c.359-.561.687-1.148 1.003-1.74.165-.328.33-.655.483-.987.048-.117.102-.245.163-.356l.063-.151a22.544 22.544 0 001.167-4.187c.016-.103.077-.543.095-.685.036-.313.06-.631.096-.945.057-.823.07-1.638.05-2.468-.086-1.526 1.298-2.805 2.81-2.787z" fill="#C93F28"/><path d="M160.956 113.552c-.781-.095-1.548.103-2.282.451.782-1.244 1.412-2.717 1.033-4.161-.21-.772-1.145-1.314-1.821-.681-.916.846-1.559 1.89-2.113 2.984a5.03 5.03 0 00-.229-1.477c-.275-.813-1.499-.862-1.935-.183-.687 1.052-.7 2.291-.703 3.507.005.248-.001.492-.013.747-.341.978-.718 1.941-.95 2.951a.931.931 0 00.137.687c.008.796.862 1.304 1.505 1.109.251.215.582.34.898.24 2.637-.809 6.877-1.657 7.472-4.935.123-.619-.428-1.164-.999-1.239z" fill="#F97D73"/><path d="M80.569 129.679c-6.182 2.085-12.026 5.419-18.589 6.031-6.209.583-13.65-2.714-14.723-9.454-.519-3.266.679-6.156 3.5-7.926 2.55-1.611 5.79-.923 7.897 1.068 2.668 2.513 1.198 7.585-1.848 8.619-1.15.393-2.343-.285-3.4-1.385-1.715-1.785-4.254 1.075-2.559 2.839 3.678 3.825 8.768 2.745 11.528-1.458 2.869-4.362 1.37-9.858-2.766-12.686-6.099-4.184-13.849-.186-15.94 6.335-1.019 3.183-.09 6.936 1.42 9.797 1.509 2.862 4.26 5.013 7.153 6.335 10.262 4.727 19.83-1.354 29.545-4.528-.256-1.215-.715-2.405-1.218-3.587z" fill="#C93F28"/><path d="M109.664 118.07c-.245-2.646-1.58-20.38-2.14-21.653-.68-1.544-1.458.181-2.596-1.02-3.287-.449-6.569-.908-9.825-1.494a93.07 93.07 0 01-6.633-1.44 3.64 3.64 0 00-.755 1.146c-1.62 3.765-6.195 18.857-6.482 20.063a153.497 153.497 0 00-2.017 9.806c-.468 2.648-.8 5.367-.58 8.071.224 2.568 1.111 5.183 2.696 7.242 7.779 7.486 15.838 5.491 17.259 5.006 2.865-.959 5.479-2.953 7.298-5.336 4.456-5.83 4.432-13.442 3.775-20.391zM93.987 79.79c1.155 1.55 5.431 4.012 10.083 1.464-.967 3.45-3.208 6.217-5.566 6.13-1.973-.088-4.289-1.907-4.517-7.595z" fill="#C93F28"/><path d="M63.381 173.517c-.759-5.172-2.007-10.222-3.874-14.874-.55-1.365.015-2.906.841-2.724a.664.664 0 01.706.145c3.835 3.413 7.8 7.824 9.938 14.08.562 1.631-.752 3.035-1.633 1.873a30.918 30.918 0 01-1.133-1.638c.15.72.255 1.447.31 2.167.108 1.7-1.154 2.621-1.942 1.074a42.666 42.666 0 01-1.035-2.198c.046.771.064 1.544.037 2.326-.07 1.995-1.925 1.723-2.215-.231zm36.022 7.663c-2.01-4.835-4.453-9.415-7.416-13.474-.871-1.185-.693-2.82.142-2.853.194-.137.453-.165.722-.025 4.547 2.371 9.483 5.671 13.088 11.202.944 1.435.017 3.125-1.119 2.211-.501-.402-1-.843-1.501-1.313.327.657.604 1.333.831 2.031.527 1.615-.484 2.818-1.622 1.521a44.764 44.764 0 01-1.54-1.876c.242.73.445 1.485.608 2.237.432 1.973-1.443 2.171-2.194.339z" fill="#F97D73"/><path d="M107.697 96.981c-1.3 3.23-2.004 7.064-1.319 10.455.361 1.751 1.039 3.526 2.241 4.836 1.512 1.646 3.356 2.501 5.553 2.875 1.67.29 3.512.105 5.214-.398.017-.007.029-.002.045-.009 1.968-.255 3.899-1.469 5.371-2.794l.607-.566c.23.985.698 1.893 1.235 2.733 1.354 2.154 3.901 3.126 6.281 3.618 4.798.986 10.612-1.527 13.161-5.942 1.707-2.962 2.489-6.654 1.635-9.938-.215-.856-.457-1.682-.888-2.45-.61-1.09-1.195-1.815-2.1-2.659-1.202-1.147-2.777-1.697-4.381-2.014-3.032-.601-6.454.644-8.779 2.732-.048.049-.107.092-.155.14-.045-1.687-.413-3.386-1.16-4.834-1.049-2.067-2.751-3.915-4.73-5.1-1.984-1.174-4-1.65-6.341-1.483-1.863.135-3.616 1.055-5.14 2.111-2.959 2-5.053 5.43-6.35 8.687z" fill="#773C15"/><path d="M176.898 115.531c-.501-.306-24.322-6.627-35.517-9.584a57.876 57.876 0 01-.957 3.195l35.411 10.1c.005-.011 1.717-3.313 1.063-3.711z" fill="#000"/><path d="M68.081 56.35a6.194 6.194 0 00-.106-.66c.238-1.678-.135-3.694-1.23-5.029-4.253-5.16-11.326-9.205-18.092-6.64-1.92.726-3.743 2.108-4.974 3.74-1.465 1.928-2.186 3.841-2.83 6.128-.825 2.95-.088 6.868 1.967 9.18 1.332 1.487 2.085 2.104 3.843 3.1.993.568 2.228.853 3.287 1.133a9.16 9.16 0 001.856.272c1.231.065 2.484.111 3.719-.027 1.845-.225 3.797-.705 5.452-1.584 2.124-1.12 4.243-2.42 5.59-4.493.323-.508.629-1.009.95-1.516a7.126 7.126 0 00.568-3.605z" fill="#C93F28"/><path d="M67.522 56.347c-.008-.7-.364-1.547-.79-2.095a4.666 4.666 0 00-1.499-1.257 3.466 3.466 0 00-1.938-1.086l-.39-.082c-1.213-.467-2.24-1.28-3.468-1.713a12.894 12.894 0 00-3.22-.707c-2.638-.231-5.192.052-7.532 1.327-2.674 1.45-3.417 4.789-2.21 7.456.313.691.7 1.4 1.175 1.996.617.778 1.167 1.132 2.004 1.647.944.587 2.149.846 3.23 1.04 2.374.407 4.95.297 7.304-.193 1.2-.25 2.418-.545 3.523-1.094 1.068-.523 2.26-1.213 2.925-2.246.607-.99.897-1.812.886-2.993z" fill="#F97D73"/><path d="M141.16 72.013c.027.23.059.448.107.66-.25 1.672.134 3.693 1.23 5.028 4.252 5.16 11.325 9.205 18.091 6.64 1.919-.726 3.744-2.108 4.975-3.74 1.465-1.928 2.185-3.841 2.829-6.128.826-2.95.088-6.868-1.978-9.184-1.332-1.488-2.086-2.105-3.843-3.102-.994-.567-2.228-.852-3.288-1.132a9.15 9.15 0 00-1.855-.272c-1.232-.065-2.484-.111-3.719.027-1.845.225-3.798.705-5.464 1.58-2.124 1.119-4.242 2.419-5.591 4.492-.322.508-.628 1.009-.95 1.516a7.298 7.298 0 00-.544 3.615z" fill="#C93F28"/><path d="M141.72 72.015c.012.69.364 1.547.791 2.096.427.548.929.95 1.498 1.257.494.549 1.165.94 1.938 1.086.126.025.264.056.39.081 1.213.468 2.24 1.281 3.468 1.714 1.048.37 2.11.61 3.219.707 2.628.226 5.193-.052 7.533-1.327 2.674-1.45 3.417-4.79 2.209-7.456-.312-.692-.698-1.4-1.174-1.996-.617-.779-1.167-1.132-2.004-1.648-.944-.587-2.149-.846-3.23-1.04-2.374-.406-4.951-.297-7.304.193-1.199.25-2.418.546-3.523 1.094-1.068.523-2.26 1.213-2.926 2.247-.618.985-.896 1.812-.885 2.992z" fill="#F97D73"/><path d="M146.303 65.063a27.727 27.727 0 00-.43-4.816c-.351-2.034-.817-4.089-1.518-6.038-.695-1.932-1.69-3.703-2.675-5.497a32.997 32.997 0 00-2.5-3.892c-1.279-1.712-2.765-3.292-4.306-4.772-1.559-1.502-3.361-2.653-5.232-3.738-2.348-1.97-18.032-6.425-21.609-6.407-3.806-.515-7.689-.652-11.521-.55-3.664.091-7.148.668-10.672 1.734-3.537 1.06-6.916 2.857-9.981 4.881-3.108 2.061-5.952 4.67-8.37 7.499-2.369 2.78-4.409 6.014-5.764 9.411-3.01 7.475-3.228 16.217.566 23.483 1.025 1.96 2.102 3.862 3.474 5.613 1.304 1.654 2.788 3.206 4.32 4.641 2.684 2.507 5.873 4.527 9.099 6.262 3.414 1.842 7.045 3.036 10.754 4.14a53.296 53.296 0 009.529 1.875c3.833.417 7.74.496 11.584.234 3.676-.25 7.273-.998 10.826-1.97 3.742-1.029 7.331-2.738 10.576-4.864 1.776-1.17 3.351-2.643 4.856-4.145 1.442-1.447 2.488-3.127 3.559-4.866.397-.654.76-1.323 1.064-2.016a27.451 27.451 0 001.965-3.579c.856-1.91 1.452-3.985 1.898-6.027.471-2.168.486-4.39.508-6.597z" fill="#C93F28"/><path d="M138.739 66.499c-.406-7.158-5.408-13.466-11.806-16.38-3.419-1.57-7.203-2.104-10.942-1.867-4.121.27-7.979 1.837-11.538 3.832a26.426 26.426 0 00-3.805 2.617c-1.03-1.854-2.23-3.396-3.786-4.937-1.374-1.356-3.116-2.455-4.865-3.243-2.302-1.034-4.61-1.372-7.09-1.427-4.094-.09-8.311 1.78-11.397 4.41-3.049 2.606-5.118 5.813-5.974 9.747-.717 3.31-.154 6.828.884 9.997.993 3.015 2.69 5.886 4.584 8.417a40.963 40.963 0 006.924 7.141c2.391 1.933 5.079 3.647 7.916 4.81 3.023 1.24 6.376 1.92 9.604 2.412 3.564.537 7.212.713 10.812.608 7.02-.201 14.192-2.035 20.037-6.025 6.574-4.491 10.894-12.088 10.442-20.112z" fill="#F97D73"/><path d="M104.844 74.058c.042-1.993-.886-4.446-3.011-5.022-1.439-.385-2.376.412-2.93 1.506-.526-1.095-1.38-1.96-2.734-1.994-2.057-.055-3.077 2.443-3.293 4.102-.115.828 1.166 1.036 1.28.21.155-1.153.666-2.894 2.06-3.02 1.478-.133 1.954 2.254 2.083 3.252.092.695 1.234.777 1.286.033.068-1.01.438-3.33 1.993-2.829 1.555.501 2.021 2.488 1.998 3.914-.03.822 1.266.668 1.268-.152z" fill="#C93F28"/><path d="M102.736 72.887a2.103 2.103 0 00-.656-1.437.665.665 0 00-.459-.179c-.35-.078-.774.086-.909.44-.22.59-.379 1.263-.162 1.887.238.674 1.03 1.102 1.664.698.478-.292.549-.919.522-1.409zm-5.546-.314a2.07 2.07 0 00-.323-1.545.726.726 0 00-.403-.278c-.328-.165-.781-.095-.986.23-.348.537-.646 1.15-.575 1.796.087.706.766 1.306 1.473 1.055.518-.193.722-.777.815-1.258z" fill="#000"/><path d="M87.75 36.222c-4.048-.426-8.073 2.454-9.644 6.103-.694 1.623 1.79 2.746 2.479 1.135 1.067-2.48 3.889-4.838 6.73-4.535 1.748.172 2.19-2.515.436-2.703zm43.208 10.949c-1.723-3.69-6.254-5.671-10.188-5.132-1.742.24-1.442 2.95.301 2.71 2.679-.354 6.141.852 7.354 3.439.74 1.595 3.273.579 2.533-1.017z" fill="#AF2F1E"/><path d="M115.311 23.41a1.15 1.15 0 00-1.757-1.16c-1.662 1.025-2.894 2.464-3.877 4.09.05-1.456.129-3.146-.537-4.396-.343-.65-1.054-.88-1.737-.687-.976.274-1.176 1.599-1.267 2.436-.07.722-.084 1.441-.075 2.17-.681-1.64-1.41-3.326-3.146-4.081-.53-.236-1.289-.09-1.526.508-1.013 2.611-.485 5.595 1.255 7.774 1.352 1.702 3.517 3.62 5.75 3.121.201.044.426.029.662-.078 3.584-1.629 5.667-5.979 6.255-9.697z" fill="#C93F28"/><path d="M102.014 112.266c-1.631-2.735-4.144-4.8-7.54-4.269-3.005.477-4.904 3.181-6.231 5.66-1.23 2.315-1.913 4.955-2.336 7.595a28.56 28.56 0 00-.768 4.149c-.278 2.523-.103 5.207.908 7.559 1.18 2.765 3.705 4.835 6.69 5.252 3.156.435 5.98-1.8 7.535-4.334 1.387-2.263 2.075-4.654 2.667-7.209 1.077-4.69 1.654-10.081-.925-14.403z" fill="#F97D73"/><path d="M83.059 58.8c-.357 1.765-1.529 4.528-3.448 5.09-1.059.309-2.004-.375-2.67-1.133-.949-1.067-1.24-2.721-1.124-4.108.126-1.41-2.07-1.62-2.185-.205-.305 3.468 1.93 8.22 6.055 7.68 3.184-.415 5.001-4.358 5.568-7.114.28-1.387-1.91-1.58-2.196-.21zm44.169 6.374c-.357 1.765-1.529 4.528-3.447 5.09-1.06.309-2.004-.375-2.671-1.133-.948-1.067-1.24-2.72-1.124-4.108.126-1.41-2.07-1.62-2.185-.205-.305 3.469 1.931 8.22 6.056 7.68 3.184-.416 5-4.358 5.568-7.114.28-1.387-1.921-1.585-2.197-.21zM115.34 79.402c-9.116 6.734-23.608 5.212-31.131-3.275-.539-.608-1.503.191-.965.8 7.988 9.01 23.22 10.595 32.891 3.45.657-.49-.143-1.454-.795-.975z" fill="#000"/><path d="M106.451 125.926L150.56 96.97l.243 1.346-43.419 28.712-.933-1.102z" fill="#947678"/><path d="M109.071 123.072c.021-1.386-1.142-2.625-2.55-2.628a81.187 81.187 0 01-7.874-.374 61.653 61.653 0 01-2.245-.258c-.325-.04-.645-.092-.97-.133-.091-.011-.206-.031-.257-.039-.257-.04-.514-.079-.766-.13a47.657 47.657 0 01-4.765-1.068 34.607 34.607 0 01-2.189-.685 16.87 16.87 0 01-1.05-.399l-.512-.215-.105-.044a2.882 2.882 0 01-.093-.039 19.26 19.26 0 01-1.87-.989c-.294-.178-.572-.363-.862-.553l-.41-.295c-.065-.04-.215-.172-.322-.244a13.55 13.55 0 01-1.18-1.165 6.736 6.736 0 01-.301-.358 9.953 9.953 0 01-.534-.881c-.06-.12-.24-.538-.292-.642a6.012 6.012 0 01-.176-.689c-.009-.044-.013-.101-.023-.173a3.211 3.211 0 01-.011-.333c0-.164.005-.34.017-.499.006-.079.038-.285.052-.416a9.37 9.37 0 01.47-1.512c.034-.081.107-.256.148-.321a16.843 16.843 0 01.866-1.51 21.038 21.038 0 011.538-2.104c.136-.161.272-.323.42-.48.32-.372.663-.734 1.002-1.084 1.876-1.962 3.945-3.733 6.028-5.472a11.245 11.245 0 01-2.752-1.331c-.58-.38-1.133-.79-1.696-1.176a4.676 4.676 0 01-.365-.208c-1.658 1.41-3.274 2.853-4.78 4.422-2.47 2.562-4.885 5.583-5.781 9.09-.884 3.445.227 6.768 2.522 9.385 2.119 2.42 5.13 3.915 8.084 5.03 3.66 1.384 7.567 2.051 11.427 2.534 3.164.383 6.359.56 9.548.557 1.401-.014 2.593-1.128 2.609-2.571z" fill="#B73321"/><path d="M113.494 124.01c-1.624-.174-3.064-.915-4.439-1.779 1.572-.421 3.201-.49 4.75.187 1.049.467 1.52-1.113.757-1.707-1.199-.926-2.947-1.194-4.425-1.226-1.222-.02-2.698.237-3.623 1.107-1.543.611-1.782 2.945-1.049 4.36.923 1.781 3.097 3.185 5.086 3.335 1.086.086 1.255-1.525.279-1.838-1.145-.371-2.578-1.423-3.058-2.691 1.685 1.267 3.434 2.315 5.677 2.12l.012.005c.084-.005.157-.016.241-.021 1.139-.138.776-1.754-.208-1.852z" fill="#F97D73"/><path d="M170.598 112.316l-1.92 6.278 9.294 3.185 2.832-7.44-10.206-2.023z" fill="#773C15"/><path d="M124.951 101.507a3.598 3.598 0 00-.625-1.478 11.54 11.54 0 00-.308-.472c-.342-.457-.94-.859-1.462-1.05-.777-.299-1.055-.224-1.866-.18l-.881.273c-.56.257-1.02.639-1.382 1.143-.141.269-.293.534-.433.803a3.6 3.6 0 00-.18 1.866c.037.303.204.688.328 1.013.164.26.322.504.486.764a.417.417 0 00.086.091c.018.021.031.054.05.076.569.731 1.475 1.179 2.381 1.271a3.578 3.578 0 002.587-.788 3.555 3.555 0 001.272-2.38 12.92 12.92 0 01-.053-.952z" fill="#000"/><path d="M84.746 72.073a4.86 4.86 0 00-3.143-1.933 4.863 4.863 0 00-3.585.849 4.854 4.854 0 00-1.933 3.141l-.049.28a4.826 4.826 0 00.851 3.584 4.86 4.86 0 003.143 1.933 4.863 4.863 0 003.585-.849 4.831 4.831 0 001.927-3.13l.05-.28a4.818 4.818 0 00-.846-3.595zm36.84 5.353a4.86 4.86 0 00-3.144-1.933l-.28-.05a4.827 4.827 0 00-3.584.85 4.799 4.799 0 00-1.933 3.141 4.86 4.86 0 00.851 3.584 4.86 4.86 0 003.143 1.933l.28.049a4.829 4.829 0 003.585-.85 4.852 4.852 0 001.932-3.14 4.859 4.859 0 00-.85-3.584z" fill="#FF3E5F"/><path d="M173.061 110.423c-1.02-.113-1.226 1.359-.364 1.652-.105.804-.198 1.613-.143 2.429.022.241.391.177.369-.064-.058-.777.049-1.552.139-2.322.945-.068 1.03-1.577-.001-1.695zm3.297.26c-.984-.098-1.21 1.257-.452 1.602-.158.604-.338 1.198-.472 1.812-.058.235.323.272.381.036.136-.585.3-1.173.464-1.76 1.014.028 1.144-1.585.079-1.69zm2.899.395c-.957-.1-1.203 1.205-.487 1.587-.275.623-.467 1.309-.714 1.93-.092.221.262.356.354.135.257-.645.448-1.33.728-1.965 1.046.083 1.195-1.578.119-1.687zm-8.364 6.572c-.319.727-.556 1.489-.817 2.242-1.088-.115-1.251 1.581-.163 1.695.945.095 1.188-1.17.522-1.572.256-.741.493-1.503.807-2.219.102-.244-.245-.362-.349-.146zm2.262 3.218c.134-.71.227-1.423.377-2.139.046-.241-.323-.273-.381-.037-.147.677-.231 1.366-.349 2.041-.44-.061-.917.163-.975.726l-.003.04c-.114 1.087 1.582 1.251 1.696.164l.003-.039a.798.798 0 00-.368-.756zm3.193 1.065a1.015 1.015 0 00-.328-.261c.02-.702.069-1.407.074-2.102.006-.244-.375-.28-.382-.037.001.684-.05 1.36-.073 2.034-.192.002-.39.083-.558.19-.227.151-.31.445-.349.702-.054.455.302.878.763.921a.88.88 0 00.652-.219c.022-.018.055-.031.076-.05.361-.273.447-.838.125-1.178z" fill="#000"/></svg>