<svg width="185" height="196" fill="none" xmlns="http://www.w3.org/2000/svg"><path d="M116.354 86.947c.039 4.569-1.568 8.66-4.144 12.067-1.752 2.316-4.105 4.29-6.746 5.563-.717.346-1.441.498-2.286.243a3.639 3.639 0 01-1.94-1.434c-.909-1.365-.742-3.44.666-4.117a16.717 16.717 0 003.018-1.895 18.204 18.204 0 002.985-3.282 17.47 17.47 0 001.832-3.76 16 16 0 00.597-3.37 14.506 14.506 0 00-.272-2.886 14.5 14.5 0 00-.915-2.521 16.529 16.529 0 00-1.661-2.467 17.484 17.484 0 00-.714-.754c-.624-.624-1.005-1.419-1.09-2.194 1.007-.768 2.696-.343 3.762.545l.153.13c.051.043.098-.022.061-.062l-.152-.13c-.987-.898-1.365-2.14-1.491-3.372a3.167 3.167 0 012.562.911c1.907 1.911 3.4 4.06 4.452 6.498.863 1.985 1.3 4.203 1.323 6.287z" fill="#FF8585"/><path d="M95.995 92.526l-.18-.175c.064.085.146.159.219.238l-.039-.063zm-.64-.898c.05.082.104.172.162.248l-.163-.271c-.006-.01-.011-.018-.026-.022l.027.045z" fill="#FFAEAE"/><path d="M66.843 162.808a3.102 3.102 0 01-.914-1.535c.75-.169 1.578-.149 2.432.1.68.207 2.23 1.037 1.448 1.991-.787.968-2.375.013-2.966-.556zm28.985-6.549c17.101-8.009 21.484-14.603 23.299-19.29 3.309-7.452.5-16.101-.323-18.407-1.779-5.037-4.895-9.588-8.881-13.207-2.566-2.328-12.816-11.438-13.2-11.787a6.318 6.318 0 01-.525-.707c-.4-.315-6.424-7.64-.312-12.452 2.743-1.185 5.265-3.003 7.502-4.883a4.39 4.39 0 00.996-1.194l.217-.316c1.233-1.867 1.03-4.25-.87-5.474a3.499 3.499 0 00-.72-.356c.455-.842.731-1.613.591-2.602a3.6 3.6 0 00-1.643-2.54c-.3-.19-.63-.348-.975-.448a3.824 3.824 0 00-.444-.634c-1.01-1.143-2.61-1.523-4.14-1.131-2.968 2.47-6.478 4.328-10.374 4.197-3.818-.128-6.147-2.698-8.667-4.992-.074-.042-.154-.092-.238-.128a9.357 9.357 0 00-2.199-1.537c-2.102-1.028-4.061-1.636-6.441-1.978-.14-.026-.283-.039-.432-.06 3.301-1.918 6.508-3.89 8.085-7.52 1.334-3.05 1.272-6.284.207-9.258-.98-2.73-2.74-5.359-5.377-6.804-.407-.224-.9-.222-1.287.098-6.817 5.569-9.17 15.629-6.305 23.306-1.97.09-3.95.37-5.825.823-3.607.88-7.208 2.361-9.975 4.92a18.56 18.56 0 00-3.299 3.989c-.074-.041-.145-.097-.22-.139-.963 1.433-1.588 3.057-1.996 4.673-.105.421-.204.851-.288 1.284.08-.01.156-.007.236-.018-.563 2.771-.374 5.706.185 8.393.638 3.084 1.663 6.094 2.88 8.99.356.858.732 1.705 1.107 2.553.505 1.757 1.042 3.506 1.57 5.262.68 2.355 1.236 4.71 1.587 7.115.013.041.022.097.035.139.565 2.288.835 4.68 1.087 7.022.255 2.389.46 4.796.536 7.194a79.506 79.506 0 01-.037 5.219c.056.953.127 1.91.198 2.867.484 5.88 1.58 11.687 4.264 16.894 2.51 4.856 6.518 9.004 11.299 11.933.218.116.441.24.668.35-1.128.669-2.076 1.636-2.643 2.805a5.491 5.491 0 00-.561 2.079c-1.857.873-2.612 2.365-2.786 4.717-.065.915.86 1.221.92.296a4.652 4.652 0 012.038-3.562c.056.176.13.341.22.509.703 1.329 2.243 2.695 3.955 2.749 1.299.044 2.746-.731 2.875-2.092.155-1.525-1-2.742-2.52-3.072a7.78 7.78 0 00-3.055-.07c.263-1.529 1.527-2.995 3.133-3.569 2.918 1.338 6.026 2.314 9.347 2.742 5.193 1.423 10.646-.756 11.224-.759a40.503 40.503 0 006.297-2.132z" fill="#FFAEAE"/><path d="M88.526 71.567c-.123-2.271.473-4.272 1.765-6.163 1.173-1.72 2.733-2.982 4.51-4.029 3.031-1.791 6.914-1.579 9.691.363.453.22.924.467 1.305.792.99.823 1.321 1.29 2.009 2.368.666 1.043.746 2.24.765 3.439.018 1.236-.533 2.309-1.095 3.364-.677 1.272-1.871 2.363-3.075 3.151-2.818 1.86-6.003 3.09-9.429 2.652-3.081-.4-6.268-2.551-6.446-5.937z" fill="#EB5757"/><path d="M73.429 67.566a3.059 3.059 0 01-.651-.916 3.073 3.073 0 01-.24-.806c-.005-.01-.001-.024-.012-.042a.08.08 0 00-.004-.047 2.22 2.22 0 01-.028-.353c-.004-.047.007-.09.003-.138-.002-.085.01-.167.014-.243.006-.053.01-.105.025-.163.013-.082.025-.163.052-.242l.033-.13c.038-.122.07-.252.131-.376.338-.833 1.018-1.527 1.864-1.926.105-.051.215-.093.326-.135l.125-.038c.726-.229 1.508-.244 2.214-.015.214.068.437.13.657.208 1.444.45 2.288 1.829 2.168 3.247.008.156-.008.313-.024.471-.113.858-.579 1.682-1.283 2.255-.5.4-1.066.668-1.697.79-.841.161-1.871.03-2.541-.467-.202-.15-.39-.32-.574-.48a3.278 3.278 0 01-.558-.454zm-18.581 8.482a4.236 4.236 0 01.279-2.18c.182-.332.364-.665.561-.993.327-.543 1.062-1.085 1.658-1.408.455-.25.938-.43 1.457-.533a4.55 4.55 0 012.268.137c.672.15 1.453.729 1.867 1.232.058.076.12.137.173.204.51.58.82 1.258.938 2.026.162 1.088-.146 2.236-.836 3.159a4.91 4.91 0 01-1.814 1.477c-.054.032-.114.056-.168.089-1.089.508-2.32.597-3.42.248a4.079 4.079 0 01-2.035-1.45c-.595-.679-.712-1.139-.928-2.008z" fill="#EF9292"/><path d="M66.573 55.853s-.896-16.47 4.96-18.225c5.867-1.76 6.14 13.8-4.96 18.225z" fill="#FFE9E9"/><path d="M39.744 53.017c-2.61-1.623-5.499-2.83-8.426-3.854a74.008 74.008 0 00-4.077-1.293 1.388 1.388 0 00-.914.082c-.147 1.496-.592 2.95-.768 4.438-.052.426-.05.858-.04 1.284.012.51.024 1.022.068 1.526.073.98.207 1.96.402 2.917a28.716 28.716 0 001.736 5.581c.698 1.628 1.518 3.232 2.696 4.57 1.158 1.327 2.645 2.441 4.33 3.104 1.415.566 2.955.784 4.52.717a17.138 17.138 0 003.05-.409c1.408-.553 2.826-1.21 3.983-2.18.39-.335.52-.857.409-1.308.25-.793.428-1.604.53-2.418.104-.829.097-1.64.037-2.455-.104-1.443-.566-2.843-1.23-4.108-1.383-2.598-3.757-4.61-6.306-6.194z" fill="#FFAEAE"/><path d="M44.484 69.204c.27-.126-7.607-20-13.803-16.78-6.196 3.219 3.4 21.623 13.803 16.78z" fill="#FFE9E9"/><path d="M101.524 69.243c-1.472-.618-1.673-2.138-2.245-3.434-.25-.578.01-1.253.582-1.512.311-.139.66-.114.95.02.218.053.421.165.594.37.325.395.568.94.817 1.395.339.623.663 1.242.84 1.925.223.84-.792 1.552-1.538 1.236zM96.29 73.34c-1.379-.934-2.278-2.712-2.065-4.384.061-.431.316-.807.687-.97l.073-.043a1.159 1.159 0 011.53.509c.655 1.27 1.49 2.532 1.531 4.013.04.865-1.1 1.33-1.757.875z" fill="#2D1623"/><path d="M111.71 119.126a23.452 23.452 0 00-2.511-3.077c-1.885-1.937-4.206-3.696-6.866-4.523a10.228 10.228 0 00-4.215-.395c-1.46.178-2.781.814-3.958 1.647a8.137 8.137 0 00-1.153 1.016 2.35 2.35 0 00-.485.527.598.598 0 00-.086.102 7.907 7.907 0 00-1.658 3.025c-.493 1.68-.517 3.422-.24 5.131.019.766.066 1.54.144 2.283.174 1.784.56 3.55 1.117 5.251.614 1.877 1.35 3.691 2.404 5.376.553.876 1.142 1.73 1.826 2.515.647.745 1.392 1.407 2.166 2.014 1.49 1.162 3.307 1.88 5.201 2.133 1.937.263 3.898-.192 5.726-.825 1.357-.473 2.681-1.247 3.709-2.225 2.101-1.984 3.17-4.715 3.213-7.53.048-2.93-.744-5.798-1.974-8.45-.67-1.398-1.485-2.708-2.36-3.995z" fill="#FFE9E9"/><path d="M57.072 86.593a3.816 3.816 0 01.195-2.093c.32-.922.973-1.723 1.88-2.146.854-.405 1.14-.38 2.044-.418.703-.042 1.297.328 1.894.622.178.09.334.206.472.332.233.18.453.381.718.616.458.514.756 1.112.887 1.798a3.814 3.814 0 01-.553 2.79c-.901 1.37-2.671 2.02-4.237 1.532a3.901 3.901 0 01-1.67-.598 3.854 3.854 0 01-1.63-2.436z" fill="#EB5757"/><path d="M56.19 76.225a.716.716 0 01.353-.275c1.28.956 3.046 1.2 4.493.364.793-.466 1.346-1.146 1.77-1.957.268-.52.587-1.218.5-1.832a.452.452 0 01.191.07c.978.188.926 1.268.74 2.046a6.078 6.078 0 01-1.332 2.582c-1.653 1.886-4.744 1.368-6.524-.027-.289-.233-.411-.64-.19-.971zm16.097-9.797c1.236.514 2.652.671 3.908.358.944-.236 1.864-.717 2.37-1.578.443-.76.602-1.684.225-2.493.35-.137 1.257 1.142 1.296 1.575.288.765.415 1.59.196 2.413-.234.882-.998 1.54-1.842 1.84-1.957.686-4.35.118-5.97-1.115-.045-.034-.096-.077-.141-.112-.287-.27-.236-.635-.042-.888z" fill="#2D1623"/><path d="M74.481 85.767c.363-.688 1.066-1.222 1.845-1.26.321-.021.572.333.553.629-.018.257-.172.412-.37.494.037.04.07.094.088.145.473 1.171 1.077 2.152 1.907 3.058.764.836 1.753 1.535 2.816 1.66.57.063 1.074-.044 1.586-.279a4.158 4.158 0 001.68-1.433c.896-1.318.802-3.051.838-4.567.006-.052.007-.09.018-.134a.133.133 0 00-.049.042c-.577.496-1.368-.384-.79-.88 1.078-.935 2.503-.437 3.28.625.19.255.213.6-.053.834-.227.198-.647.218-.834-.052-.059-.076-.117-.152-.184-.222-.045 1.705-.074 3.439-.95 4.955-.828 1.412-2.421 2.435-4.064 2.537-2.81.153-4.986-2.472-6.124-4.748a7.848 7.848 0 01-.288-.64c-.185.184-.52.202-.74.063-.276-.192-.313-.54-.165-.826z" fill="#BF3741"/><path d="M93.1 183.467c-1.468-.756-2.209-2.74-2.618-4.259-.028-.106-.186-.061-.23.028-.864 1.62-2.826 3.137-4.593 2.869.094-.13.197-.267.286-.407.34-.624.624-1.277.857-1.936.412-1.446.634-2.9.743-4.337.11-2.621-.09-5.204-.594-7.677-.16-.594-.372-1.17-.57-1.743a54.82 54.82 0 00-.745-2.117c-.473-1.233-1-2.434-1.626-3.574a15.666 15.666 0 00-1.964-2.58c-1.3-1.376-.66-3.96 1.015-5.34.85-.698 1.905-1.1 2.911-1.09 1.063.001 1.847.441 2.494 1.125 1.734 1.83 2.992 4.12 3.998 6.463.948 2.206 1.754 4.546 2.235 6.959.72 3.59.841 7.454.3 11.286a21.717 21.717 0 01-1.578 5.593 4.673 4.673 0 01-.32.737zm28.533-13.46c-1.646-.007-3.211-1.433-4.267-2.611-.073-.079-.192.03-.194.13-.039 1.838-1.095 4.079-2.796 4.637l.075-.49a14.46 14.46 0 00-.115-2.115c-.283-1.471-.745-2.872-1.301-4.202a32.3 32.3 0 00-4.007-6.582c-.411-.455-.861-.875-1.294-1.305a49.45 49.45 0 00-1.626-1.549 29.41 29.41 0 00-3.068-2.445 15.32 15.32 0 00-2.915-1.414c-1.782-.641-2.38-3.23-1.513-5.21.442-1.007 1.202-1.836 2.109-2.297.949-.473 1.843-.445 2.736-.132 2.377.85 4.533 2.314 6.493 3.946 1.853 1.536 3.63 3.254 5.154 5.186 2.267 2.878 4.124 6.263 5.381 9.924a21.923 21.923 0 011.13 5.7c.013.288.016.558.018.829z" fill="#FFAEAE"/><path d="M68.276 96.053l74.453-34.003 1.333 2.64L69.32 99.175l-1.044-3.123z" fill="#FFE9E9"/><path d="M100.845 96.02c-2.058 4.08-5.377 6.971-9.23 8.814-2.628 1.252-5.612 1.916-8.55 1.837-.788-.018-1.501-.218-2.142-.831a3.584 3.584 0 01-1.064-2.172c-.181-1.631.917-3.393 2.486-3.351a17.04 17.04 0 003.553-.292 18.05 18.05 0 004.156-1.545 17.409 17.409 0 003.36-2.496c.78-.816 1.476-1.73 2.085-2.726.44-.846.816-1.74 1.087-2.68.192-.87.312-1.756.35-2.656a16.434 16.434 0 00-.348-2.95c-.087-.33-.18-.668-.283-1.002-.266-.851-.236-1.721.038-2.454 1.255-.214 2.555.94 3.097 2.205.023.06.053.129.076.188.024.06.102.025.078-.034-.023-.06-.053-.129-.076-.189-.46-1.253-.229-2.528.235-3.684a3.193 3.193 0 011.864 1.986c.817 2.58 1.145 5.172.96 7.814-.167 2.2-.797 4.37-1.732 6.217z" fill="#FF8585"/><path d="M126.761 69.276c.318.425.334 1.106-.285 1.43-.661.338-1.237-.166-1.325-.743a15.894 15.894 0 001.61-.687zm-7.826 3.609a.92.92 0 01.145.876.947.947 0 01-1.186.592.701.701 0 01-.127-.047.924.924 0 01-.584-.598 41.256 41.256 0 011.752-.823zm-7.098 3.258a.66.66 0 00.022.037.944.944 0 01-.427 1.257l-.087.04a.952.952 0 01-1.258-.426c-.023-.06-.053-.129-.067-.194.598-.237 1.205-.48 1.817-.714zm-7.345 3.221c.508.372.646 1.276-.098 1.639-.726.352-1.326-.274-1.327-.89.472-.26.95-.512 1.425-.749z" fill="#2D1623"/></svg>