<svg width="185" height="196" fill="none" xmlns="http://www.w3.org/2000/svg"><path d="M116.347 87.574c.04 4.563-1.565 8.65-4.14 12.051-1.752 2.313-4.104 4.285-6.744 5.555-.717.346-1.44.498-2.286.243a3.648 3.648 0 01-1.94-1.434c-.91-1.363-.743-3.437.665-4.112a16.706 16.706 0 003.017-1.892 18.18 18.18 0 002.984-3.277 17.478 17.478 0 001.831-3.754c.316-1.091.516-2.21.595-3.368a14.473 14.473 0 00-.272-2.882 14.41 14.41 0 00-.916-2.518 16.508 16.508 0 00-1.661-2.465 18.71 18.71 0 00-.715-.753c-.623-.623-1.004-1.417-1.09-2.192 1.007-.767 2.696-.341 3.762.545l.153.13c.051.044.098-.022.061-.061l-.152-.13c-.987-.898-1.365-2.138-1.492-3.369a3.173 3.173 0 012.563.91c1.906 1.91 3.4 4.056 4.452 6.493.865 1.982 1.302 4.198 1.325 6.28zM95.99 93.143l-.18-.175c.064.085.145.16.218.239l-.038-.064zm-.64-.896c.049.081.104.171.162.248l-.164-.272c-.005-.009-.011-.018-.025-.022l.027.046z" fill="#E1E1E1"/><path d="M66.856 163.34a3.101 3.101 0 01-.914-1.533 4.848 4.848 0 012.431.101c.68.207 2.23 1.036 1.448 1.988-.786.967-2.375.013-2.965-.556zm28.98-6.533c17.096-7.995 21.476-14.579 23.291-19.261 3.306-7.442.495-16.082-.329-18.385-1.78-5.031-4.897-9.578-8.884-13.194-2.565-2.326-12.817-11.428-13.2-11.777a6.301 6.301 0 01-.526-.706c-.4-.314-6.426-7.634-.316-12.437 2.743-1.184 5.264-2.998 7.5-4.876.418-.35.75-.76.996-1.192l.217-.316c1.232-1.864 1.028-4.244-.871-5.468a3.531 3.531 0 00-.721-.355c.455-.84.73-1.611.59-2.6a3.6 3.6 0 00-1.643-2.536c-.3-.19-.63-.348-.975-.449a3.824 3.824 0 00-.444-.632c-1.011-1.142-2.611-1.523-4.14-1.131-2.968 2.466-6.477 4.32-10.371 4.188-3.819-.128-6.148-2.696-8.668-4.988-.074-.041-.154-.092-.238-.128a9.363 9.363 0 00-2.2-1.536c-2.101-1.027-4.06-1.634-6.44-1.976-.14-.027-.283-.04-.432-.061 3.3-1.914 6.506-3.883 8.082-7.508 1.332-3.047 1.27-6.277.204-9.248-.98-2.726-2.74-5.353-5.378-6.797-.407-.224-.9-.223-1.287.097-6.814 5.56-9.165 15.608-6.297 23.277-1.97.09-3.95.37-5.825.82-3.606.879-7.207 2.357-9.972 4.911a18.527 18.527 0 00-3.298 3.984c-.074-.041-.145-.097-.22-.139-.962 1.431-1.587 3.053-1.995 4.668-.104.42-.203.85-.287 1.282.08-.01.156-.007.236-.018-.563 2.768-.372 5.699.188 8.383.638 3.08 1.664 6.087 2.88 8.98.358.857.734 1.703 1.11 2.55.504 1.755 1.042 3.503 1.57 5.257.68 2.352 1.237 4.704 1.59 7.106.012.042.021.098.034.14.566 2.285.837 4.675 1.089 7.014.256 2.386.461 4.79.538 7.185a79.32 79.32 0 01-.036 5.213c.057.953.128 1.908.2 2.864.485 5.873 1.582 11.674 4.267 16.875 2.51 4.851 6.52 8.995 11.301 11.923.218.115.441.24.668.35-1.128.667-2.075 1.632-2.642 2.8a5.476 5.476 0 00-.56 2.076c-1.856.872-2.61 2.362-2.784 4.711-.065.914.86 1.22.92.296a4.639 4.639 0 012.036-3.557c.057.175.132.34.22.508.704 1.328 2.245 2.693 3.956 2.747 1.298.044 2.745-.729 2.874-2.089.154-1.523-1-2.739-2.52-3.069a7.798 7.798 0 00-3.055-.071c.262-1.527 1.526-2.991 3.131-3.563 2.919 1.337 6.027 2.313 9.347 2.741 5.193 1.422 10.645-.752 11.223-.756a40.264 40.264 0 006.295-2.127z" fill="#E1E1E1"/><path d="M88.522 72.207c-.124-2.268.471-4.267 1.763-6.155 1.172-1.718 2.732-2.978 4.508-4.024 3.031-1.788 6.914-1.575 9.691.365.454.22.924.467 1.306.792.99.822 1.321 1.288 2.009 2.366.666 1.041.747 2.238.766 3.435.018 1.235-.532 2.307-1.094 3.36-.677 1.27-1.871 2.36-3.074 3.147-2.817 1.857-6.002 3.085-9.428 2.646-3.081-.4-6.269-2.55-6.447-5.932zm-15.098-3.995a3.058 3.058 0 01-.651-.914 3.072 3.072 0 01-.24-.806c-.005-.009-.002-.023-.012-.041a.08.08 0 00-.004-.047 2.213 2.213 0 01-.028-.353c-.004-.047.007-.091.003-.138-.002-.085.01-.167.014-.243.005-.052.01-.105.025-.163a1.3 1.3 0 01.052-.24l.032-.131c.038-.122.07-.252.132-.375.337-.832 1.017-1.525 1.862-1.924.106-.051.216-.093.327-.135l.124-.038c.727-.228 1.508-.243 2.214-.014.214.068.438.13.657.208a3.106 3.106 0 012.17 3.244c.007.155-.009.313-.025.47-.112.857-.578 1.68-1.281 2.252-.5.4-1.067.668-1.698.789-.84.16-1.87.03-2.54-.467-.203-.15-.391-.32-.575-.48a3.277 3.277 0 01-.558-.454zm-18.581 8.471a4.227 4.227 0 01.278-2.177c.182-.332.364-.663.561-.992.327-.542 1.062-1.083 1.658-1.405.454-.25.938-.43 1.456-.532a4.556 4.556 0 012.269.138c.67.15 1.452.728 1.867 1.23.058.076.12.137.172.204.511.58.821 1.257.94 2.024.161 1.087-.146 2.233-.836 3.155a4.906 4.906 0 01-1.813 1.475c-.055.032-.114.056-.169.089-1.088.508-2.32.595-3.419.247a4.081 4.081 0 01-2.036-1.45c-.594-.677-.712-1.137-.928-2.006zM66.57 56.514s-.9-16.45 4.956-18.203c5.865-1.757 6.143 13.786-4.956 18.203zm-26.834-2.832c-2.61-1.621-5.499-2.828-8.426-3.851a73.998 73.998 0 00-4.077-1.293 1.39 1.39 0 00-.913.082c-.147 1.495-.591 2.946-.767 4.433-.052.425-.05.856-.04 1.282.012.51.024 1.021.069 1.524.073.98.208 1.959.402 2.914a28.67 28.67 0 001.738 5.575c.698 1.626 1.518 3.229 2.697 4.566 1.158 1.324 2.645 2.438 4.33 3.1 1.415.566 2.955.785 4.519.718a17.147 17.147 0 003.05-.407c1.408-.552 2.826-1.21 3.982-2.177.39-.334.52-.856.408-1.306.25-.792.428-1.602.529-2.415.105-.828.097-1.638.037-2.452-.105-1.441-.567-2.84-1.232-4.104-1.382-2.595-3.757-4.605-6.306-6.189z" fill="#E1E1E1"/><path d="M44.478 69.851c.27-.125-7.61-19.977-13.804-16.763-6.194 3.214 3.405 21.598 13.804 16.763zm57.041.039c-1.472-.618-1.674-2.137-2.246-3.432-.25-.577.01-1.251.582-1.51.311-.138.659-.114.95.02.218.053.421.165.594.37.325.395.568.94.817 1.394.339.622.663 1.24.841 1.922.223.84-.793 1.55-1.538 1.235zm-5.235 4.09c-1.378-.933-2.278-2.709-2.064-4.379.06-.43.315-.806.686-.968l.072-.044a1.16 1.16 0 011.53.51c.656 1.269 1.491 2.529 1.533 4.008.04.864-1.1 1.328-1.757.873zm15.417 45.734a23.506 23.506 0 00-2.511-3.074c-1.885-1.935-4.207-3.693-6.867-4.52a10.258 10.258 0 00-4.214-.396c-1.46.178-2.78.813-3.957 1.645a8.064 8.064 0 00-1.153 1.015 2.32 2.32 0 00-.484.526c-.031.031-.062.061-.087.101a7.896 7.896 0 00-1.657 3.021c-.493 1.678-.516 3.418-.237 5.125.018.766.065 1.539.143 2.281a24.6 24.6 0 001.119 5.245c.614 1.874 1.35 3.687 2.404 5.37.554.875 1.143 1.728 1.827 2.513.647.744 1.392 1.405 2.166 2.012 1.491 1.161 3.308 1.879 5.201 2.131 1.937.264 3.898-.19 5.726-.822 1.357-.472 2.68-1.245 3.707-2.222 2.1-1.98 3.169-4.708 3.211-7.52.047-2.926-.745-5.79-1.976-8.44-.67-1.396-1.486-2.705-2.361-3.991zM57.067 87.216a3.808 3.808 0 01.194-2.09c.32-.92.973-1.721 1.879-2.143.855-.404 1.141-.38 2.044-.418.703-.041 1.297.329 1.894.622.178.09.334.206.473.332.232.18.452.381.717.616.458.513.757 1.11.888 1.796a3.805 3.805 0 01-.552 2.787c-.901 1.369-2.671 2.016-4.237 1.529a3.907 3.907 0 01-1.67-.598 3.852 3.852 0 01-1.63-2.433zm-.882-10.356a.714.714 0 01.352-.273c1.281.954 3.046 1.198 4.493.364.793-.466 1.346-1.144 1.77-1.955.267-.518.587-1.216.5-1.83.067.009.13.032.19.07.978.188.926 1.268.742 2.045a6.067 6.067 0 01-1.332 2.578c-1.653 1.884-4.744 1.366-6.524-.028-.29-.233-.412-.64-.191-.97zm16.096-9.784c1.236.513 2.653.67 3.908.358.945-.236 1.865-.716 2.37-1.575.442-.76.602-1.682.224-2.49.35-.137 1.258 1.14 1.297 1.573.288.764.416 1.588.196 2.41-.233.881-.997 1.538-1.841 1.837-1.957.686-4.35.117-5.97-1.114-.046-.034-.096-.078-.142-.112-.287-.27-.235-.635-.042-.887zm2.194 19.314c.363-.686 1.066-1.22 1.845-1.258.32-.021.572.333.553.628-.018.258-.171.412-.369.494.036.04.07.094.087.144.473 1.171 1.077 2.151 1.908 3.056.764.835 1.754 1.534 2.817 1.658.57.064 1.073-.042 1.585-.277a4.153 4.153 0 001.68-1.431c.896-1.317.8-3.048.837-4.562.005-.052.007-.09.018-.134-.018.011-.037.022-.05.042-.576.496-1.367-.384-.79-.88 1.078-.933 2.503-.435 3.28.626.19.255.213.6-.053.833-.226.198-.646.217-.834-.052a2.653 2.653 0 00-.184-.222c-.044 1.704-.073 3.435-.948 4.95-.827 1.41-2.42 2.431-4.063 2.533-2.81.151-4.987-2.471-6.126-4.745-.102-.21-.204-.42-.288-.64-.184.185-.52.202-.74.063-.275-.191-.312-.539-.165-.825zm18.623 97.586c-1.469-.755-2.21-2.738-2.62-4.254-.027-.107-.184-.061-.23.028-.862 1.617-2.824 3.131-4.59 2.864.094-.131.197-.267.285-.406.34-.624.624-1.276.857-1.934.411-1.444.633-2.897.741-4.331a31.69 31.69 0 00-.595-7.669c-.161-.593-.373-1.169-.57-1.74a54.145 54.145 0 00-.747-2.115 28.82 28.82 0 00-1.626-3.571 15.693 15.693 0 00-1.964-2.577c-1.3-1.375-.66-3.955 1.013-5.333.85-.697 1.904-1.098 2.91-1.088 1.063.002 1.847.441 2.494 1.124 1.734 1.829 2.993 4.116 4 6.457.948 2.203 1.755 4.541 2.236 6.951.721 3.585.843 7.445.303 11.273a21.679 21.679 0 01-1.576 5.586c-.08.257-.202.503-.321.735zm28.531-13.442c-1.647-.008-3.211-1.432-4.267-2.609-.073-.079-.192.03-.194.129-.039 1.836-1.094 4.075-2.795 4.631l.075-.489a14.296 14.296 0 00-.116-2.113c-.282-1.469-.744-2.868-1.301-4.197a32.317 32.317 0 00-4.008-6.574c-.411-.455-.861-.874-1.294-1.304a50.495 50.495 0 00-1.626-1.548 29.522 29.522 0 00-3.068-2.443 15.312 15.312 0 00-2.915-1.412c-1.782-.641-2.381-3.227-1.514-5.204.442-1.006 1.201-1.833 2.108-2.294.949-.473 1.843-.444 2.735-.131 2.377.849 4.533 2.313 6.493 3.943 1.853 1.535 3.63 3.25 5.154 5.181 2.268 2.875 4.125 6.256 5.383 9.913a21.83 21.83 0 011.131 5.693c.014.288.016.558.019.828z" fill="#E1E1E1"/><path d="M68.27 96.661l74.453-33.953 1.334 2.637-74.742 34.436-1.045-3.12z" fill="#E1E1E1"/><path d="M100.839 96.635c-2.057 4.076-5.375 6.963-9.227 8.803-2.628 1.25-5.611 1.913-8.549 1.833-.788-.019-1.502-.218-2.143-.83a3.586 3.586 0 01-1.064-2.171c-.182-1.629.916-3.389 2.485-3.347a16.97 16.97 0 003.553-.291 18.065 18.065 0 004.155-1.541 17.395 17.395 0 003.36-2.493 16.006 16.006 0 002.084-2.723 14.5 14.5 0 001.086-2.677 15.26 15.26 0 00.35-2.652 16.402 16.402 0 00-.349-2.948 27.011 27.011 0 00-.284-1c-.266-.85-.236-1.72.038-2.453 1.254-.212 2.555.94 3.097 2.205l.077.188c.023.06.101.025.078-.035l-.077-.188c-.46-1.252-.23-2.526.234-3.68a3.197 3.197 0 011.865 1.984c.817 2.578 1.146 5.167.962 7.806a16.76 16.76 0 01-1.731 6.21zm25.917-26.715c.319.426.335 1.107-.285 1.431-.661.337-1.237-.167-1.326-.743a15.905 15.905 0 001.611-.687zm-7.827 3.606a.915.915 0 01.145.875.947.947 0 01-1.186.591.78.78 0 01-.127-.047.92.92 0 01-.583-.598 40.63 40.63 0 011.751-.82zm-7.098 3.254l.022.037a.942.942 0 01-.427 1.256l-.087.04a.951.951 0 01-1.257-.427c-.024-.06-.053-.128-.068-.193.598-.237 1.205-.48 1.817-.712zm-7.344 3.217c.509.372.647 1.276-.097 1.638-.727.352-1.327-.274-1.329-.89a39.6 39.6 0 011.426-.748z" fill="#E1E1E1"/></svg>