<svg width="236" height="238" fill="none" xmlns="http://www.w3.org/2000/svg"><path d="M202.28 137.682c-1.501-1.339-4.394-1.463-5.681.323a47.332 47.332 0 01-3.702 4.549 50.486 50.486 0 01-1.92 1.953c-.328.313-.655.612-.995.91-.032.038-.092.074-.14.124-.139.125-.292.247-.43.358a42.833 42.833 0 01-4.465 3.222c-.735.464-1.497.91-2.256 1.329-.387.209-.773.418-1.158.613-.162.08-.325.159-.474.241a.747.747 0 01-.161.066c-3.273 1.552-6.737 2.678-10.277 3.474-.201.048-.4.082-.601.13-.4.081-.785.15-1.184.218-.94.162-1.877.296-2.826.414a65.52 65.52 0 01-5.51.412 68.505 68.505 0 01-4.442-.016c-.32-.007-.653-.03-.972-.051-.138-.016-.291-.019-.43-.034a74.968 74.968 0 01-11.294-1.736 79.26 79.26 0 01-4.331-1.148 55.773 55.773 0 01-2.134-.669c-.095-.024-.175-.061-.27-.086a32.638 32.638 0 01-1.237-.443 74.558 74.558 0 01-8.282-3.583c-1.96-.984-4.415-.138-5.386 1.822-.972 1.974-.136 4.399 1.824 5.383 13.61 6.838 29.619 10.17 44.792 7.921 6.748-1.001 13.213-3.109 19.171-6.446 5.928-3.326 11.134-8.073 15.098-13.599 1.27-1.759 1.428-4.074-.327-5.651z" fill="#FFAB6C"/><path d="M140.342 159.392a2.646 2.646 0 01.476-1.525l-.01-.672c-.005-.084.003-.153-.006-.196l-.008-.308c-.03-.87-.086-1.756-.157-2.63a7.193 7.193 0 01-.049-.564c-.544-.143-1.085-.301-1.64-.46a55.773 55.773 0 01-2.134-.669c-.096-.024-.175-.061-.27-.085a34.48 34.48 0 01-1.237-.444 74.658 74.658 0 01-8.282-3.582c-1.96-.985-4.415-.139-5.386 1.821-.972 1.974-.136 4.399 1.823 5.384a82.491 82.491 0 0016.845 6.273c.016-.78.046-1.559.035-2.343zm15.441 1.901c-.331-1.685-.661-3.384-1.107-5.039l-.087-.345a61.436 61.436 0 01-2.228-.204 57.528 57.528 0 01-3.457-.452c.339 2.748.594 5.499.779 8.257 2.192.27 4.395.444 6.594.519a94.735 94.735 0 00-.494-2.736zm9.711-.632c-.351-1.631-.716-3.263-1.053-4.893a64.487 64.487 0 01-3.982.245c-.897.026-1.806.038-2.699.023-.002.014.011.029.009.043.431 1.668.774 3.368 1.09 5.065.185.984.357 1.953.513 2.948a64.852 64.852 0 006.796-.423 118.784 118.784 0 01-.674-3.008zm6.738-6.226c-.561.148-1.121.282-1.68.415-.201.048-.401.082-.602.13a43.094 43.094 0 01-2.506.421c.276 1.302.553 2.589.842 3.892l.864 3.951a56.036 56.036 0 005.625-1.209c-.824-2.535-1.631-5.097-2.543-7.6zm27.424-9.557c.315.314.628.642.927.969a41.24 41.24 0 001.942-2.524c1.272-1.773 1.445-4.1-.324-5.678-1.501-1.339-4.393-1.463-5.681.323a45.555 45.555 0 01-1.765 2.319c1.65 1.509 3.331 2.993 4.901 4.591zm-4.401 3.914c-.892-.908-1.118-1.143-2.045-1.985-.71-.651-1.438-1.276-2.164-1.915-.101-.095-.204-.176-.305-.271-.281.262-.561.524-.84.773-.032.038-.092.073-.14.124-.139.124-.293.247-.431.358a45.471 45.471 0 01-2.23 1.723 97.846 97.846 0 012.827 4.893c.383.713.75 1.438 1.117 2.163a47.46 47.46 0 005.497-4.478c-.408-.478-.847-.931-1.286-1.385zm-10.558 6.391c-.835-1.545-1.695-3.12-2.52-4.51l-.713.382c-.162.08-.325.16-.474.241a.747.747 0 01-.161.066 42.98 42.98 0 01-2.977 1.277c.896 2.516 1.691 5.062 2.528 7.599a56.6 56.6 0 005.617-2.523c-.423-.857-.86-1.701-1.3-2.532z" fill="#C87035"/><path d="M162.836 96.132a60.55 60.55 0 01-.906-4.193c-.04-.144-.068-.272-.108-.417a77.694 77.694 0 01-4.084 2.566c-12.563 7.092-26.305 11.064-39.919 14.77-2.636.715-3.825 4.522-2.963 7.215.448 1.391 1.369 2.54 2.54 3.2 1.302.73 2.528.642 3.882.275 14.898-4.068 29.909-8.528 43.399-16.802a138.91 138.91 0 01-1.841-6.614zm-55.403 20.854c-.251-3.296-2.742-5.666-5.503-5.845-5.576-.378-11.167-.87-16.749-1.696-7.07-1.143-14.129-2.9-20.949-5.804-.502 3.785-1.07 7.549-1.49 11.344 7.569 3.21 15.403 4.899 23.238 6.085 5.62.858 11.24 1.339 16.859 1.708 2.747.178 4.831-2.749 4.594-5.792zm46.496-86.478c2.19-3.892 3.2-9.116.131-12.835-2.513-3.057-6.451-4.092-9.979-2.261-3.218 1.684-5.314 5.35-6.476 8.657-1.066 3.08-1.568 6.489-.69 9.673.687 2.506 2.721 4.588 5.251 5.09.161.69.809 1.277 1.666.981 4.398-1.484 7.874-5.374 10.097-9.305z" fill="#FFAB6C"/><path d="M148.474 18.9c-3.543-.685-5.574 3.407-6.702 6.034-1.107 2.56-2.328 5.637-2.25 8.481.074 2.62 2.645 3.379 4.511 2.551a2.484 2.484 0 001.222-.563c2.38-2.07 4.54-4.415 6.076-7.193 1.713-3.107 1.468-8.483-2.857-9.31z" fill="#fff"/><path d="M77.195 26.1c-2.304-3.815-6.365-7.28-11.11-6.45-3.904.687-6.741 3.6-6.887 7.579-.122 3.632 2.048 7.265 4.357 9.895 2.148 2.444 4.877 4.56 8.084 5.376 2.529.642 5.335-.096 7.02-2.06.676.2 1.516-.07 1.686-.974.852-4.557-.81-9.503-3.15-13.365z" fill="#FFAB6C"/><path d="M77.08 34.357c-1.636-2.64-3.023-5.39-5.145-7.692-2.121-2.301-7.166-3.822-8.791.021-1.328 3.164 1.099 5.862 3.188 7.95 1.636 1.634 3.664 3.52 5.792 4.495.638.294 1.244.375 1.798.296 2.295.226 4.785-2.46 3.159-5.07z" fill="#fff"/><path d="M86.436 165.411c.183.621-8.856-74.823 24.708-75.07 23.771 1.507 29.102 47.894 32.214 71.214 1.491 26.242-53.235 33.873-56.922 3.856z" fill="#FFAB6C"/><path d="M66.681 40.835c-.68 7.816-.849 19.586 1.096 27.161 2.092 8.137 5.975 15.242 12.681 20.438 6.566 5.083 14.739 7.885 22.843 9.282 7.897 1.375 16.292 1.282 23.922-1.381 10.536-3.67 16.993-12.915 20.534-23.098 1.944-5.581 2.725-11.39 2.804-17.289.075-5.62-.799-11.122-1.287-16.693 1.099-15.27-74.237-23.728-82.593 1.58z" fill="#FFAB6C"/><path d="M124.727 71.351c-1.265-5-5.592-7.95-10.244-9.358-4.38-1.335-9.045-.216-12.958 1.81-4.668 2.418-7.764 8.054-7.854 13.17-.12 6.146 5.188 10.727 10.752 12.096a13.85 13.85 0 003.692.351c3.95.297 8.06-.981 11.244-3.242 4.823-3.434 6.808-9.137 5.368-14.827z" fill="#fff"/><path d="M118.927 75.794c-.342 4.74-4.182 7.374-8.286 7.717-.263-4.33-.231-8.671-.171-13.008.016-1.158-1.776-1.006-1.79.137-.055 4.296-.083 8.595.157 12.882-3.491-.274-6.81-2.233-7.977-5.965-.34-1.1-2.028-.49-1.689.61 3.241 10.386 20.695 9.24 21.505-2.012.1-1.162-1.664-1.51-1.749-.36z" fill="#251B23"/><path d="M101.71 63.894s6.297-6.024 15.446-.67c-.091 7.784-5.994 9.479-7.929 10.047-4.412-1.674-7.528-4.337-7.517-9.377z" fill="#5B5259"/><path d="M108.888 65.594c2.881.108 8.292-2.074 8.292-2.074s-1.285-24.18-9.13-23.495c-6.985.109-7.814 22.295-6.323 24.233 2.836 1.026 7.161 1.336 7.161 1.336zm15.589 31.694c-10.351.98-20.587 2.937-30.896 4.299-1.175 2.036-2.18 4.299-3.046 6.704 12.799-1.507 25.462-4.187 38.331-5.071-1.334-2.214-2.805-4.206-4.389-5.931zm-18.779 21.755c6.216-.487 12.283-1.521 18.381-2.831 3.15-.686 6.301-1.385 9.471-1.999a75.642 75.642 0 00-2.337-5.663c-2.673.543-5.325 1.144-7.987 1.716-5.958 1.311-11.902 2.247-17.98 2.749-5.542.45-11.09.717-16.623 1.084a78.895 78.895 0 00-1.269 6.048c6.124-.414 12.255-.631 18.344-1.104zm1.444 13.876c7.406-.761 14.748-1.445 22.032-3.001 2.891-.617 5.791-1.19 8.654-1.936a129.092 129.092 0 00-2.519-9.203 274.22 274.22 0 01-6.975 1.66c-6.832 1.509-14.158 2.18-21.296 2.915-6.785.703-13.575 1.197-20.393 1.561-.408 3.196-.68 6.42-.862 9.584 7.138-.357 14.249-.843 21.359-1.58zm32.796 5.199a246.578 246.578 0 00-1.366-6.869c-10.216 1.274-20.291 3.681-30.535 4.827-7.457.839-14.944 1.451-22.424 2.245a191.675 191.675 0 00-.12 7.027c7.482-.809 14.97-1.42 22.453-2.242 10.734-1.162 21.273-3.714 31.992-4.988zm-30.305 12.744c6.218-.626 12.406-1.368 18.59-2.319 4.363-.664 8.729-1.355 13.103-1.864-.168-1.136-.362-2.288-.54-3.453-4.079.485-8.144 1.112-12.21 1.738-6.184.952-12.36 1.708-18.579 2.349-8.141.833-16.296 1.539-24.457 2.174.021 1.204.045 2.38.075 3.5 8.006-.624 16.02-1.318 24.018-2.125zm32.248-.099c-.201.048-.404.109-.605.157-2.774.699-5.807.965-8.671 1.333-6.449.825-12.926 1.395-19.406 1.992-6.38.581-12.785 1.256-19.202 1.288-2.727.02-5.562 0-8.27.106.1 2.889.333 5.331.394 7.181 2.82-.094 5.659.01 8.426.009 6.206-.014 12.414-.683 18.583-1.245 6.28-.564 12.548-1.143 18.809-1.904 3.144-.379 6.271-.858 9.401-1.364.499-.085 1-.197 1.505-.337a406.006 406.006 0 00-.964-7.216z" fill="#C87035"/><path d="M103.15 69.08c.831 1.21 2.12 1.939 3.237 2.83.519-.53.823-1.25.834-1.989.009-.711-.275-1.553-.823-2.032-.218-.178-.419-.382-.656-.52a3.107 3.107 0 00-2.242-.317c-.345.087-.7.258-1.003.476.238.627.424 1.22.653 1.552zm9.876 2.571c1.082-.942 2.33-1.865 2.972-3.121.23-.436.355-.939.507-1.425-.45-.357-1.055-.577-1.797-.562-2.914.07-3.407 3.647-1.682 5.108z" fill="#251B23"/><path d="M106.714 58.328c-.004.796.049 1.584.1 2.386.033.464.738.402.72-.06a33.189 33.189 0 01-.1-2.386c-.005-.462-.711-.4-.72.06zm2.837-2.284c.062.83.11 1.66.116 2.498.005.462.71.4.717-.046a36.418 36.418 0 00-.115-2.499c-.032-.465-.75-.418-.718.047zm1.82-4.968c-.076-.455-.795-.395-.718.047.183.998.253 2.01.323 3.024.032.465.752.404.718-.046-.07-1.014-.154-2.028-.323-3.025zm-3.136.562c-.048-.452-.766-.406-.719.06.116.977.078 1.95.138 2.92.033.465.738.403.72-.06-.061-.97-.023-1.944-.139-2.92zm-4.049-.671c.057.873.058 1.753.115 2.625.033.465.738.403.72-.06-.058-.872-.058-1.753-.116-2.625-.034-.45-.752-.404-.719.06zm1.857-5.423c-.191.97-.284 1.938-.239 2.92.019.463.739.403.718-.046-.051-.928.048-1.825.218-2.728.091-.45-.605-.597-.697-.146zm3.653-.686c-.075-.455-.795-.395-.719.06.171.983.158 1.987.315 2.968.076.455.795.395.719-.06-.171-.983-.144-1.986-.315-2.968zm3.846 12.757c-.061-.454-.765-.406-.718.046.136 1.05.315 2.088.394 3.145.033.464.752.404.719-.06-.08-1.043-.259-2.082-.395-3.131zm-3.729 4.03c.029.492.057.998.045 1.486-.022.458.697.398.72-.06.027-.5-.003-.992-.046-1.486-.034-.45-.752-.404-.719.06zm-5.091-1.735c-.213-.722-.214-1.476-.257-2.221-.033-.465-.738-.403-.72.06.05.816.058 1.627.294 2.407.132.447.816.202.683-.246zm1.43 4.264c-.329-.693-.414-1.442-.571-2.172-.09-.443-.774-.197-.67.247.156.744.242 1.48.571 2.172.178.411.861.18.67-.247z" fill="#FC8832"/><path d="M84.532 41.157c-1.879-.067-3.48.887-4.904 2.015a13.485 13.485 0 00-3.112 2.24c-1.047 1.002.044 2.77 1.343 2.649 2.879-.255 7.797-1.64 8.377-4.997.192-1.11-.66-1.875-1.704-1.907zm52.605-.7c-1.63-.935-3.483-.86-5.28-.528-1.272 0-2.548.166-3.802.517-1.399.39-1.264 2.458-.062 2.968 2.656 1.131 7.651 2.213 9.748-.46.685-.889.301-1.965-.604-2.497zM83.368 80.682c1.364-1.344 4.782-4.333 3.11-6.529-2.063-2.7-5.293.226-6.999 1.756-1.956 1.767-3.655 3.87-5.699 5.544a32.781 32.781 0 003.987 4.644c1.838-1.836 3.75-3.594 5.6-5.415zm7.002 3.804c.231-1.469-1.272-3.171-2.834-2.436-3.067 1.45-4.77 4.097-6.715 6.648a41.503 41.503 0 004.958 3.187c1.871-2.266 4.099-4.339 4.59-7.399zM74.848 74.448c2.449-1.42 4.71-3.168 6.831-5.042 1.565-1.392.884-3.953-1.385-3.91-2.633.058-5.03 1.65-7.226 2.93-1.464.859-2.976 1.642-4.465 2.469a42.96 42.96 0 002.2 5.522c1.344-.661 2.762-1.231 4.045-1.97zm-3.247-9.2c2.474-.509 5.788-1.288 6.949-3.828.552-1.21-.105-2.847-1.523-3.045-3.646-.514-7.036.703-10.522 1.394.167 2.156.43 4.21.794 6.094 1.451-.106 2.9-.323 4.302-.615zM90.72 39.913c.593 1.714 3.21 1.933 3.945.212 1.446-3.346.834-7.17.707-10.705a75.52 75.52 0 00-.25-4.064 76.738 76.738 0 00-5.8.896c-.021 4.621-.125 9.233 1.398 13.661zm13.872-3.12c.567-4.002.733-8.034.661-12.064-2.043.026-4.064.11-6.064.252-.06 4.086.003 8.2 1.274 12.125.633 1.983 3.825 1.805 4.129-.313zm10.817-6.082c-.043-1.89-.115-3.77-.172-5.662a115.753 115.753 0 00-6.171-.304 40.398 40.398 0 001.186 12.296c.234.92 1.305 1.472 2.177 1.414 3.211-.218 3.043-5.53 2.98-7.744zm8.413 7.326c1.495-2.782 1-6.273.831-9.294a56.293 56.293 0 00-.202-2.607 104.546 104.546 0 00-5.52-.749c-.31 4.198-.44 8.416.932 12.436.638 1.817 3.112 1.81 3.959.214zm14.488 17.62c-1.676 1.128-.873 3.354.802 3.874 2.445.758 5.03.764 7.581.823 1.073.02 2.425-.194 3.681-.18.112-1.399.168-2.79.184-4.198l.001-1.146c-4.075-.31-8.717-1.549-12.249.827zm4.681 8.994c-2.414-.154-5.559-.53-7.572 1.12-1.244 1.022-1.229 2.91.278 3.69 2.51 1.31 5.377 1.418 8.139 1.583 1.416.087 3.074-.121 4.666-.113a49.722 49.722 0 001.33-5.971 188.072 188.072 0 01-6.841-.308zm-1.719 9.365c-2.253-.473-5.932-1.326-7.908.37-1.265 1.075-1.194 2.843.277 3.69 3.218 1.864 6.907 2.369 10.392 3.466 1.109-1.945 2.061-3.99 2.892-6.078a79.062 79.062 0 00-5.653-1.448zm-10.596 8.258c-1.731.241-2.39 1.9-1.6 3.357 1.03 1.93 3.732 2.898 5.593 3.76.798.367 1.614.695 2.432 1.009 1.6-1.458 3.038-3.087 4.334-4.83-3.409-1.773-6.771-3.848-10.759-3.296z" fill="#C87035"/><path d="M68.986 88.69c-.782-2.28-1.84-4.463-3.05-6.552-1.167-1.959-2.725-3.667-4.29-5.307-1.57-1.612-3.432-2.837-5.327-4.024-1.896-1.187-3.971-1.877-6.102-2.573-2.159-.7-4.352-.83-6.604-.939-2.307-.115-4.437.32-6.685.813-4.669 1.02-8.73 3.757-12.172 6.966-2.791 2.625-4.965 5.989-6.67 9.404-3.783 7.558-5.238 16.057-5.422 24.431-.083 4.041.464 7.943 1.316 11.878.703 3.248 2.2 6.262 4.184 8.926 4.807 6.453 11.873 11.688 19.788 13.54 2.002.472 4.166.613 6.21.448 2.186-.178 4.038-.755 5.906-1.597a15.43 15.43 0 001.168-.332c1.965-.579 3.867-1.612 5.548-2.781 3.952-2.762 6.96-6.844 9.055-11.138 4.104-8.444 5.892-18.052 5.624-27.397a47.212 47.212 0 00-2.477-13.766zM197.96 64.561c-1.713-1.697-3.63-3.194-5.651-4.507-1.903-1.243-4.059-2.096-6.196-2.862-2.111-.75-4.332-1.01-6.557-1.241-2.224-.232-4.397.087-6.598.403-2.244.325-4.268 1.19-6.322 2.081-2.115.926-3.841 2.258-5.634 3.694-3.727 2.997-6.152 7.24-7.799 11.654-1.345 3.58-1.786 7.568-1.801 11.38-.024 8.447 2.43 16.721 6.009 24.296 1.719 3.667 3.947 6.902 6.464 10.057 2.075 2.59 4.756 4.632 7.707 6.131 7.17 3.655 15.831 5.198 23.735 3.347 2.008-.463 4.001-1.304 5.766-2.353 1.87-1.12 3.291-2.471 4.584-4.061.31-.273.604-.534.9-.808 1.51-1.398 2.752-3.16 3.734-4.965 2.325-4.227 3.199-9.229 3.153-13.997-.083-9.38-2.746-18.796-7.145-27.047a47.526 47.526 0 00-8.349-11.202z" fill="#FFFB9B"/><path d="M109.199 201.613c-.078-7.397-1.002-14.846-2.624-22.05-.751-3.324-1.481-6.84-4.096-9.224-1.308-1.192-3.195-1.694-4.908-1.869-1.674-.157-3.43-.071-5.025.451-1.697.567-2.804 1.981-2.973 3.639a2.45 2.45 0 00-.249 1.495c.742 4.677 2.07 9.223 3.459 13.734 1.351 4.339 2.647 8.421 3.842 12.785.579 2.103 1.17 4.208 1.476 6.379.165 1.163.185 1.738.103 2.86-.015.264-.06.539-.088.801 0 0-.105.575-.087.535a7.617 7.617 0 01-.398 1.073c-.018.04-.18.358-.182.385a3.52 3.52 0 01-.238.379c-.222.367-.484.715-.746 1.063-.51.698-1.073 1.362-1.609 2.043-1.27 1.634-2.243 3.356-2.663 5.391-.288 1.337.963 2.411 2.128 2.623 2.865.498 5.615.02 8.076-1.511 2.1-1.304 3.526-3.591 4.483-5.804 2.067-4.674 2.376-10.129 2.319-15.178zm49.793-8.134c-6.516-2.996-12.734-6.798-18.457-11.159-2.643-2.009-5.461-4.08-6.514-7.451-.526-1.692-.213-3.641.334-5.299.528-1.618 1.319-3.22 2.44-4.507 1.184-1.364 2.885-1.833 4.422-1.328.494-.043.999.069 1.428.354 3.843 2.533 7.336 5.572 10.77 8.647 3.304 2.977 6.389 5.79 9.764 8.635 1.624 1.366 3.259 2.762 5.048 3.895.967.61 1.456.859 2.492 1.225.242.083.499.167.756.237 0 0 .545.13.503.125.372.055.749.055 1.113.053.041.005.394-.026.421-.023.143-.026.284-.038.44-.063.413-.066.83-.174 1.232-.269.819-.203 1.63-.463 2.452-.693 1.96-.538 3.871-.76 5.839-.361 1.298.269 1.753 1.842 1.455 3.024-.722 2.867-2.242 5.241-4.607 6.922-2.004 1.441-4.594 1.867-6.958 1.885-4.968.066-9.919-1.793-14.373-3.849z" fill="#FFAB6C"/><path d="M53.487 98.46c-.479-3.517-2.213-7.173-5.713-8.509-4.222-1.625-8.916.901-11.592 4.126-2.501 3.034-3.934 7.401-4.167 11.286-.127 2.165.103 4.383 1 6.382.225.499 1.511 2.513.518.881.38.614.745 1.227 1.185 1.793a10.25 10.25 0 002.289 2.18c2.455 1.682 5.568 1.97 8.266.689a8.189 8.189 0 001.043-.583c1.591-.746 2.974-2.13 4.04-3.437a13.324 13.324 0 002.501-4.933c.82-3.248 1.074-6.558.63-9.876zm141.251-4.979c.29-4.27-.856-8.321-3.1-11.921-.938-1.5-2.296-2.865-3.802-3.786-2.331-1.416-4.75-1.907-7.458-1.801-4.504.16-8.061 4.152-9.303 8.191-.156.528-.3 1.07-.415 1.603-.619 2.194-.544 4.675-.182 6.838.509 2.989 1.715 5.734 3.379 8.25 1.45 2.185 3.712 4.223 6.256 4.979 3.45 1.023 6.869.185 9.611-2.124 3.067-2.594 4.742-6.25 5.014-10.229z" fill="#FFE88B"/><path d="M143.476 160.87c.003-.153-.006-.322-.003-.475-10.517 1.465-20.942 3.498-31.505 4.622-8.413.901-16.86 1.589-25.28 2.419.398 1.329.784 2.643 1.27 3.939.366.991.79 1.959 1.303 2.882 7.5-.722 15.004-1.36 22.496-2.139 10.376-1.076 20.627-3.045 30.934-4.519.603-.143 1.019-5.935.785-6.729zm-8.232 16.843c.015-.012.032-.038.047-.05.033-.039.08-.089.129-.154a64.51 64.51 0 002.904-3.646 722.872 722.872 0 01-20.065 2.143c-8.33.77-16.667 1.484-24.999 2.142.56.369 1.136.726 1.727 1.071.092.052.868.487.762.433a171.203 171.203 0 002.973 1.557c6.331-.516 12.651-1.061 18.975-1.634a788.853 788.853 0 0017.527-1.808c-.011-.029.005-.041.02-.054z" fill="#C87035"/><path d="M95.477 218.577c-1.502.951-2.182 2.552-2.644 4.205-.142.529.648.84.804.313.419-1.518.984-2.965 2.38-3.844.468-.311-.088-.973-.54-.674zm2.957.676c-.982 1.302-1.835 2.451-2.061 4.116-.075.55.783.631.858.081.193-1.502 1.02-2.528 1.903-3.701.314-.44-.37-.949-.7-.496zm85.49-29.586c-2.28.014-4.15 1.385-5.851 2.748-.43.344.112 1.004.542.66 1.502-1.203 3.216-2.55 5.23-2.565.544.004.623-.839.079-.843zm-.045-3.525c-2.483-.288-4.873 1.362-6.727 2.833-.429.344.113 1.004.542.66 1.654-1.311 3.869-2.897 6.104-2.636.54.046.633-.796.081-.857z" fill="#773C15"/><path d="M55.068 60.35c-11.405-4.542-23.03 2.667-30.928 10.538-.613.617.233 1.688.861 1.06 7.521-7.495 18.64-14.675 29.563-10.327.83.33 1.32-.944.504-1.271zM42.416 50.014a25.022 25.022 0 00-11.546 4.969c-3.377 2.616-6 6.111-7.952 9.877-.407.779.88 1.27 1.274.49 3.778-7.265 10.234-12.712 18.453-13.998.867-.127.639-1.48-.23-1.338zm174.71 33.703c-.286-.827-1.535-.267-1.249.56 2.654 7.724 2.785 15.91 1.91 23.956-.097.883 1.271 1.02 1.369.137.901-8.295.711-16.696-2.03-24.653zm9.742 6.063c-.072-.875-1.424-.647-1.353.227.438 5.146.175 10.313-.86 15.381-.179.86 1.19.997 1.368.137 1.063-5.19 1.283-10.474.845-15.746zm-159.86 48.08c-3.792 7.137-10.961 10.815-18.225 13.575-.831.313-.257 1.564.56 1.249 3.822-1.449 7.583-3.115 10.97-5.437 3.341-2.299 6.063-5.309 7.969-8.897.42-.764-.854-1.254-1.274-.49zm.052 10.55c-2.098 1.529-4.145 3.104-6.524 4.155-.808.357-.248 1.607.56 1.249 2.485-1.109 4.637-2.757 6.81-4.346.729-.521-.133-1.579-.847-1.058zm22.773-92.351c-.369-2.862-1.92-6.4-5.17-6.325-3.322.08-6.258 3.513-6.378 6.88-.062 1.446 2.106 1.685 2.17.225.083-2.281 1.885-4.554 4.083-4.843 2.143-.294 2.944 2.826 3.157 4.441.176 1.445 2.328 1.068 2.138-.378zm46.927-.909c-.369-2.862-1.921-6.4-5.171-6.325-3.321.08-6.257 3.513-6.377 6.88-.062 1.446 2.106 1.685 2.169.226.084-2.282 1.886-4.555 4.084-4.843 2.141-.28 2.944 2.825 3.157 4.44.174 1.459 2.327 1.068 2.138-.378z" fill="#251B23"/></svg>