<svg width="236" height="237" fill="none" xmlns="http://www.w3.org/2000/svg"><path d="M202.275 137.361c-1.501-1.337-4.394-1.461-5.681.323a47.305 47.305 0 01-3.703 4.546 49.747 49.747 0 01-1.921 1.951c-.328.313-.654.612-.995.909-.032.038-.092.074-.139.124-.14.124-.293.247-.431.357a42.656 42.656 0 01-4.464 3.22c-.736.463-1.498.91-2.257 1.329-.386.208-.773.417-1.158.612a11.55 11.55 0 00-.473.24c-.045.023-.089.046-.161.066-3.274 1.551-6.738 2.677-10.278 3.473-.201.048-.4.081-.601.129-.4.081-.785.151-1.184.218-.94.162-1.877.296-2.826.415a65.526 65.526 0 01-5.509.411 67.799 67.799 0 01-4.442-.015c-.321-.007-.653-.03-.972-.051-.139-.015-.292-.018-.43-.033a75.124 75.124 0 01-11.294-1.733 79.735 79.735 0 01-4.331-1.147 55.765 55.765 0 01-2.134-.668c-.095-.024-.174-.061-.27-.085a35.135 35.135 0 01-1.236-.444 74.707 74.707 0 01-8.282-3.577c-1.959-.984-4.414-.138-5.385 1.82-.973 1.972-.137 4.395 1.822 5.378 13.609 6.83 29.618 10.157 44.79 7.907 6.748-1.001 13.213-3.107 19.171-6.441 5.929-3.324 11.135-8.067 15.099-13.588 1.271-1.758 1.429-4.071-.325-5.646z" fill="#E1E1E1"/><path d="M140.335 159.053a2.643 2.643 0 01.476-1.524l-.01-.671c-.004-.084.003-.153-.006-.196l-.008-.308a55.46 55.46 0 00-.156-2.627 7.688 7.688 0 01-.05-.563c-.543-.144-1.084-.301-1.64-.46a58.144 58.144 0 01-2.133-.667c-.096-.025-.175-.062-.27-.086-.418-.144-.835-.287-1.237-.443a74.43 74.43 0 01-8.281-3.578c-1.959-.983-4.414-.137-5.385 1.821-.973 1.972-.137 4.394 1.822 5.377a82.45 82.45 0 0016.843 6.265c.016-.78.046-1.558.035-2.34zm15.442 1.898c-.331-1.683-.66-3.38-1.106-5.033a43.61 43.61 0 00-.088-.345 59.398 59.398 0 01-2.227-.203 58.453 58.453 0 01-3.457-.451 147.3 147.3 0 01.778 8.248c2.192.269 4.395.442 6.594.517a98.757 98.757 0 00-.494-2.733zm9.711-.631c-.351-1.63-.716-3.26-1.053-4.888a64.407 64.407 0 01-6.68.269c-.002.013.011.029.009.043.431 1.665.774 3.364 1.089 5.059.185.983.357 1.95.513 2.944a64.564 64.564 0 006.795-.423 118.465 118.465 0 01-.673-3.004zm6.739-6.218c-.561.147-1.121.281-1.68.414-.201.048-.401.082-.602.129a44.06 44.06 0 01-2.505.422c.275 1.3.552 2.586.841 3.887l.863 3.946a55.815 55.815 0 005.625-1.208c-.824-2.532-1.631-5.09-2.542-7.59zm27.423-9.545c.314.314.628.641.927.967a41.564 41.564 0 001.941-2.521c1.272-1.771 1.446-4.096-.322-5.672-1.501-1.337-4.393-1.46-5.681.323a45.507 45.507 0 01-1.765 2.317c1.65 1.507 3.33 2.99 4.9 4.586zm-4.401 3.908c-.892-.907-1.117-1.141-2.044-1.983-.711-.65-1.438-1.274-2.164-1.913-.101-.094-.204-.175-.305-.27-.281.262-.561.524-.84.772-.032.038-.092.074-.14.124-.139.124-.292.247-.43.357a44.868 44.868 0 01-2.231 1.722 97.694 97.694 0 012.827 4.888c.382.712.749 1.436 1.116 2.16a47.52 47.52 0 005.497-4.473 29.956 29.956 0 00-1.286-1.384zm-10.557 6.383c-.836-1.543-1.696-3.116-2.52-4.505l-.713.382c-.162.08-.325.16-.474.241a.747.747 0 01-.161.066 42.97 42.97 0 01-2.977 1.276c.895 2.513 1.69 5.056 2.527 7.59a56.354 56.354 0 005.617-2.521 105.03 105.03 0 00-1.299-2.529zM162.83 95.864a61.015 61.015 0 01-.906-4.188c-.04-.144-.067-.272-.107-.416a77.467 77.467 0 01-4.085 2.564c-12.562 7.085-26.304 11.055-39.918 14.759-2.636.714-3.825 4.518-2.963 7.208.447 1.389 1.368 2.537 2.539 3.196 1.302.729 2.528.641 3.882.274 14.897-4.065 29.908-8.523 43.398-16.79a138.741 138.741 0 01-1.84-6.607zm-55.404 20.832c-.25-3.293-2.741-5.661-5.502-5.839-5.575-.377-11.166-.868-16.748-1.692-7.07-1.142-14.128-2.896-20.948-5.797-.502 3.782-1.072 7.543-1.491 11.334 7.568 3.206 15.402 4.893 23.236 6.077 5.62.857 11.24 1.336 16.859 1.704 2.747.177 4.831-2.747 4.594-5.787zm46.496-86.373c2.19-3.888 3.201-9.107.133-12.82-2.513-3.054-6.45-4.088-9.978-2.258-3.218 1.682-5.313 5.344-6.475 8.648-1.067 3.078-1.57 6.482-.692 9.662.687 2.504 2.72 4.583 5.249 5.085.162.687.809 1.275 1.666.979 4.398-1.483 7.874-5.37 10.097-9.296z" fill="#E1E1E1"/><path d="M148.47 18.728c-3.543-.683-5.574 3.404-6.703 6.028-1.107 2.557-2.328 5.632-2.251 8.472.074 2.617 2.645 3.375 4.511 2.548a2.483 2.483 0 001.221-.563c2.381-2.068 4.54-4.41 6.077-7.185 1.712-3.104 1.468-8.474-2.855-9.3zM77.19 25.92c-2.303-3.811-6.364-7.272-11.108-6.442-3.905.686-6.742 3.597-6.888 7.57-.122 3.629 2.047 7.258 4.356 9.884 2.147 2.441 4.875 4.556 8.082 5.37 2.528.64 5.334-.096 7.019-2.06.676.2 1.516-.07 1.686-.972.853-4.552-.808-9.493-3.148-13.35z" fill="#E1E1E1"/><path d="M77.074 34.167c-1.636-2.636-3.023-5.384-5.144-7.682-2.12-2.299-7.165-3.817-8.79.022-1.329 3.16 1.098 5.855 3.186 7.94 1.636 1.632 3.664 3.516 5.791 4.49.638.293 1.244.374 1.798.296 2.294.224 4.785-2.46 3.16-5.066zm9.358 130.903c.183.62-8.846-74.737 24.713-74.987 23.767 1.502 29.091 47.836 32.201 71.128 1.486 26.212-53.232 33.842-56.914 3.859z" fill="#E1E1E1"/><path d="M66.682 40.64c-.683 7.809-.852 19.566 1.092 27.133 2.09 8.127 5.972 15.224 12.677 20.414 6.565 5.076 14.736 7.874 22.84 9.269 7.896 1.372 16.29 1.278 23.92-1.383 10.536-3.667 16.993-12.904 20.535-23.075 1.945-5.576 2.726-11.378 2.806-17.271.076-5.614-.797-11.11-1.285-16.675 1.101-15.254-74.227-23.693-82.585 1.589z" fill="#E1E1E1"/><path d="M124.72 71.115c-1.263-4.994-5.59-7.94-10.241-9.346-4.38-1.334-9.044-.215-12.957 1.81-4.669 2.415-7.765 8.045-7.855 13.156-.12 6.14 5.186 10.715 10.749 12.08 1.184.285 2.43.394 3.692.352 3.949.295 8.059-.982 11.243-3.24 4.823-3.431 6.808-9.128 5.369-14.812z" fill="#E1E1E1"/><path d="M118.921 75.554c-.342 4.734-4.183 7.367-8.287 7.71-.262-4.326-.229-8.662-.169-12.995.016-1.156-1.775-1.004-1.79.138-.055 4.291-.083 8.586.156 12.868-3.491-.273-6.81-2.23-7.976-5.958-.34-1.098-2.028-.488-1.689.61 3.24 10.374 20.693 9.228 21.503-2.013.101-1.16-1.663-1.508-1.748-.36z" fill="#E1E1E1"/><path d="M101.706 63.67s6.297-6.018 15.444-.671c-.092 7.775-5.994 9.47-7.929 10.037-4.412-1.672-7.527-4.331-7.515-9.367z" fill="#E1E1E1"/><path d="M108.881 65.368c2.88.108 8.291-2.072 8.291-2.072s-1.282-24.152-9.126-23.468c-6.984.11-7.815 22.271-6.325 24.207 2.835 1.024 7.16 1.333 7.16 1.333zm15.59 31.652c-10.35.981-20.586 2.937-30.895 4.299-1.175 2.034-2.18 4.295-3.046 6.697 12.798-1.506 25.461-4.185 38.33-5.07-1.334-2.212-2.805-4.202-4.389-5.925zm-18.779 21.734c6.216-.487 12.283-1.521 18.38-2.831 3.15-.685 6.302-1.385 9.472-1.998a75.514 75.514 0 00-2.337-5.658c-2.673.543-5.324 1.144-7.986 1.716-5.958 1.311-11.903 2.247-17.981 2.749-5.54.45-11.09.718-16.622 1.085a78.736 78.736 0 00-1.27 6.042c6.125-.414 12.255-.631 18.344-1.105zm1.443 13.859c7.406-.761 14.748-1.445 22.033-3 2.89-.617 5.79-1.19 8.653-1.935a128.842 128.842 0 00-2.518-9.194 279.518 279.518 0 01-6.974 1.659c-6.832 1.508-14.159 2.18-21.296 2.914-6.785.704-13.575 1.198-20.392 1.563-.41 3.192-.682 6.414-.864 9.575 7.138-.358 14.248-.844 21.358-1.582zm32.796 5.187a243.204 243.204 0 00-1.365-6.862c-10.215 1.275-20.291 3.681-30.534 4.827-7.457.839-14.944 1.451-22.424 2.246a191.312 191.312 0 00-.12 7.02c7.481-.809 14.969-1.421 22.452-2.243 10.734-1.162 21.272-3.713 31.991-4.988zm-30.304 12.734c6.218-.626 12.406-1.368 18.59-2.319 4.363-.664 8.729-1.355 13.104-1.864-.168-1.135-.362-2.286-.541-3.45-4.078.485-8.144 1.112-12.209 1.738-6.184.952-12.36 1.709-18.579 2.349-8.141.834-16.296 1.54-24.457 2.176.021 1.202.045 2.377.075 3.497a1059.03 1059.03 0 0024.017-2.127zm32.248-.105c-.201.048-.403.109-.604.157-2.774.699-5.808.964-8.671 1.333-6.449.824-12.926 1.394-19.406 1.992-6.38.581-12.785 1.257-19.202 1.289-2.727.021-5.562.002-8.27.108.1 2.885.333 5.325.394 7.174 2.819-.094 5.658.009 8.425.007 6.205-.014 12.414-.683 18.582-1.246 6.281-.563 12.549-1.143 18.809-1.904 3.144-.379 6.271-.858 9.402-1.364.498-.085 1-.197 1.504-.337a396.17 396.17 0 00-.963-7.209zm-38.73-81.579c.83 1.208 2.119 1.936 3.236 2.826a2.926 2.926 0 00.835-1.987c.008-.71-.276-1.551-.824-2.03-.218-.178-.419-.381-.655-.519a3.11 3.11 0 00-2.242-.317c-.345.088-.7.258-1.003.476.238.626.424 1.219.653 1.55zm9.876 2.568c1.082-.941 2.329-1.864 2.971-3.119.23-.435.356-.937.507-1.423-.45-.357-1.054-.577-1.796-.56-2.914.069-3.407 3.642-1.682 5.102z" fill="#E1E1E1"/><path d="M106.709 58.11c-.004.795.048 1.582.1 2.383.032.464.737.402.719-.06a33.11 33.11 0 01-.1-2.383c-.005-.46-.71-.4-.719.06zm2.837-2.282c.062.83.11 1.659.115 2.496.005.461.71.4.718-.046a36.33 36.33 0 00-.115-2.496c-.033-.464-.75-.418-.718.046zm1.82-4.961c-.076-.455-.795-.394-.718.047.183.996.253 2.008.322 3.02.033.465.752.404.718-.046-.07-1.012-.153-2.026-.322-3.02zm-3.136.561c-.048-.452-.766-.405-.719.06.115.976.077 1.948.138 2.917.032.464.738.402.719-.06-.061-.97-.023-1.942-.138-2.917zm-4.05-.67c.057.871.058 1.75.115 2.621.032.464.738.403.719-.06-.057-.871-.058-1.75-.115-2.621-.034-.45-.752-.404-.719.06zm1.858-5.417c-.191.97-.284 1.936-.239 2.918.018.462.737.402.717-.047-.051-.926.048-1.822.218-2.724.092-.45-.605-.597-.696-.147zm3.653-.685c-.076-.455-.795-.395-.719.06.171.982.157 1.985.314 2.965.076.454.795.394.72-.06-.171-.982-.144-1.984-.315-2.965zm3.846 12.742c-.062-.453-.766-.405-.718.047.136 1.047.314 2.085.393 3.14.033.464.752.404.719-.06-.08-1.041-.259-2.08-.394-3.127zm-3.73 4.025c.03.492.058.997.046 1.484-.023.458.696.398.719-.06.027-.5-.002-.991-.045-1.484-.034-.45-.752-.404-.72.06zm-5.09-1.733c-.214-.72-.215-1.474-.258-2.218-.032-.464-.738-.403-.719.06.05.815.058 1.625.293 2.404.132.447.816.201.684-.246zm1.429 4.26c-.329-.693-.413-1.442-.57-2.17-.091-.443-.775-.197-.67.247.155.742.241 1.477.57 2.17.178.41.86.178.67-.248zm-21.62-22.99c-1.878-.068-3.479.886-4.903 2.012a13.486 13.486 0 00-3.112 2.239c-1.047 1 .043 2.767 1.342 2.645 2.879-.255 7.796-1.639 8.377-4.993.193-1.109-.66-1.872-1.704-1.904zm52.605-.7c-1.629-.934-3.482-.859-5.279-.527-1.272 0-2.548.166-3.802.516-1.399.39-1.264 2.456-.063 2.966 2.656 1.13 7.651 2.21 9.749-.461.685-.888.301-1.962-.605-2.495zM83.362 80.437c1.364-1.342 4.782-4.328 3.11-6.522-2.062-2.696-5.292.227-6.998 1.755-1.956 1.766-3.655 3.866-5.699 5.539a32.74 32.74 0 003.986 4.638c1.838-1.834 3.75-3.59 5.6-5.41zm7.001 3.799c.233-1.468-1.27-3.168-2.832-2.433-3.067 1.448-4.77 4.093-6.715 6.64a41.485 41.485 0 004.957 3.184c1.871-2.263 4.098-4.334 4.59-7.391zM74.843 74.21c2.448-1.418 4.709-3.164 6.83-5.037 1.566-1.39.885-3.948-1.384-3.905-2.633.058-5.03 1.65-7.226 2.929-1.464.857-2.976 1.64-4.465 2.466a42.892 42.892 0 002.198 5.516c1.345-.661 2.763-1.23 4.046-1.968zm-3.248-9.187c2.474-.51 5.788-1.288 6.949-3.825.553-1.21-.105-2.844-1.522-3.042-3.646-.514-7.036.703-10.522 1.394.167 2.153.429 4.205.794 6.087 1.45-.105 2.9-.322 4.301-.614zm19.119-25.305c.593 1.711 3.21 1.93 3.944.211 1.446-3.342.835-7.163.708-10.692a75.352 75.352 0 00-.25-4.06 76.913 76.913 0 00-5.798.896c-.022 4.616-.127 9.222 1.396 13.645zm13.871-3.117c.568-3.997.734-8.024.663-12.05-2.043.026-4.064.11-6.064.253-.06 4.08.002 8.19 1.273 12.11.633 1.98 3.824 1.802 4.128-.313zm10.817-6.075c-.042-1.889-.114-3.766-.17-5.655a115.717 115.717 0 00-6.17-.303 40.304 40.304 0 001.184 12.282c.234.918 1.304 1.469 2.177 1.411 3.209-.218 3.042-5.524 2.979-7.735zm8.414 7.317c1.495-2.779 1-6.265.831-9.284a54.72 54.72 0 00-.201-2.603c-1.797-.295-3.642-.54-5.52-.747-.31 4.193-.441 8.406.931 12.421.638 1.814 3.111 1.808 3.959.213zm14.489 17.6c-1.676 1.127-.874 3.35.801 3.87 2.446.757 5.03.763 7.581.82 1.073.021 2.424-.193 3.681-.18.112-1.397.168-2.786.184-4.194l.001-1.144c-4.074-.31-8.716-1.546-12.248.828zm4.68 8.982c-2.414-.154-5.558-.528-7.571 1.12-1.245 1.02-1.23 2.906.277 3.686 2.51 1.31 5.377 1.416 8.139 1.58 1.416.087 3.074-.121 4.666-.113a49.637 49.637 0 001.33-5.965 188.172 188.172 0 01-6.841-.308zm-1.718 9.353c-2.254-.472-5.932-1.323-7.908.37-1.265 1.075-1.195 2.841.277 3.687 3.217 1.861 6.906 2.365 10.39 3.46 1.109-1.942 2.062-3.986 2.894-6.071a79.38 79.38 0 00-5.653-1.446zm-10.596 8.249c-1.731.242-2.39 1.9-1.6 3.354 1.03 1.927 3.732 2.894 5.592 3.755.798.367 1.614.694 2.432 1.008 1.6-1.457 3.038-3.084 4.335-4.825-3.41-1.77-6.771-3.844-10.759-3.292zM68.98 88.43c-.783-2.276-1.84-4.458-3.05-6.544-1.166-1.956-2.724-3.662-4.289-5.3-1.568-1.61-3.43-2.833-5.325-4.019-1.895-1.185-3.97-1.874-6.101-2.57-2.159-.698-4.352-.828-6.603-.936-2.307-.115-4.437.32-6.685.812-4.667 1.02-8.728 3.754-12.17 6.96-2.792 2.623-4.966 5.983-6.67 9.395-3.784 7.55-5.24 16.039-5.425 24.404-.084 4.036.463 7.933 1.314 11.864.702 3.244 2.2 6.255 4.183 8.915 4.806 6.445 11.87 11.674 19.782 13.523 2.002.471 4.166.612 6.21.447 2.186-.178 4.038-.755 5.905-1.596.388-.097.792-.206 1.169-.332 1.964-.578 3.867-1.611 5.547-2.779 3.952-2.759 6.96-6.837 9.055-11.126 4.105-8.435 5.893-18.032 5.627-27.368a47.109 47.109 0 00-2.475-13.75zm128.976-24.099c-1.713-1.695-3.629-3.19-5.65-4.5-1.902-1.243-4.058-2.094-6.194-2.86-2.111-.749-4.332-1.007-6.556-1.238-2.224-.231-4.397.087-6.598.403-2.243.325-4.267 1.19-6.321 2.08-2.115.925-3.841 2.256-5.634 3.69-3.727 2.994-6.152 7.233-7.799 11.642-1.346 3.577-1.787 7.56-1.803 11.368-.025 8.438 2.427 16.702 6.005 24.268 1.719 3.663 3.946 6.894 6.462 10.046 2.075 2.586 4.755 4.625 7.706 6.122 7.169 3.65 15.828 5.19 23.732 3.341 2.007-.463 4-1.304 5.765-2.351 1.87-1.119 3.291-2.47 4.584-4.057.31-.273.604-.534.9-.808 1.51-1.396 2.753-3.157 3.734-4.96 2.326-4.222 3.2-9.219 3.154-13.981-.081-9.37-2.743-18.775-7.14-27.017a47.487 47.487 0 00-8.347-11.188zM109.19 201.222c-.076-7.389-1-14.829-2.62-22.025-.751-3.319-1.48-6.831-4.094-9.212-1.307-1.191-3.194-1.691-4.907-1.866-1.673-.157-3.429-.071-5.023.451-1.698.566-2.804 1.979-2.973 3.635a2.45 2.45 0 00-.25 1.493c.741 4.671 2.07 9.212 3.457 13.718 1.35 4.334 2.645 8.411 3.84 12.77.578 2.1 1.17 4.202 1.474 6.37.165 1.163.185 1.737.103 2.858-.015.263-.06.537-.088.799 0 0-.106.575-.087.535a7.605 7.605 0 01-.398 1.072c-.019.04-.18.357-.182.385a3.74 3.74 0 01-.238.378c-.222.366-.484.714-.746 1.062-.51.697-1.073 1.36-1.609 2.041-1.27 1.632-2.243 3.352-2.663 5.384-.288 1.336.963 2.408 2.127 2.62 2.864.497 5.614.019 8.074-1.51 2.1-1.303 3.526-3.587 4.483-5.798 2.068-4.669 2.377-10.117 2.32-15.16zm49.795-8.121c-6.516-2.993-12.733-6.789-18.455-11.145-2.642-2.007-5.46-4.076-6.512-7.443-.526-1.69-.213-3.637.334-5.293.528-1.616 1.32-3.217 2.44-4.503 1.185-1.363 2.886-1.831 4.423-1.327.494-.043.998.068 1.428.353 3.842 2.53 7.335 5.566 10.767 8.637 3.304 2.973 6.389 5.783 9.763 8.624 1.624 1.365 3.258 2.759 5.047 3.891.967.609 1.456.858 2.492 1.223.242.083.498.167.756.237 0 0 .545.13.503.125.371.055.749.055 1.112.053.042.005.394-.026.422-.023.143-.026.284-.039.44-.063.413-.067.83-.174 1.232-.269.818-.203 1.63-.463 2.452-.693 1.959-.537 3.87-.759 5.838-.361 1.298.268 1.753 1.839 1.455 3.02-.723 2.865-2.243 5.237-4.608 6.916-2.004 1.439-4.594 1.866-6.957 1.884-4.968.067-9.919-1.79-14.372-3.843z" fill="#E1E1E1"/><path d="M53.48 98.192c-.478-3.513-2.211-7.164-5.71-8.498-4.222-1.623-8.916.9-11.592 4.122-2.5 3.03-3.934 7.393-4.167 11.274-.128 2.163.102 4.378.999 6.375.224.499 1.51 2.51.517.88.38.613.745 1.226 1.185 1.79.636.824 1.43 1.595 2.288 2.178 2.455 1.679 5.567 1.966 8.265.687a8.188 8.188 0 001.043-.583c1.591-.745 2.974-2.127 4.04-3.433a13.306 13.306 0 002.502-4.928c.82-3.244 1.074-6.551.63-9.864zm141.25-4.972c.291-4.266-.854-8.312-3.097-11.908-.938-1.498-2.296-2.862-3.801-3.781-2.331-1.415-4.75-1.905-7.458-1.798-4.503.16-8.06 4.148-9.303 8.183-.156.527-.299 1.07-.414 1.6-.62 2.193-.545 4.67-.183 6.831.508 2.986 1.714 5.728 3.378 8.241 1.449 2.183 3.71 4.218 6.254 4.972 3.449 1.022 6.867.185 9.61-2.122 3.067-2.592 4.742-6.244 5.014-10.219zm-51.259 67.304c.003-.154-.007-.322-.004-.475-10.516 1.464-20.941 3.497-31.504 4.622-8.413.901-16.86 1.589-25.28 2.42.399 1.327.784 2.64 1.27 3.935.365.989.79 1.957 1.302 2.879 7.5-.723 15.004-1.361 22.496-2.14 10.376-1.076 20.626-3.045 30.934-4.518.603-.143 1.019-5.93.786-6.723zm-8.233 16.826c.015-.012.032-.039.048-.051.032-.038.079-.089.128-.153a64.465 64.465 0 002.905-3.643 723.353 723.353 0 01-20.066 2.143c-8.329.771-16.667 1.485-24.998 2.144.56.368 1.136.725 1.727 1.069.091.052.868.486.762.433l.594.317c.791.422 1.585.83 2.378 1.238 6.331-.516 12.652-1.062 18.975-1.635a782.922 782.922 0 0017.527-1.809c-.011-.029.005-.041.02-.053zm-39.766 40.816c-1.503.951-2.183 2.55-2.645 4.201-.142.528.648.839.804.312.42-1.517.984-2.961 2.38-3.84.468-.311-.087-.972-.54-.673zm2.957.675c-.982 1.301-1.836 2.449-2.062 4.112-.075.55.783.63.858.081.193-1.5 1.02-2.525 1.904-3.697.314-.44-.37-.948-.7-.496zm85.489-29.551c-2.279.014-4.149 1.385-5.851 2.746-.429.344.113 1.003.542.66 1.502-1.202 3.216-2.548 5.23-2.563.544.004.624-.838.079-.843zm-.045-3.52c-2.483-.288-4.873 1.361-6.726 2.831-.43.343.112 1.003.541.659 1.655-1.31 3.87-2.894 6.105-2.634.539.046.633-.795.08-.856zM55.062 60.126c-11.403-4.535-23.03 2.668-30.928 10.532-.613.617.233 1.686.861 1.058 7.522-7.487 18.641-14.662 29.563-10.32.83.33 1.32-.943.504-1.27zM42.41 49.804a25.04 25.04 0 00-11.545 4.965c-3.377 2.613-6 6.106-7.952 9.867-.408.778.88 1.269 1.273.489 3.78-7.258 10.236-12.7 18.454-13.984.866-.128.638-1.478-.23-1.337zm174.712 33.665c-.285-.827-1.535-.267-1.249.56 2.653 7.714 2.782 15.89 1.907 23.926-.098.882 1.27 1.019 1.368.137.902-8.285.713-16.676-2.026-24.623zm9.741 6.054c-.071-.872-1.423-.645-1.352.228.437 5.14.173 10.301-.862 15.363-.178.859 1.189.996 1.368.136 1.062-5.184 1.283-10.46.846-15.727zm-159.86 48.021c-3.793 7.131-10.962 10.806-18.226 13.563-.83.313-.256 1.562.56 1.248 3.822-1.449 7.583-3.113 10.97-5.433 3.341-2.297 6.063-5.303 7.969-8.889.42-.763-.853-1.252-1.273-.489zm.051 10.54c-2.097 1.527-4.144 3.101-6.524 4.15-.808.358-.247 1.605.561 1.248 2.484-1.108 4.636-2.754 6.81-4.342.728-.52-.133-1.578-.847-1.056zm22.772-92.241c-.368-2.859-1.92-6.392-5.169-6.318-3.32.081-6.257 3.51-6.377 6.874-.062 1.444 2.105 1.683 2.168.225.085-2.279 1.887-4.55 4.085-4.838 2.142-.294 2.943 2.822 3.156 4.436.176 1.442 2.327 1.065 2.138-.379zm46.927-.907c-.368-2.86-1.919-6.393-5.169-6.318-3.321.08-6.257 3.51-6.378 6.873-.062 1.445 2.106 1.684 2.169.226.085-2.28 1.887-4.55 4.084-4.839 2.141-.28 2.944 2.822 3.156 4.436.175 1.457 2.328 1.066 2.138-.378z" fill="#E1E1E1"/></svg>